<svg width="18" height="18" viewBox="0 0 18 18" fill="none" xmlns="http://www.w3.org/2000/svg">
<path d="M14.565 8.8125H12C11.6925 8.8125 11.4375 8.5575 11.4375 8.25V3.0075C11.4375 2.4525 11.655 1.935 12.045 1.545C12.435 1.155 12.9525 0.9375 13.5075 0.9375H13.515C14.4525 0.945 15.3375 1.3125 16.0125 1.98C16.6875 2.6625 17.055 3.5625 17.055 4.5V6.315C17.0625 7.8075 16.0575 8.8125 14.565 8.8125ZM12.5625 7.6875H14.565C15.435 7.6875 15.9375 7.185 15.9375 6.315V4.5C15.9375 3.855 15.6825 3.24 15.225 2.775C14.7675 2.325 14.1525 2.07 13.515 2.0625C13.515 2.0625 13.515 2.0625 13.5075 2.0625C13.26 2.0625 13.02 2.16 12.84 2.34C12.66 2.52 12.5625 2.7525 12.5625 3.0075V7.6875Z" fill="white"/>
<path d="M6.74983 17.4975C6.39733 17.5125 6.06732 17.3625 5.81982 17.1075L4.57483 15.855C4.50733 15.7875 4.40233 15.78 4.32733 15.84L3.04483 16.8C2.64733 17.1 2.12233 17.1525 1.67233 16.9275C1.22233 16.7025 0.944824 16.2525 0.944824 15.75V4.5C0.944824 2.235 2.24232 0.9375 4.50732 0.9375H13.5073C13.8148 0.9375 14.0698 1.1925 14.0698 1.5C14.0698 1.8075 13.8148 2.0625 13.5073 2.0625C12.9898 2.0625 12.5698 2.4825 12.5698 3V15.75C12.5698 16.2525 12.2923 16.7025 11.8423 16.9275C11.3923 17.1525 10.8673 17.1075 10.4698 16.8075L9.18733 15.8475C9.11233 15.7875 9.00732 15.8025 8.94732 15.8625L7.68733 17.1225C7.43233 17.3625 7.10233 17.4975 6.74983 17.4975ZM4.43233 14.6775C4.77733 14.6775 5.11483 14.805 5.36983 15.0675L6.61483 16.32C6.65983 16.365 6.71983 16.3725 6.74983 16.3725C6.74983 16.3575 6.83982 16.365 6.88482 16.32L8.14483 15.06C8.60983 14.595 9.34482 14.55 9.86232 14.9475L11.1373 15.9C11.2198 15.96 11.2948 15.9375 11.3323 15.915C11.3698 15.8925 11.4373 15.8475 11.4373 15.75V3C11.4373 2.6625 11.5198 2.34 11.6623 2.0625H4.49983C2.83483 2.0625 2.06233 2.835 2.06233 4.5V15.75C2.06233 15.855 2.12983 15.9 2.16733 15.9225C2.21233 15.945 2.28732 15.96 2.36232 15.9L3.64483 14.94C3.87733 14.7675 4.15483 14.6775 4.43233 14.6775Z" fill="white"/>
<path d="M8.8125 8.0625H4.6875C4.38 8.0625 4.125 7.8075 4.125 7.5C4.125 7.1925 4.38 6.9375 4.6875 6.9375H8.8125C9.12 6.9375 9.375 7.1925 9.375 7.5C9.375 7.8075 9.12 8.0625 8.8125 8.0625Z" fill="white"/>
<path d="M6.75 10.125C6.4425 10.125 6.1875 9.87 6.1875 9.5625V5.4375C6.1875 5.13 6.4425 4.875 6.75 4.875C7.0575 4.875 7.3125 5.13 7.3125 5.4375V9.5625C7.3125 9.87 7.0575 10.125 6.75 10.125Z" fill="white"/>
</svg>
