<?xml version="1.0" encoding="UTF-8"?>
<!DOCTYPE svg PUBLIC "-//W3C//DTD SVG 1.1//EN" "http://www.w3.org/Graphics/SVG/1.1/DTD/svg11.dtd">
<!-- Creator: CorelDRAW -->
<svg xmlns="http://www.w3.org/2000/svg" xml:space="preserve" width="35mm" height="35mm" version="1.1" style="shape-rendering:geometricPrecision; text-rendering:geometricPrecision; image-rendering:optimizeQuality; fill-rule:evenodd; clip-rule:evenodd"
viewBox="0 0 3500 3500"
 xmlns:xlink="http://www.w3.org/1999/xlink"
 xmlns:xodm="http://www.corel.com/coreldraw/odm/2003">
 <defs>
  <style type="text/css">
   <![CDATA[
    .fil2 {fill:url(#id0)}
    .fil1 {fill:url(#id1)}
    .fil0 {fill:url(#id2)}
   ]]>
  </style>
  <linearGradient id="id0" gradientUnits="userSpaceOnUse" x1="1155.58" y1="1810.34" x2="1132.41" y2="1615.06">
   <stop offset="0" style="stop-opacity:1; stop-color:#2C665A"/>
   <stop offset="1" style="stop-opacity:1; stop-color:#019985"/>
  </linearGradient>
  <linearGradient id="id1" gradientUnits="userSpaceOnUse" xlink:href="#id0" x1="1156.71" y1="957.1" x2="1133.54" y2="761.81">
  </linearGradient>
  <linearGradient id="id2" gradientUnits="userSpaceOnUse" xlink:href="#id0" x1="2454.25" y1="3140.72" x2="2265.75" y2="493.82">
  </linearGradient>
 </defs>
 <g id="Слой_x0020_1">
  <metadata id="CorelCorpID_0Corel-Layer"/>
  <path class="fil0" d="M865.59 602.25l411.24 0c29.5,0 53.69,24.25 53.69,53.65l0 392.49c0,29.41 -24.3,53.65 -53.69,53.65l-411.24 0c-29.34,0 -53.59,-24.14 -53.59,-53.65l0 -392.49c0,-29.5 24.14,-53.65 53.59,-53.65zm-94.73 -497.7l1953.07 0c175.63,0 319.35,143.79 319.35,319.37l0 2657.37c0,175.58 -143.77,319.37 -319.35,319.37l-1953.07 0c-175.57,0 -319.35,-143.74 -319.35,-319.37l0 -2657.37c0,-175.63 143.72,-319.37 319.35,-319.37zm1.03 91.83l1942.65 0c140.31,0 242.69,103.77 242.69,243.88l0 2633.58c0,140.1 -98.36,231.36 -238.51,231.36l-1942.65 0c-140.16,0 -245.71,-93.04 -245.71,-233.3l0 -2633.59c0,-140.26 101.21,-241.93 241.53,-241.93zm1479.76 2587.51l387.4 0c37.56,0 68.4,30.76 68.4,68.43l0 0c0,37.57 -30.89,68.35 -68.4,68.35l-387.4 0c-37.56,0 -68.4,-30.78 -68.4,-68.35l0 0c0,-37.67 30.79,-68.43 68.4,-68.43zm-694.26 -424.82l1081.66 0c37.67,0 68.45,30.83 68.45,68.44l0 0c0,37.67 -30.89,68.45 -68.45,68.45l-1081.66 0c-37.56,0 -68.39,-30.78 -68.39,-68.45l0 0c0,-37.61 30.78,-68.44 68.39,-68.44zm73.09 -465.85l1008.57 0c37.67,0 68.45,30.83 68.45,68.39l0 0.06c0,37.52 -30.89,68.34 -68.45,68.34l-1008.57 0c-37.56,0 -68.39,-30.77 -68.39,-68.34l0 -0.06c0,-37.61 30.78,-68.39 68.39,-68.39zm277.83 -413.58l730.74 0c37.56,0 68.4,30.78 68.4,68.44l0 0c0,37.63 -30.89,68.4 -68.4,68.4l-730.74 0c-37.58,0 -68.4,-30.77 -68.4,-68.4l0 0c0,-37.66 30.77,-68.44 68.4,-68.44zm-216.62 -516.53l947.36 0c37.56,0 68.4,30.78 68.4,68.39l0 0c0,37.63 -30.89,68.39 -68.4,68.39l-947.36 0c-37.57,0 -68.39,-30.76 -68.39,-68.39l0 0c0,-37.61 30.76,-68.39 68.39,-68.39zm0 -395.56l947.36 0c37.56,0 68.4,30.77 68.4,68.34l0 0c0,37.67 -30.89,68.45 -68.4,68.45l-947.36 0c-37.57,0 -68.39,-30.78 -68.39,-68.45l0 0c0,-37.57 30.76,-68.34 68.39,-68.34zm-826.1 1816.48l411.24 0c29.5,0 53.69,24.24 53.69,53.69l0 392.46c0,29.34 -24.3,53.63 -53.69,53.63l-411.24 0c-29.34,0 -53.59,-24.13 -53.59,-53.63l0 -392.46c0,-29.55 24.14,-53.69 53.59,-53.69zm59.77 72.68l291.75 0c20.93,0 38.02,17.2 38.02,37.97l0 278.48c0,20.83 -17.25,38.03 -38.02,38.03l-291.75 0c-20.82,0 -38.02,-17.1 -38.02,-38.03l0 -278.48c0,-20.88 17.09,-37.97 38.02,-37.97zm-59.77 -981.51l411.24 0c29.5,0 53.69,24.24 53.69,53.59l0 392.56c0,29.34 -24.3,53.58 -53.69,53.58l-411.24 0c-29.34,0 -53.59,-24.13 -53.59,-53.58l0 -392.56c0,-29.45 24.14,-53.59 53.59,-53.59zm59.77 72.69l291.75 0c20.93,0 38.02,17.19 38.02,37.96l0 278.43c0,20.83 -17.25,38.03 -38.02,38.03l-291.75 0c-20.82,0 -38.02,-17.1 -38.02,-38.03l0 -278.43c0,-20.87 17.09,-37.96 38.02,-37.96zm0 -873l291.75 0c20.93,0 38.02,17.3 38.02,38.08l0 278.37c0,20.87 -17.25,38.08 -38.02,38.08l-291.75 0c-20.82,0 -38.02,-17.11 -38.02,-38.08l0 -278.37c0,-20.88 17.09,-38.08 38.02,-38.08z"/>
  <path class="fil1" d="M1173.37 738.43c-49.2,49.15 -96.77,96.77 -145.98,145.93 -4.64,-2.61 -52.21,-50.59 -63.34,-60.84 -4.54,-4.34 -13.22,-6.18 -19.45,0.66 -11.84,12.04 -25.52,25.06 -29.34,29.14 -5.36,4.85 -6.64,12.66 -1.33,18.17 31.7,31.7 63.34,63.34 95.04,95.04 11.23,11.79 22.51,11.89 29.6,5.62 61.81,-61.2 123.62,-122.45 185.43,-183.65 3.93,-4.49 8.47,-11.18 1.43,-18.12l-31.7 -33.07c-6.63,-6.94 -15.82,-4.44 -20.36,1.12z"/>
  <path class="fil2" d="M1172.25 1591.68c-49.21,49.15 -96.78,96.77 -145.98,145.92 -4.64,-2.6 -52.21,-50.58 -63.34,-60.84 -4.54,-4.34 -13.22,-6.18 -19.45,0.66 -11.84,12.05 -25.52,25.06 -29.35,29.15 -5.36,4.85 -6.63,12.66 -1.32,18.17 31.69,31.69 63.34,63.34 95.03,95.04 11.23,11.79 22.51,11.89 29.61,5.61 61.81,-61.2 123.62,-122.45 185.43,-183.64 3.93,-4.5 8.47,-11.18 1.43,-18.12l-31.7 -33.08c-6.63,-6.94 -15.82,-4.44 -20.36,1.13z"/>
 </g>
</svg>
