<?xml version="1.0" encoding="UTF-8"?>
<!DOCTYPE svg PUBLIC "-//W3C//DTD SVG 1.1//EN" "http://www.w3.org/Graphics/SVG/1.1/DTD/svg11.dtd">
<!-- Creator: CorelDRAW -->
<svg xmlns="http://www.w3.org/2000/svg" xml:space="preserve" width="35mm" height="35mm" version="1.1" style="shape-rendering:geometricPrecision; text-rendering:geometricPrecision; image-rendering:optimizeQuality; fill-rule:evenodd; clip-rule:evenodd"
viewBox="0 0 3500 3500"
 xmlns:xlink="http://www.w3.org/1999/xlink"
 xmlns:xodm="http://www.corel.com/coreldraw/odm/2003">
 <defs>
  <style type="text/css">
   <![CDATA[
    .fil1 {fill:url(#id0)}
    .fil0 {fill:url(#id1)}
   ]]>
  </style>
  <linearGradient id="id0" gradientUnits="userSpaceOnUse" x1="2977.19" y1="1929.28" x2="2121.62" y2="2937.14">
   <stop offset="0" style="stop-opacity:1; stop-color:#2C665A"/>
   <stop offset="1" style="stop-opacity:1; stop-color:#019985"/>
  </linearGradient>
  <linearGradient id="id1" gradientUnits="userSpaceOnUse" xlink:href="#id0" x1="2454.24" y1="3140.72" x2="2265.74" y2="493.82">
  </linearGradient>
 </defs>
 <g id="Слой_x0020_1">
  <metadata id="CorelCorpID_0Corel-Layer"/>
  <g id="_2242769745248">
   <path class="fil0" d="M865.59 602.25l411.23 0c29.51,0 53.69,24.25 53.69,53.65l0 392.49c0,29.41 -24.29,53.65 -53.69,53.65l-411.23 0c-29.34,0 -53.6,-24.14 -53.6,-53.65l0 -392.49c0,-29.5 24.15,-53.65 53.6,-53.65zm-94.73 -497.7l1953.07 0c175.63,0 319.35,143.79 319.35,319.37l0 2657.37c0,175.58 -143.78,319.37 -319.35,319.37l-1953.07 0c-175.58,0 -319.35,-143.74 -319.35,-319.37l0 -2657.37c0,-175.63 143.72,-319.37 319.35,-319.37zm1.03 91.83l1942.65 0c140.31,0 242.69,103.77 242.69,243.88l0 2633.58c0,140.1 -98.36,231.36 -238.51,231.36l-1942.65 0c-140.17,0 -245.71,-93.04 -245.71,-233.3l0 -2633.59c0,-140.26 101.2,-241.93 241.53,-241.93zm801.58 2587.51l213.8 0c37.58,0 68.4,30.76 68.4,68.43l0 0c0,37.57 -30.98,68.35 -68.4,68.35l-213.8 0c-37.46,0 -68.4,-30.78 -68.4,-68.35l0 0c0,-37.67 30.78,-68.43 68.4,-68.43zm-16.08 -424.82l593.19 0c37.67,0 68.45,30.83 68.45,68.44l0 0c0,37.67 -30.93,68.45 -68.45,68.45l-593.19 0c-37.51,0 -68.39,-30.78 -68.39,-68.45l0 0c0,-37.61 30.78,-68.44 68.39,-68.44zm73.09 -465.85l1008.57 0c37.66,0 68.45,30.83 68.45,68.39l0 0.06c0,37.52 -30.89,68.34 -68.45,68.34l-1008.57 0c-37.56,0 -68.39,-30.77 -68.39,-68.34l0 -0.06c0,-37.61 30.78,-68.39 68.39,-68.39zm18.17 -413.58l990.4 0c37.56,0 68.39,30.78 68.39,68.44l0 0c0,37.63 -30.94,68.4 -68.39,68.4l-990.4 0c-37.5,0 -68.39,-30.77 -68.39,-68.4l0 0c0,-37.66 30.78,-68.44 68.39,-68.44zm43.04 -516.53l947.36 0c37.56,0 68.39,30.78 68.39,68.39l0 0c0,37.63 -30.88,68.39 -68.39,68.39l-947.36 0c-37.58,0 -68.4,-30.76 -68.4,-68.39l0 0c0,-37.61 30.77,-68.39 68.4,-68.39zm0 -395.56l947.36 0c37.56,0 68.39,30.77 68.39,68.34l0 0c0,37.67 -30.88,68.45 -68.39,68.45l-947.36 0c-37.58,0 -68.4,-30.78 -68.4,-68.45l0 0c0,-37.57 30.77,-68.34 68.4,-68.34zm-826.1 1816.48l411.23 0c29.51,0 53.69,24.24 53.69,53.69l0 392.46c0,29.34 -24.29,53.63 -53.69,53.63l-411.23 0c-29.34,0 -53.6,-24.13 -53.6,-53.63l0 -392.46c0,-29.55 24.15,-53.69 53.6,-53.69zm59.77 72.68l291.75 0c20.93,0 38.02,17.2 38.02,37.97l0 278.48c0,20.83 -17.25,38.03 -38.02,38.03l-291.75 0c-20.83,0 -38.02,-17.1 -38.02,-38.03l0 -278.48c0,-20.88 17.09,-37.97 38.02,-37.97zm-59.77 -981.51l411.23 0c29.51,0 53.69,24.24 53.69,53.59l0 392.56c0,29.34 -24.29,53.58 -53.69,53.58l-411.23 0c-29.34,0 -53.6,-24.13 -53.6,-53.58l0 -392.56c0,-29.45 24.15,-53.59 53.6,-53.59zm59.77 72.69l291.75 0c20.93,0 38.02,17.19 38.02,37.96l0 278.43c0,20.83 -17.25,38.03 -38.02,38.03l-291.75 0c-20.83,0 -38.02,-17.1 -38.02,-38.03l0 -278.43c0,-20.87 17.09,-37.96 38.02,-37.96zm0 -873l291.75 0c20.93,0 38.02,17.3 38.02,38.08l0 278.37c0,20.87 -17.25,38.08 -38.02,38.08l-291.75 0c-20.83,0 -38.02,-17.11 -38.02,-38.08l0 -278.37c0,-20.88 17.09,-38.08 38.02,-38.08z"/>
   <path class="fil1" d="M2042.32 3126.09c17.2,13.26 36.64,11.18 68.61,-7.53 168.34,-87.71 129.74,-69.56 245.37,-133.95 224.31,-255.32 448.55,-510.64 672.8,-765.9 -73.83,-64.78 -147.66,-129.57 -221.44,-194.36 -224.24,255.6 -448.55,511.21 -672.79,766.74 -53.5,132.49 -36.19,90.47 -96.08,269.2 -12.03,25.85 -13.61,52.65 3.53,65.8zm1045.6 -974.3l-223.68 -196.32c25.74,-29.33 51.47,-58.72 77.26,-88.04 57.98,-68.44 99,-51.53 129.23,-28.78 33.61,29.5 67.2,59.01 100.86,88.5 35.9,35.62 52.87,72.09 -9.61,140.25l-74.06 84.39zm-785.56 782.86l-106.08 -93.09 -50.06 124.68 39.67 34.83 116.47 -66.42z"/>
  </g>
 </g>
</svg>
