<?xml version="1.0" encoding="UTF-8"?>
<!DOCTYPE svg PUBLIC "-//W3C//DTD SVG 1.1//EN" "http://www.w3.org/Graphics/SVG/1.1/DTD/svg11.dtd">
<!-- Creator: CorelDRAW -->
<svg xmlns="http://www.w3.org/2000/svg" xml:space="preserve" width="35mm" height="35mm" version="1.1" style="shape-rendering:geometricPrecision; text-rendering:geometricPrecision; image-rendering:optimizeQuality; fill-rule:evenodd; clip-rule:evenodd"
viewBox="0 0 3500 3500"
 xmlns:xlink="http://www.w3.org/1999/xlink"
 xmlns:xodm="http://www.corel.com/coreldraw/odm/2003">
 <defs>
  <style type="text/css">
   <![CDATA[
    .fil0 {fill:#FEFEFE}
   ]]>
  </style>
 </defs>
 <g id="Слой_x0020_1">
  <metadata id="CorelCorpID_0Corel-Layer"/>
  <path class="fil0" d="M1996.45 1591.66c182.37,-178.79 364.74,-357.64 547.1,-536.43 91.83,-99.64 24.45,-321.71 -61.3,-419.35 -123.92,-146.23 -349.06,-205.85 -485.8,-95.6 -336.15,321.86 -672.31,643.67 -1008.46,965.53 -107.64,117.85 -107.64,375.71 0,493.56 336.15,321.86 672.31,643.67 1008.46,965.54 136.74,110.24 361.88,50.63 485.8,-95.6 85.75,-97.64 153.13,-319.72 61.3,-419.35 -182.36,-178.8 -364.73,-357.64 -547.1,-536.44 -157.72,-157.97 -157.72,-163.89 0,-321.86z"/>
 </g>
</svg>
