<?xml version="1.0" encoding="UTF-8"?>
<!DOCTYPE svg PUBLIC "-//W3C//DTD SVG 1.1//EN" "http://www.w3.org/Graphics/SVG/1.1/DTD/svg11.dtd">
<!-- Creator: CorelDRAW -->
<svg xmlns="http://www.w3.org/2000/svg" xml:space="preserve" width="35mm" height="35mm" version="1.1" style="shape-rendering:geometricPrecision; text-rendering:geometricPrecision; image-rendering:optimizeQuality; fill-rule:evenodd; clip-rule:evenodd"
viewBox="0 0 3500 3500"
 xmlns:xlink="http://www.w3.org/1999/xlink"
 xmlns:xodm="http://www.corel.com/coreldraw/odm/2003">
 <defs>
  <style type="text/css">
   <![CDATA[
    .fil0 {fill:#88ADA6}
   ]]>
  </style>
 </defs>
 <g id="Слой_x0020_1">
  <metadata id="CorelCorpID_0Corel-Layer"/>
  <path class="fil0" d="M1251.71 2511.9l-1.06 126.61 -951.1 0 0 -123.98 952.16 -2.63zm724.67 -904.98c-45.83,22.5 -42.87,94.25 40.22,95.75 86.19,1.55 567.85,3.61 588.75,-5.97 41.03,-18.85 46,-94.41 -41.25,-95.69 -87.21,-1.27 -567.12,-4.2 -587.72,5.91zm-20 -293.17c-35,16.23 -59.23,95.7 47.34,96.03 92.93,0.24 578.17,4.85 601.67,-5.92 30.72,-14.08 59.42,-95.42 -47.94,-95.7 -94.16,-0.24 -576.89,-5.61 -601.07,5.59zm-134.64 1364.31c59.35,0.2 84.3,-48.17 117.15,-67.47 80.29,75.81 154.32,93.2 297.98,58.58 40.06,-9.68 116.12,-27.83 134.41,-54.87 31.26,-46.22 -10.49,-92.54 -75.92,-69.29 -82.78,29.41 -245.1,75.86 -284.19,-12.07 -0.03,-0.09 -26.51,-129.36 -95.42,-61.38 -34.81,34.37 -47.54,74.79 -87.51,98.27 -24.14,-39.39 7.62,-122.78 -70.53,-113.93 -80.45,9.09 -44.96,221.74 64.03,222.16zm-14.78 -1650.31c-28.82,16.81 -35.43,57.18 -11.18,80.53 25.72,24.78 300.93,13.11 344.86,13.11 67.57,0 436.43,9.84 467.76,-7.44 24.89,-13.75 34.47,-50.95 12.97,-75.86 -20.58,-23.85 -66.18,-17.44 -103.23,-17.34 -109.13,0.3 -686.23,-7.57 -711.18,7zm-175.38 1158.23c-36.88,13.67 -45.36,64.22 -11.37,87.12 29.8,20.09 373.13,9.85 422.8,9.85 71.98,0 533.27,7.17 562.79,-6.09 29.5,-13.25 37.81,-63.33 6.76,-84.78 -29.14,-20.14 -371.17,-10.2 -419.85,-10.2 -72.34,0 -533.28,-6.24 -561.13,4.1zm-109.24 -1357.03l1041.36 0c94.01,0 96.23,-101.07 0,-101.07l-1041.36 0c-96.45,0 -94.12,101.07 0,101.07zm-123.67 1166.3l1165.03 0c93.92,0 95.61,-101.05 0,-101.05 -390.51,0 -781.03,0 -1171.52,0 -89.64,0 -93.84,101.05 6.49,101.05zm-134.97 -1552.22c-56.17,17.13 -51.56,91.8 11.75,97.55 70.17,6.32 814.29,0.24 943.3,0.24 63.5,0 340.98,8.08 380.57,-2.63 45.06,-12.19 52.11,-91.85 -16.87,-97.8l-565.46 -0.19c-103.53,0 -706.18,-11.56 -753.29,2.83zm-865.25 1964.97c-11.27,-122.31 5.06,-130.53 121.58,-130.29l507.68 0c113.5,-0.37 125.9,12.88 115.09,130.8l-744.35 -0.51zm291.37 -232.68c0,-353.61 -90.3,-255.19 -139.71,-420.07 -47.84,-159.71 76.29,-307.12 223.75,-307.2 149.63,-0.08 276.1,149.01 220.74,310.63 -26.72,78.12 -72.54,101.03 -106.09,173.71 -38.19,82.65 -32.03,145.1 -32.03,243.2l-166.66 -0.27zm932.47 -777.12l44.8 128.41 -129.52 -48.22 84.72 -80.19zm-526.07 1591.57c352.49,0 704.96,0 1057.45,0 171.92,0 357.19,6.63 527.44,-0.4 148.43,-6.11 248.22,-115.22 250.45,-266.56 5.2,-349.94 0,-704.25 0,-1054.7 0,-96.15 -5.17,-975.07 1.63,-1046.7 114.28,5.87 199.37,3.65 247.79,84.52 44.14,73.68 13.64,206.43 5.3,297.22 -18.56,201.89 -36.85,404.29 -55.36,606.32 -37,403.93 -74.73,808.12 -110.71,1211.83 -8.91,99.96 -15.57,205 -27.79,304.22 -11.66,94.65 -77.59,149.65 -184.53,141.15 -396.45,-31.4 -814.32,-76.41 -1214.15,-112.51 -102.54,-9.25 -203.69,-18.96 -305.9,-28.06 -105.65,-9.39 -176.61,-34.41 -191.62,-136.33zm525.42 -1778.94c-15.25,-14.64 -30.34,-24.15 -45.45,-39.12l-521.52 -526.35c-28.51,-28.94 -52.28,-53.01 -80.98,-81.76 -46.45,-46.54 -46.88,-29.71 -46.64,-119.07 0.21,-80.22 7.12,-176.72 120.1,-202.34 47.59,-10.81 552.31,-4.22 644.42,-4.22 309.27,0 664.59,-5.7 969.89,-0.06 99.24,1.85 160.85,61.15 164.09,160.78 6.85,210.21 0.05,433.01 0.05,644.61l0 1620.61c0.14,110.24 -17.96,187.7 -113.29,213.7 -74.76,20.39 -523.49,6.33 -636.75,6.33l-976.55 0.08c-100.14,-0.65 -165.1,-45.16 -175.42,-141.58 73.75,0 147.49,0 221.27,0 50.16,0 168.71,13.31 195.39,-19.73 20.5,-25.4 10.83,-164.74 11,-208.52 0.49,-117.3 -7.55,-91.4 -105.55,-107.34 -2.94,-90.91 0.7,-149.68 -62.48,-197.81 -60.41,-46.03 -142.64,-26.36 -225.8,-33.91 0,-95.89 -2.82,-171.95 45.36,-239.05 43.27,-60.27 76.63,-89.25 97.62,-181.51 39.69,-174.4 -71.32,-326.99 -178.3,-370.19l0.06 -330.34c30.73,15.05 134.69,129.01 167.23,161.86 55.5,56.11 106.85,107.06 162.09,163.35 206.96,210.92 106.47,145.7 401.36,249.49 225.92,79.52 159.27,-4.08 41.41,-327.75 -13.68,-37.64 -10.97,-29.41 -34.46,-50.41 -17.44,-15.58 -23.82,-26 -38.15,-39.75zm-997.48 -851.87c29.02,16.44 413.36,412.28 472.76,471.92l467.6 472.76c-18.29,32.97 -88.69,95.86 -118.29,123.21 -35.19,-18.49 -198.16,-194.16 -240.24,-236.42l-703.21 -707.71 121.38 -123.76zm-241.45 0.96c10.14,-46.55 38.51,-75.67 68.07,-95.42 64.03,-42.82 60.61,-17.81 100.49,18.01 -13.3,20.44 -98.88,113.01 -124.26,126.72l-44.3 -49.31zm-30.48 114.98c-9.77,30.58 -61.73,80.41 -31.93,169.4 19.11,57.03 53.6,93.8 119.55,102.16 12.66,42.78 8.44,88.15 60.12,86.63 54.55,-1.64 48.52,-55.15 42.18,-104.99 -7.17,-56.35 -14.02,-71.07 -71.04,-78.91 -58.23,-7.97 -68.57,-36.95 -49.22,-94.95 35.8,18.29 203.78,206.24 259.59,256.03l116.66 111.05c34.28,33.68 23.02,52.36 23.02,128.5 -0.01,100 0,199.99 0,299.97 -207.52,-15.44 -357.62,113.91 -380.03,298.61 -13.64,112.67 29.41,195.76 80.67,258.76 72.95,89.67 67.06,129.87 67.06,266.36 -143.35,29.57 -282.59,-71.21 -293.34,233.35 -42.2,6.82 -81.73,-4.42 -96.14,33.82 -8.9,23.67 -4.31,102.03 -4.31,132.12 0,118.48 -29.82,170.48 97.12,169.71 87.15,-0.53 475.08,-10.98 529.63,3.61 17.21,150.35 91.9,178.27 170.34,226.53 20.43,272.93 270.02,252.82 465.16,270.56 226.87,20.61 451.94,41.14 679.4,62.54 219.76,20.66 463.08,53.12 680.56,62.63 121.18,5.31 203.28,-57.28 243.76,-128.88 43.14,-76.29 42.57,-222.78 51.81,-321.47l186.03 -2037.82c11.54,-132.86 0.64,-210.81 -76.23,-281.14 -82.03,-75.07 -160.55,-69.75 -292.27,-79.38 -21.84,-85.42 30.59,-156.59 -58.56,-285.76 -47.06,-68.2 -130.91,-97.25 -249.55,-97.06l-1379.79 0.02c-181.37,0 -397.09,-22.84 -417.37,274.67 -125.9,-95.99 -220.27,-283.5 -337.59,-274.37 -89.69,6.98 -320.96,195.52 -135.29,337.7z"/>
 </g>
</svg>
