<svg width="25" height="24" viewBox="0 0 25 24" fill="none" xmlns="http://www.w3.org/2000/svg">
<path d="M5.33343 11.0782V13.6266C5.33343 15.4879 5.33343 16.4185 5.57815 17.1717C6.07274 18.6939 7.26615 19.8873 8.78834 20.3819C9.54151 20.6266 10.4721 20.6266 12.3334 20.6266C14.1947 20.6266 15.1254 20.6266 15.8785 20.3819C17.4007 19.8873 18.5941 18.6939 19.0887 17.1717C19.3334 16.4185 19.3334 15.4879 19.3334 13.6266V11.0815M19.3334 11.0815C18.3762 11.4695 17.1936 11.8909 15.7863 12.3935L13.6789 13.1462C13.0129 13.384 12.68 13.5029 12.3335 13.5029C11.9871 13.5029 11.6541 13.384 10.9882 13.1462L8.88078 12.3935C4.48012 10.8218 2.27979 10.036 2.27979 8.62656C2.27979 7.21713 4.48012 6.43129 8.88078 4.8596L10.9882 4.10695C11.6541 3.8691 11.9871 3.75018 12.3335 3.75018C12.68 3.75018 13.0129 3.8691 13.6789 4.10695L15.7863 4.8596C20.187 6.43129 22.3873 7.21713 22.3873 8.62656C22.3873 9.58527 21.3696 10.2563 19.3334 11.0815Z" stroke="#FEFEFE" stroke-width="1.5"/>
<path d="M10.834 3.3655L8.56598 4.17557C6.41844 4.94254 4.73062 5.54533 3.58544 6.13771C2.47861 6.71026 1.52979 7.44621 1.52979 8.6265V15.6382C1.52979 16.0524 1.91922 16.3765 2.33343 16.3765C2.74764 16.3765 3.08343 16.0407 3.08343 15.6265V10.8352C2.79517 10.6603 2.52855 10.4694 2.3005 10.2566C1.83472 9.82192 1.52979 9.29561 1.52979 8.6265C1.52979 8.21229 1.91922 7.8765 2.33343 7.8765C2.40694 7.8765 2.47629 7.88708 2.54064 7.90679L2.3335 8L2.49014 8.62656H3.02985C3.02985 8.8557 3.18119 9.21739 4.27468 9.78304C5.31875 10.3231 6.90976 10.8932 9.13309 11.6872L11.2405 12.4399C11.9555 12.6952 12.1471 12.7529 12.3336 12.7529C12.5201 12.7529 12.7117 12.6952 13.4267 12.4399L15.6045 11.6621C16.9859 11.1687 18.1282 10.7608 19.0518 10.3864C20.0624 9.97681 20.7444 9.63381 21.1672 9.30919C21.5732 8.99748 21.6373 8.78597 21.6373 8.62656H23.1373C23.1373 7.44627 22.1885 6.71026 21.0816 6.13771C19.9364 5.54533 18.2486 4.94254 16.1011 4.17557L13.8331 3.36551C13.2633 3.16147 12.8127 3.00012 12.3335 3.00012C11.8543 3.00012 11.4037 3.16147 10.834 3.3655Z" fill="white"/>
<path d="M23.1341 8.74471C23.1033 9.29419 22.8586 9.74795 22.4971 10.1278C22.8627 9.74574 23.1038 9.29495 23.1341 8.74471Z" fill="white"/>
</svg>
