<?xml version="1.0" encoding="UTF-8"?>
<!DOCTYPE svg PUBLIC "-//W3C//DTD SVG 1.1//EN" "http://www.w3.org/Graphics/SVG/1.1/DTD/svg11.dtd">
<!-- Creator: CorelDRAW -->
<svg xmlns="http://www.w3.org/2000/svg" xml:space="preserve" width="35mm" height="35mm" version="1.1" style="shape-rendering:geometricPrecision; text-rendering:geometricPrecision; image-rendering:optimizeQuality; fill-rule:evenodd; clip-rule:evenodd"
viewBox="0 0 3500 3500"
 xmlns:xlink="http://www.w3.org/1999/xlink"
 xmlns:xodm="http://www.corel.com/coreldraw/odm/2003">
 <defs>
  <style type="text/css">
   <![CDATA[
    .fil0 {fill:#88ADA6}
   ]]>
  </style>
 </defs>
 <g id="Слой_x0020_1">
  <metadata id="CorelCorpID_0Corel-Layer"/>
  <path class="fil0" d="M1803.21 2465.09l108.35 0.48c4.01,106.96 0.55,220.49 0.55,328.17 0,60.67 7.72,276.67 -3.3,319.78l-106.22 7.29 0.62 -655.72zm656.12 -1246.86l-0.52 -86.29c57.2,5.16 57.09,80.92 0.52,86.29zm-88.55 -261.12l0.53 86.29c-57.14,-5.29 -57.3,-81.15 -0.53,-86.29zm0.31 -88.32c-173.83,14.05 -174.84,248.44 -0.15,262.91l0.31 86.5c-15.42,-1.4 -24.96,-5.96 -32.32,-14.97 -26.64,-32.62 22.21,-28.23 -98.13,-27.98 0.39,76.96 55.92,125.13 130.14,131.27l0.7 42.92 86.72 0.39 0.65 -43.31c174.77,-14.44 173.81,-248.85 0.16,-262.9l-0.31 -86.49c15.43,1.37 24.98,5.94 32.32,14.96 26.54,32.63 -22.12,28.23 98.15,27.99 -0.52,-77.74 -57.34,-125.41 -130.16,-131.29l-0.7 -42.91 -86.31 -0.39 -1.07 43.3zm-1170.48 719.01l-0.65 -108.15c71.69,6.46 71.56,101.42 0.65,108.15zm-110.99 -327.29l0.67 108.15c-71.63,-6.62 -71.81,-101.71 -0.67,-108.15zm0.39 -110.71c-217.88,17.63 -219.15,311.41 -0.19,329.54l0.39 108.41c-19.33,-1.75 -31.29,-7.46 -40.51,-18.75 -33.39,-40.9 27.83,-35.37 -123.01,-35.07 0.5,96.45 70.11,156.84 163.13,164.55l0.89 53.79 108.68 0.48 0.83 -54.27c219.06,-18.12 217.86,-311.92 0.2,-329.54l-0.39 -108.4c19.33,1.72 31.3,7.45 40.5,18.75 33.28,40.9 -27.72,35.37 123.02,35.07 -0.65,-97.43 -71.86,-157.17 -163.13,-164.56l-0.88 -53.78 -108.18 -0.48 -1.35 54.26zm932.82 -21.49c-21.46,-220.18 151.93,-398.37 349.76,-415.1 218.07,-18.46 394.98,143.56 414.57,351.01 20.83,220.58 -153.12,395.63 -349.83,413.23 -225.79,20.18 -395.45,-153.8 -414.5,-349.14zm-109.32 5.48c25.25,260.81 240.92,473.17 530.1,453.3 257.69,-17.72 474.19,-247.26 453.26,-529.95 -18.94,-255.65 -248.76,-478.16 -528.6,-453.17 -279.64,24.99 -480.14,267.68 -454.76,529.82zm-326.88 1979.71c-13.5,-53.4 -3.27,-356.2 -3.27,-434.8 0,-141.68 -4.71,-291.61 0.54,-432.75l109.09 0.48 -1.66 875.53 -104.7 -8.46zm435.71 -429.27l108.88 0.47 -0.25 384 -109.26 25.25 0.63 -409.72zm-657.58 0l109.08 0.47 -1.43 410.55 -108.17 -27.49 0.52 -383.53zm-541.31 76.64c7.63,-24.28 619.41,-626.29 691.41,-698.49 39.64,-39.75 75.29,-75.21 114.98,-115.09 26.55,-26.67 90.7,-98.31 117.9,-113.32 26.56,14.55 432.27,427.63 465.81,461.04 49.1,48.89 451.72,444.43 458.49,465.86 -62.86,72.14 -313.63,236.77 -429.43,267.4 -11.14,-86.47 -1.94,-244.61 -1.84,-338.62 0.17,-152 -25.22,-108.33 -218.57,-115.58 -9.7,-258.21 39.04,-209.44 -219.14,-219.13 -5.04,-134.39 26.77,-218.58 -71.75,-218.58 -292.05,0 -257.47,-21.85 -257.47,186.24 0,82.64 2.53,169.34 -0.55,251.47 -197.33,7.41 -218.67,-37.99 -218.59,121.06 0.06,92.72 9.16,247.8 -1.83,333.14 -114.82,-31.57 -363.05,-191.5 -429.42,-267.4zm-663.09 -951.88l108.84 -1.45c33.4,411.68 166.31,733.24 445.96,1005.27 723.94,704.19 1929.99,491.47 2366.58,-421.5 90.88,-190.05 125.1,-348.4 144.53,-583.29l107.26 -0.35c2.92,219.5 -74.91,464.18 -152.39,628.09 -247.42,523.43 -794.74,905.68 -1433.4,905.68 -470.75,0 -866.67,-212.23 -1109.3,-451.9 -268.64,-265.37 -475.11,-668.98 -478.08,-1080.55zm2595.39 868.18c-23.61,-7.58 -390.32,-383 -438.34,-431.23 -52.75,-52.97 -419.36,-412.34 -433.06,-437.75l1230.03 -0.2c3.03,235.33 -100.22,512.21 -224.14,698.76 -34.07,51.29 -95.4,136.7 -134.49,170.42zm-2016.03 -0.04c-34.53,-29.76 -83.16,-97.08 -112.37,-138.09 -285.3,-400.63 -323.23,-920.04 -123.08,-1360.56 109.5,-241.03 273.08,-413.1 450.13,-542.06 178.46,-129.99 469.19,-249.7 736.91,-251.53 6.05,52.93 1.66,1113.4 1.66,1220.04 0,127.04 14.26,112.06 -38.26,164.46l-506.74 506.77c-68.62,69.08 -133.59,134.18 -202.77,202.65 -27.98,27.7 -182.75,191.29 -205.48,198.32zm1064.15 -2511.66c445.14,2.49 844.24,241.95 1067.19,464.05 259.17,258.15 461.18,668.66 464.06,1068.54l-1532.62 -0.52 1.37 -1532.07zm-1533.41 1528.83c-36.47,11.68 -122.25,0.04 -166.33,4.05 -59.18,5.36 -55.67,56.94 -53.73,114.96 9.3,280.06 91.13,552.84 223.6,783.65 163.23,284.36 394.27,504.02 683.03,658.62 305.4,163.5 719.23,243.44 1115.85,163.98 374.21,-74.96 667.53,-256.46 875.4,-466.16 518.54,-523.15 653.01,-1332.11 300.1,-1995.07 -288.3,-541.57 -835.95,-882.85 -1445.69,-902.95 -60.19,-2 -106.26,-4.6 -109.76,59.16 -2.24,40.99 6.91,127.67 -3.73,161.05 -227.45,17.8 -394.41,54.4 -572.02,140.19 -172.42,83.29 -305.29,183.36 -414.62,291.89 -107.81,106.98 -211.84,246.98 -293.67,418.33 -85.92,179.89 -120.33,340.93 -138.43,568.3z"/>
 </g>
</svg>
