<svg width="33" height="35" viewBox="0 0 33 35" fill="none" xmlns="http://www.w3.org/2000/svg">
<path fill-rule="evenodd" clip-rule="evenodd" d="M0.560089 0.0102539V34.8092C6.70691 34.8092 12.854 34.8092 19.0008 34.8092C28.5186 33.5957 33.5668 24.2249 32.6023 15.7143C31.7454 8.15049 25.8127 1.3532 19.0008 0.223046L0.560089 0.0102539ZM14.7578 18.7946C10.6435 16.0144 9.81084 8.47477 16.6119 8.10573C22.3437 7.92724 23.5519 14.5369 19.0465 18.6419C18.7378 19.1645 18.8097 19.9545 19.1437 20.1748C20.8789 21.0244 22.6145 21.8737 24.3498 22.7233C25.301 23.241 25.1144 23.9381 24.2785 24.5993C22.3172 26.0387 19.4766 28.9328 18.3949 28.9173C14.734 28.9173 11.0731 28.9173 7.41216 28.9173C6.45312 28.0251 6.61404 25.0005 7.94703 23.7143C10.1578 21.3393 12.3518 21.1833 14.6781 20.2984C14.9257 20.0733 15.0394 18.9399 14.7578 18.7946Z" fill="#FEFEFE"/>
</svg>
