<svg width="25" height="24" viewBox="0 0 25 24" fill="none" xmlns="http://www.w3.org/2000/svg">
<path fill-rule="evenodd" clip-rule="evenodd" d="M3.6665 11C3.6665 7.25027 3.6665 5.3754 4.62142 4.06107C4.92982 3.6366 5.3031 3.26331 5.72758 2.95491C7.04191 2 8.91677 2 12.6665 2C16.4162 2 18.2911 2 19.6054 2.95491C20.0299 3.26331 20.4032 3.6366 20.7116 4.06107C21.6665 5.3754 21.6665 7.25027 21.6665 11V13C21.6665 13.8389 21.6665 14.584 21.6558 15.25L21.5857 15.25C20.7337 15.2499 20.2147 15.2499 19.767 15.3208C17.3066 15.7105 15.377 17.6401 14.9873 20.1005C14.9164 20.5482 14.9164 21.0672 14.9165 21.9192L14.9165 21.9893C14.2505 22 13.5054 22 12.6665 22C8.91677 22 7.04191 22 5.72758 21.0451C5.3031 20.7367 4.92982 20.3634 4.62142 19.9389C3.6665 18.6246 3.6665 16.7497 3.6665 13V11ZM8.6665 7.25C8.25229 7.25 7.9165 7.58579 7.9165 8C7.9165 8.41421 8.25229 8.75 8.6665 8.75H11.6665C12.0807 8.75 12.4165 8.41421 12.4165 8C12.4165 7.58579 12.0807 7.25 11.6665 7.25H8.6665ZM8.6665 11.25C8.25229 11.25 7.9165 11.5858 7.9165 12C7.9165 12.4142 8.25229 12.75 8.6665 12.75H16.6665C17.0807 12.75 17.4165 12.4142 17.4165 12C17.4165 11.5858 17.0807 11.25 16.6665 11.25H8.6665ZM8.6665 15.25C8.25229 15.25 7.9165 15.5858 7.9165 16C7.9165 16.4142 8.25229 16.75 8.6665 16.75H11.6665C12.0807 16.75 12.4165 16.4142 12.4165 16C12.4165 15.5858 12.0807 15.25 11.6665 15.25H8.6665Z" fill="white"/>
<path d="M20.0017 16.8023C20.31 16.7535 20.6908 16.7501 21.6012 16.75C21.5068 18.1896 21.2759 19.1622 20.7116 19.9389C20.4032 20.3634 20.0299 20.7367 19.6054 21.0451C18.8287 21.6094 17.8561 21.8403 16.4165 21.9347C16.4166 21.0243 16.42 20.6435 16.4688 20.3352C16.7569 18.5166 18.1831 17.0904 20.0017 16.8023Z" fill="white"/>
</svg>
