<svg width="22" height="22" viewBox="0 0 22 22" fill="none" xmlns="http://www.w3.org/2000/svg">
<path d="M10.2149 1.57153C10.0066 1.57153 9.80671 1.65431 9.65936 1.80166C9.51201 1.94901 9.42923 2.14886 9.42923 2.35725C9.42923 2.56563 9.51201 2.76548 9.65936 2.91283C9.80671 3.06018 10.0066 3.14296 10.2149 3.14296H14.1427V5.10725C14.1427 5.75782 13.8944 6.22061 13.5142 6.53489C13.1166 6.86253 12.5202 7.07153 11.7856 7.07153C11.5772 7.07153 11.3774 7.15431 11.23 7.30166C11.0827 7.44901 10.9999 7.64886 10.9999 7.85725C10.9999 8.06563 11.0827 8.26548 11.23 8.41283C11.3774 8.56018 11.5772 8.64296 11.7856 8.64296C12.8031 8.64296 13.7789 8.35461 14.5152 7.74646C15.2663 7.12418 15.7142 6.21196 15.7142 5.10725V2.35725C15.7142 2.14886 15.6314 1.94901 15.484 1.80166C15.3367 1.65431 15.1368 1.57153 14.9284 1.57153H10.2149ZM8.58616 5.98332C8.52696 5.83921 8.42626 5.71595 8.29685 5.62921C8.16744 5.54247 8.01516 5.49615 7.85937 5.49615C7.70358 5.49615 7.5513 5.54247 7.42189 5.62921C7.29248 5.71595 7.19178 5.83921 7.13259 5.98332L1.63101 19.3436C1.55162 19.5364 1.55205 19.7528 1.63221 19.9452C1.71237 20.1376 1.86569 20.2904 2.05844 20.3697C2.2512 20.4491 2.4676 20.4487 2.66004 20.3686C2.85248 20.2884 3.00519 20.1351 3.08459 19.9423L4.50437 16.493H11.2144L12.6342 19.9423C12.6735 20.0378 12.7312 20.1245 12.804 20.1977C12.8769 20.2708 12.9634 20.3289 13.0587 20.3686C13.154 20.4082 13.2562 20.4288 13.3594 20.429C13.4626 20.4292 13.5649 20.4091 13.6603 20.3697C13.7557 20.3304 13.8425 20.2727 13.9156 20.1999C13.9888 20.127 14.0468 20.0405 14.0865 19.9452C14.1262 19.8499 14.1468 19.7477 14.147 19.6445C14.1472 19.5413 14.127 19.439 14.0877 19.3436L12.5477 15.6036C12.5299 15.4691 12.4774 15.3416 12.3953 15.2335L8.58616 5.98332ZM10.5669 14.9224H5.15101L7.85937 8.34596L10.5669 14.9224ZM17.2856 1.57153C17.494 1.57153 17.6938 1.65431 17.8412 1.80166C17.9885 1.94901 18.0713 2.14886 18.0713 2.35725V6.28582H19.6427C19.8511 6.28582 20.051 6.3686 20.1983 6.51595C20.3457 6.6633 20.4284 6.86315 20.4284 7.07153C20.4284 7.27992 20.3457 7.47977 20.1983 7.62712C20.051 7.77447 19.8511 7.85725 19.6427 7.85725H18.0713V14.9287C18.0713 15.1371 17.9885 15.3369 17.8412 15.4843C17.6938 15.6316 17.494 15.7144 17.2856 15.7144C17.0772 15.7144 16.8774 15.6316 16.73 15.4843C16.5827 15.3369 16.4999 15.1371 16.4999 14.9287V2.35725C16.4999 2.14886 16.5827 1.94901 16.73 1.80166C16.8774 1.65431 17.0772 1.57153 17.2856 1.57153Z" fill="#95969D"/>
</svg>
