<svg width="16" height="16" viewBox="0 0 16 16" fill="none" xmlns="http://www.w3.org/2000/svg">
<path d="M4.88889 1L11.1111 15M1 11.8889L8 8M4.73333 15H11.2667C12.5735 15 13.2269 15 13.726 14.7457C14.165 14.522 14.522 14.165 14.7457 13.726C15 13.2269 15 12.5735 15 11.2667V4.73333C15 3.42654 15 2.77315 14.7457 2.27402C14.522 1.83498 14.165 1.47802 13.726 1.25432C13.2269 1 12.5735 1 11.2667 1H4.73333C3.42654 1 2.77315 1 2.27402 1.25432C1.83498 1.47802 1.47802 1.83498 1.25432 2.27402C1 2.77315 1 3.42654 1 4.73333V11.2667C1 12.5735 1 13.2269 1.25432 13.726C1.47802 14.165 1.83498 14.522 2.27402 14.7457C2.77315 15 3.42654 15 4.73333 15Z" stroke="#246256" stroke-linecap="round" stroke-linejoin="round"/>
</svg>
