<?xml version="1.0" encoding="UTF-8"?>
<!DOCTYPE svg PUBLIC "-//W3C//DTD SVG 1.1//EN" "http://www.w3.org/Graphics/SVG/1.1/DTD/svg11.dtd">
<!-- Creator: CorelDRAW -->
<svg xmlns="http://www.w3.org/2000/svg" xml:space="preserve" width="35mm" height="35mm" version="1.1" style="shape-rendering:geometricPrecision; text-rendering:geometricPrecision; image-rendering:optimizeQuality; fill-rule:evenodd; clip-rule:evenodd"
viewBox="0 0 3500 3500"
 xmlns:xlink="http://www.w3.org/1999/xlink"
 xmlns:xodm="http://www.corel.com/coreldraw/odm/2003">
 <defs>
  <style type="text/css">
   <![CDATA[
    .fil0 {fill:url(#id0)}
   ]]>
  </style>
  <linearGradient id="id0" gradientUnits="userSpaceOnUse" x1="2506.32" y1="1806.83" x2="2303.94" y2="1038.26">
   <stop offset="0" style="stop-opacity:1; stop-color:#2C665A"/>
   <stop offset="1" style="stop-opacity:1; stop-color:#019985"/>
  </linearGradient>
 </defs>
 <g id="Слой_x0020_1">
  <metadata id="CorelCorpID_0Corel-Layer"/>
  <path class="fil0" d="M1183.35 925.26l1128.1 0c455.02,0 827.31,372.29 827.31,827.31l0 0.05c0,455.03 -372.29,827.32 -827.31,827.32l-1128.1 0c-455.03,0 -827.32,-372.29 -827.32,-827.32l0 -0.05c0,-455.02 372.29,-827.31 827.32,-827.31zm1172.96 631.11c114.89,0 208.04,93.15 208.04,208.04 0,114.9 -93.15,208.05 -208.04,208.05 -114.89,0 -208.04,-93.15 -208.04,-208.05 0,-114.89 93.15,-208.04 208.04,-208.04zm-608.91 0c114.89,0 208.04,93.15 208.04,208.04 0,114.9 -93.15,208.05 -208.04,208.05 -114.89,0 -208.04,-93.15 -208.04,-208.05 0,-114.89 93.15,-208.04 208.04,-208.04zm-666.13 0c114.89,0 208.04,93.15 208.04,208.04 0,114.9 -93.15,208.05 -208.04,208.05 -114.89,0 -208.04,-93.15 -208.04,-208.05 0,-114.89 93.15,-208.04 208.04,-208.04z"/>
 </g>
</svg>
