<?xml version="1.0" encoding="UTF-8"?>
<!DOCTYPE svg PUBLIC "-//W3C//DTD SVG 1.1//EN" "http://www.w3.org/Graphics/SVG/1.1/DTD/svg11.dtd">
<!-- Creator: CorelDRAW -->
<svg xmlns="http://www.w3.org/2000/svg" xml:space="preserve" width="35mm" height="35mm" version="1.1" style="shape-rendering:geometricPrecision; text-rendering:geometricPrecision; image-rendering:optimizeQuality; fill-rule:evenodd; clip-rule:evenodd"
viewBox="0 0 3500 3500"
 xmlns:xlink="http://www.w3.org/1999/xlink"
 xmlns:xodm="http://www.corel.com/coreldraw/odm/2003">
 <defs>
  <style type="text/css">
   <![CDATA[
    .fil0 {fill:url(#id0)}
   ]]>
  </style>
  <linearGradient id="id0" gradientUnits="userSpaceOnUse" x1="2225.65" y1="2526.32" x2="2064.61" y2="1051.15">
   <stop offset="0" style="stop-opacity:1; stop-color:#2C665A"/>
   <stop offset="1" style="stop-opacity:1; stop-color:#019985"/>
  </linearGradient>
 </defs>
 <g id="Слой_x0020_1">
  <metadata id="CorelCorpID_0Corel-Layer"/>
  <path class="fil0" d="M1810.38 834.22l-377.19 0c-507.29,0 -918.52,411.19 -918.52,918.48 0,507.29 411.23,918.47 918.52,918.47l377.19 0c507.24,0 918.47,-411.18 918.47,-918.47 0,-507.29 -411.23,-918.48 -918.47,-918.48zm-503.92 1138.92c-121.79,0 -220.55,-98.76 -220.55,-220.54 0,-121.84 98.76,-220.55 220.55,-220.55 121.83,0 220.54,98.71 220.54,220.55 0,121.78 -98.71,220.54 -220.54,220.54zm661.48 0c-121.78,0 -220.54,-98.76 -220.54,-220.54 0,-121.84 98.76,-220.55 220.54,-220.55 121.84,0 220.55,98.71 220.55,220.55 0,121.78 -98.71,220.54 -220.55,220.54z"/>
 </g>
</svg>
