<?xml version="1.0" encoding="UTF-8"?>
<!DOCTYPE svg PUBLIC "-//W3C//DTD SVG 1.1//EN" "http://www.w3.org/Graphics/SVG/1.1/DTD/svg11.dtd">
<!-- Creator: CorelDRAW -->
<svg xmlns="http://www.w3.org/2000/svg" xml:space="preserve" width="35mm" height="35mm" version="1.1" style="shape-rendering:geometricPrecision; text-rendering:geometricPrecision; image-rendering:optimizeQuality; fill-rule:evenodd; clip-rule:evenodd"
viewBox="0 0 3500 3500"
 xmlns:xlink="http://www.w3.org/1999/xlink"
 xmlns:xodm="http://www.corel.com/coreldraw/odm/2003">
 <defs>
  <style type="text/css">
   <![CDATA[
    .fil0 {fill:url(#id0)}
   ]]>
  </style>
  <linearGradient id="id0" gradientUnits="userSpaceOnUse" x1="2289.2" y1="2658.9" x2="2144.71" y2="930.72">
   <stop offset="0" style="stop-opacity:1; stop-color:#2C665A"/>
   <stop offset="1" style="stop-opacity:1; stop-color:#019985"/>
  </linearGradient>
 </defs>
 <g id="Слой_x0020_1">
  <metadata id="CorelCorpID_0Corel-Layer"/>
  <path class="fil0" d="M2739.02 2551.36l-117.7 -1047.81c-14.13,-126.23 -120.86,-221.62 -247.85,-221.62l-150.16 0 0 -129.34c0,-262.55 -213.45,-476 -476,-476 -262.51,0 -475.96,213.45 -475.96,476l0 129.34 -150.06 0c-126.99,0 -233.66,95.39 -247.85,221.62l-117.65 1047.81c-16.64,147.86 99.07,277.25 247.86,277.25l1487.52 0c148.78,0 264.49,-129.39 247.85,-277.25zm-1254.57 -1398.77c0,-144.9 118,-262.91 262.86,-262.91 144.9,0 262.91,118.01 262.91,262.91l0 129.34 -525.77 0 0 -129.34z"/>
 </g>
</svg>
