<svg width="18" height="18" viewBox="0 0 18 18" fill="none" xmlns="http://www.w3.org/2000/svg">
<path d="M9.75 17.0625H3.75C1.935 17.0625 0.9375 16.065 0.9375 14.25V8.25C0.9375 6.435 1.935 5.4375 3.75 5.4375H7.5C7.8075 5.4375 8.0625 5.6925 8.0625 6V14.25C8.0625 15.435 8.565 15.9375 9.75 15.9375C10.0575 15.9375 10.3125 16.1925 10.3125 16.5C10.3125 16.8075 10.0575 17.0625 9.75 17.0625ZM3.75 6.5625C2.565 6.5625 2.0625 7.065 2.0625 8.25V14.25C2.0625 15.435 2.565 15.9375 3.75 15.9375H7.34999C7.07999 15.495 6.9375 14.9325 6.9375 14.25V6.5625H3.75Z" fill="white"/>
<path d="M7.5 6.5625H3.75C3.4425 6.5625 3.1875 6.3075 3.1875 6V4.5C3.1875 3.36 4.11 2.4375 5.25 2.4375H7.58249C7.75499 2.4375 7.92001 2.51998 8.02501 2.65498C8.13001 2.79748 8.16749 2.9775 8.12249 3.1425C8.07749 3.3075 8.0625 3.495 8.0625 3.75V6C8.0625 6.3075 7.8075 6.5625 7.5 6.5625ZM4.3125 5.4375H6.9375V3.75C6.9375 3.6825 6.9375 3.6225 6.9375 3.5625H5.25C4.7325 3.5625 4.3125 3.9825 4.3125 4.5V5.4375Z" fill="white"/>
<path d="M10.5 10.3125C10.1925 10.3125 9.9375 10.0575 9.9375 9.75V6C9.9375 5.6925 10.1925 5.4375 10.5 5.4375C10.8075 5.4375 11.0625 5.6925 11.0625 6V9.75C11.0625 10.0575 10.8075 10.3125 10.5 10.3125Z" fill="white"/>
<path d="M13.5 10.3125C13.1925 10.3125 12.9375 10.0575 12.9375 9.75V6C12.9375 5.6925 13.1925 5.4375 13.5 5.4375C13.8075 5.4375 14.0625 5.6925 14.0625 6V9.75C14.0625 10.0575 13.8075 10.3125 13.5 10.3125Z" fill="white"/>
<path d="M13.5 17.0625H10.5C10.1925 17.0625 9.9375 16.8075 9.9375 16.5V13.5C9.9375 12.78 10.53 12.1875 11.25 12.1875H12.75C13.47 12.1875 14.0625 12.78 14.0625 13.5V16.5C14.0625 16.8075 13.8075 17.0625 13.5 17.0625ZM11.0625 15.9375H12.9375V13.5C12.9375 13.395 12.855 13.3125 12.75 13.3125H11.25C11.145 13.3125 11.0625 13.395 11.0625 13.5V15.9375Z" fill="white"/>
<path d="M4.5 13.3125C4.1925 13.3125 3.9375 13.0575 3.9375 12.75V9.75C3.9375 9.4425 4.1925 9.1875 4.5 9.1875C4.8075 9.1875 5.0625 9.4425 5.0625 9.75V12.75C5.0625 13.0575 4.8075 13.3125 4.5 13.3125Z" fill="white"/>
<path d="M14.25 17.0625H9.75C7.935 17.0625 6.9375 16.065 6.9375 14.25V3.75C6.9375 1.935 7.935 0.9375 9.75 0.9375H14.25C16.065 0.9375 17.0625 1.935 17.0625 3.75V14.25C17.0625 16.065 16.065 17.0625 14.25 17.0625ZM9.75 2.0625C8.565 2.0625 8.0625 2.565 8.0625 3.75V14.25C8.0625 15.435 8.565 15.9375 9.75 15.9375H14.25C15.435 15.9375 15.9375 15.435 15.9375 14.25V3.75C15.9375 2.565 15.435 2.0625 14.25 2.0625H9.75Z" fill="white"/>
</svg>
