<svg width="167" height="51" viewBox="0 0 167 51" fill="none" xmlns="http://www.w3.org/2000/svg">
<path d="M154.016 0.465332H114.284C107.54 0.465332 102.074 5.89134 102.074 12.5847V38.3454C102.074 45.0387 107.54 50.4647 114.284 50.4647H154.016C160.759 50.4647 166.225 45.0387 166.225 38.3454V12.5847C166.225 5.89134 160.759 0.465332 154.016 0.465332Z" fill="#2C675B"/>
<path d="M123.1 11.49H114.994V39.504H123.1V11.49Z" fill="#FEFEFE"/>
<path fill-rule="evenodd" clip-rule="evenodd" d="M127.562 11.5625V39.1261C132.431 39.1261 137.3 39.1261 142.169 39.1261C149.708 38.1649 153.706 30.7424 152.942 24.0013C152.263 18.0102 147.564 12.6262 142.169 11.731L127.562 11.5625ZM138.808 26.4412C135.549 24.2391 134.89 18.2671 140.277 17.9748C144.817 17.8334 145.774 23.0688 142.205 26.3202C141.96 26.7342 142.017 27.36 142.282 27.5345C143.656 28.2074 145.031 28.8801 146.406 29.553C147.159 29.9631 147.011 30.5153 146.349 31.0389C144.796 32.1791 142.546 34.4715 141.689 34.4592C138.789 34.4592 135.889 34.4592 132.99 34.4592C132.23 33.7525 132.357 31.3567 133.413 30.338C135.164 28.4568 136.902 28.3333 138.745 27.6323C138.941 27.454 139.031 26.5563 138.808 26.4412Z" fill="#FEFEFE"/>
<path fill-rule="evenodd" clip-rule="evenodd" d="M15.5565 10.9192C19.9366 10.9192 23.582 12.295 26.4927 15.0535C29.4104 17.8053 30.8657 21.2654 30.8657 25.4135C30.8657 29.5684 29.3965 33.0079 26.458 35.7251C23.5125 38.4492 19.8048 39.8112 15.3347 39.8112C11.0587 39.8112 7.50351 38.4492 4.65509 35.7251C1.80667 33.0079 0.385986 29.596 0.385986 25.4961C0.385986 21.286 1.82057 17.8053 4.68268 15.0535C7.55184 12.295 11.1766 10.9192 15.5565 10.9192ZM15.7089 14.7578C12.4655 14.7578 9.80423 15.7621 7.71822 17.7777C5.63222 19.7932 4.5858 22.366 4.5858 25.4961C4.5858 28.5365 5.63222 31.0611 7.72528 33.0767C9.81813 35.0923 12.4379 36.0965 15.5843 36.0965C18.7445 36.0965 21.385 35.0717 23.4988 33.0147C25.6124 30.9579 26.6659 28.3989 26.6659 25.3377C26.6659 22.3522 25.6124 19.8482 23.4988 17.812C21.385 15.7759 18.7862 14.7578 15.7089 14.7578ZM58.4002 11.3321H62.2674V39.4811H58.7676L39.8128 17.8053V39.4811H35.9873V11.3321H39.2861L58.4002 33.1937V11.3321ZM68.3315 11.3321H87.8544V14.9229H72.4064V23.5079H87.4387V27.0987H72.4064V35.8902H88.2287V39.4811H68.3315V11.3321Z" fill="#2C675B"/>
</svg>
