<svg width="18" height="22" viewBox="0 0 18 22" fill="none" xmlns="http://www.w3.org/2000/svg">
<rect x="0.5" y="0.5" width="16.3334" height="20.6667" rx="1.5" stroke="#95969D"/>
<g clip-path="url(#clip0_2619_4255)">
<path fill-rule="evenodd" clip-rule="evenodd" d="M9.66683 5.62516C9.66683 5.93458 9.54391 6.23133 9.32512 6.45012C9.10633 6.66891 8.80958 6.79183 8.50016 6.79183C8.19074 6.79183 7.894 6.66891 7.6752 6.45012C7.45641 6.23133 7.3335 5.93458 7.3335 5.62516C7.3335 5.31574 7.45641 5.019 7.6752 4.8002C7.894 4.58141 8.19074 4.4585 8.50016 4.4585C8.80958 4.4585 9.10633 4.58141 9.32512 4.8002C9.54391 5.019 9.66683 5.31574 9.66683 5.62516ZM9.0835 5.62516C9.0835 5.77987 9.02204 5.92825 8.91264 6.03764C8.80325 6.14704 8.65487 6.2085 8.50016 6.2085C8.34545 6.2085 8.19708 6.14704 8.08768 6.03764C7.97829 5.92825 7.91683 5.77987 7.91683 5.62516C7.91683 5.47045 7.97829 5.32208 8.08768 5.21268C8.19708 5.10329 8.34545 5.04183 8.50016 5.04183C8.65487 5.04183 8.80325 5.10329 8.91264 5.21268C9.02204 5.32208 9.0835 5.47045 9.0835 5.62516Z" fill="#95969D"/>
<path d="M6.43206 8.03466C6.67549 7.73073 6.9826 7.48348 7.33207 7.31053C7.70109 7.1279 8.10734 7.03306 8.51908 7.03341L8.51904 7.08341L8.51899 7.03341C8.92541 7.03303 9.32655 7.12542 9.69185 7.30353C10.0375 7.47208 10.3425 7.71319 10.5861 8.01014C10.8129 7.69672 10.9664 7.33597 11.0347 6.9546C11.1068 6.55215 11.0821 6.13831 10.9625 5.74732C10.8429 5.35634 10.632 4.99945 10.3471 4.70618C10.0622 4.41291 9.71155 4.1917 9.32419 4.06085C8.93683 3.93 8.52389 3.89326 8.11951 3.95369C7.71514 4.01412 7.33097 4.16997 6.99879 4.40834C6.66661 4.64672 6.39597 4.96077 6.20926 5.32451C6.02255 5.68825 5.92513 6.09122 5.92508 6.50008L6.43206 8.03466ZM6.43206 8.03466C6.11364 7.60602 5.92508 7.07506 5.92508 6.50009L6.43206 8.03466ZM8.50015 9.07508L8.50001 9.07508C7.92461 9.07595 7.36611 8.88327 6.91402 8.5288C7.09415 8.28344 7.32832 8.08251 7.59865 7.94171C7.88284 7.7937 8.19858 7.71652 8.519 7.71675H8.51908C8.83551 7.71649 9.14743 7.79174 9.42894 7.93623C9.69655 8.07359 9.92933 8.26975 10.11 8.50977C9.65399 8.87612 9.08601 9.0759 8.50015 9.07508ZM8.51904 7.66675C8.84342 7.66649 9.16318 7.74362 9.45177 7.89175C9.74036 8.03987 9.98944 8.25471 10.1783 8.51841C9.70738 8.9112 9.11333 9.12594 8.50008 9.12508L8.51904 7.66675ZM8.50008 3.24175C6.70059 3.24175 5.24175 4.70059 5.24175 6.50008C5.24175 8.29957 6.70059 9.75841 8.50008 9.75841C10.2996 9.75841 11.7584 8.29957 11.7584 6.50008C11.7584 4.70059 10.2996 3.24175 8.50008 3.24175Z" fill="#95969D" stroke="#95969D" stroke-width="0.1"/>
</g>
<rect x="4.33301" y="12.9167" width="8.6667" height="1.08334" rx="0.541669" fill="#95969D"/>
<rect x="4.33301" y="15.6833" width="8.6667" height="1.08334" rx="0.541669" fill="#95969D"/>
<defs>
<clipPath id="clip0_2619_4255">
<rect width="7" height="7" fill="white" transform="translate(5 3)"/>
</clipPath>
</defs>
</svg>
