<?xml version="1.0" encoding="UTF-8"?>
<!DOCTYPE svg PUBLIC "-//W3C//DTD SVG 1.1//EN" "http://www.w3.org/Graphics/SVG/1.1/DTD/svg11.dtd">
<!-- Creator: CorelDRAW -->
<svg xmlns="http://www.w3.org/2000/svg" xml:space="preserve" width="35mm" height="35mm" version="1.1" style="shape-rendering:geometricPrecision; text-rendering:geometricPrecision; image-rendering:optimizeQuality; fill-rule:evenodd; clip-rule:evenodd"
viewBox="0 0 3500 3500"
 xmlns:xlink="http://www.w3.org/1999/xlink"
 xmlns:xodm="http://www.corel.com/coreldraw/odm/2003">
 <defs>
  <style type="text/css">
   <![CDATA[
    .fil0 {fill:url(#id0)}
   ]]>
  </style>
  <linearGradient id="id0" gradientUnits="userSpaceOnUse" x1="2479.34" y1="3099.29" x2="2284.15" y2="531.38">
   <stop offset="0" style="stop-opacity:1; stop-color:#2C665A"/>
   <stop offset="1" style="stop-opacity:1; stop-color:#019985"/>
  </linearGradient>
 </defs>
 <g id="Слой_x0020_1">
  <metadata id="CorelCorpID_0Corel-Layer"/>
  <path class="fil0" d="M1384.03 264.98l1064.98 1.78 -1.78 313.19 -56.72 5.27 -950.88 1.94 -55.19 -11.8 -0.41 -310.38zm1124.96 2391.28l91.13 0 0 -91.13 -91.13 0 0 91.13zm-516.18 -111.37l91.08 0 0 -91.09 -91.08 0 0 91.09zm404.9 0l91.06 0 0 -91.09 -91.06 0 0 91.09zm0 -404.85l91.06 0 0 -91.09 -91.06 0 0 91.09zm-404.9 0l91.08 0 0 -91.09 -91.08 0 0 91.09zm288.49 501.02c0,11.65 3.5,15.2 15.15,15.2l80.99 0 0 -91.13 -96.14 0 0 75.93zm227.69 -207.48l91.13 0 0 -80.98c0,-11.68 -3.55,-15.19 -15.21,-15.19l-75.92 0 0 96.17zm-227.69 -80.98c0,99.6 -19.86,80.98 96.14,80.98 0,-116 18.61,-96.17 -80.99,-96.17 -11.65,0 -15.15,3.51 -15.15,15.19zm-349.24 -364.4l217.64 0 0 217.62 -217.64 0 0 -217.62zm-70.82 -40.45l0 288.43c0,24.49 16,40.51 40.48,40.51l278.32 0c23.65,0 35.45,-11.8 35.45,-35.42l0 -298.59c0,-11.79 -13.51,-25.3 -25.33,-25.3l-293.5 0c-24.94,0 -35.42,20.75 -35.42,30.37zm70.82 440.27l217.64 0 0 217.62 -217.64 0 0 -217.62zm-70.82 -30.36l0 288.43c0,11.18 11.27,30.39 35.42,30.39l293.5 0c11.82,0 25.33,-13.5 25.33,-25.32l0 -298.56c0,-23.65 -11.8,-35.4 -35.45,-35.4l-278.32 0c-24.48,0 -40.48,15.97 -40.48,40.46zm470.63 -369.46l217.62 0 0 217.62 -217.62 0 0 -217.62zm-65.8 -45.52l0 298.59c0,23.62 11.82,35.42 35.44,35.42l278.34 0c24.49,0 40.49,-16.02 40.49,-40.51l0 -288.43c0,-11.16 -11.27,-30.37 -35.43,-30.37l-293.52 0c-11.82,0 -25.32,13.51 -25.32,25.3zm-29.45 -1466.1l103.31 -2.93 -1.32 -96.67 -101.63 -6.95 -0.36 106.55zm-742.36 0l102.24 0 -0.7 -106.29 -100.77 1.03 -0.77 105.26zm1164.19 441.69l2.49 -92.89 -262.23 1.78 0.6 89.26 259.14 1.85zm-5.54 430.73l-250.38 0.93 1.39 93.77 248.1 -0.36 0.89 -94.34zm-1406.39 -159.51l314.15 -0.43 181.04 0.07 67.03 0.29 -0.57 -106.2 -561.39 0.89 -0.26 105.38zm459.94 -712.91l420.94 -1.29 -1.15 -97.06 -419.55 -6.98 -0.24 105.33zm581.31 970.89l-1.58 -95.93 -1037.11 2.2 0.84 92.72 1037.85 1.01zm-370.39 271.86l741.07 -0.59 -2.35 -100.13 -731.79 -2.06 -6.93 102.78zm1.15 -529.84l740.35 -0.79 -1.63 -100.73 -738.48 -4.01 -0.24 105.53zm-678.49 -266.55l980.75 0 65.83 0.39 -0.22 -102.34 -61.85 0.51 -978.78 -0.1 -5.73 101.54zm-517.64 1784.89c190.23,0 182.97,8.27 181.84,-181.84l94.39 2.54c-0.91,121.21 -14.58,166.66 42.79,178.58l138.35 1.65 -1.91 91.95c-30.01,0.74 -58.98,-0.24 -88.6,0.07 -118.28,1.13 -88.66,47.51 -91.71,180.83l-92.23 1.18 -4.15 -147.57c-13.98,-47.94 -102.89,-33.93 -177.02,-33.36l-1.75 -94.03zm98.35 -238.87l-3.54 152.72 -149.46 2.66c-67.78,42.62 -22.02,248.87 -21.8,249.16 40.24,26.83 106.38,13.69 171.73,18.3 -0.71,54.87 -5.85,119.84 8.57,162 23.79,32.64 220.37,15.64 255.82,7.79l3.62 -170.63 172.56 -9.81c8.94,-36.55 9.25,-84.06 9.37,-129.72 0.29,-143.95 13.89,-132.32 -179.34,-130.52 -4.48,-63.79 8.9,-149.86 -18.44,-171.38 -1.11,-0.86 -215.08,-41.63 -249.09,19.43zm1098.02 873.71c298.06,0 596.14,-0.12 894.2,0 181.83,0.12 271.86,28.18 271.96,-180.69l-0.36 -2204.86 -105.88 -0.41 -2.95 2280.1 -1057.21 0.29 0.24 105.57zm-235.58 -96.87c-217.26,56.22 -376.93,-215.79 -206.85,-382.02 6.48,6.5 6,3.24 20.51,21.49l186.34 360.53zm-117.01 -439.41c261.1,-34.94 379.24,215.92 219.3,382.86 -5.57,-5.27 -9.79,-8.13 -19.12,-19.9l-43.4 -71.57c-39.31,-71.54 -148.7,-245.2 -156.78,-291.39zm-1060.8 -822.81c-15.08,-53.99 -13.62,-212.51 -1.41,-268.9 146.36,-15.92 367.15,-3.12 521.57,-3.12 455.7,0 380.68,-32.52 380.77,138.26 0.05,148.24 26.91,138.07 -123.1,137.18 -184.21,-1.03 -658.82,11.83 -777.83,-3.42zm82.34 98.68c15.03,-12.35 -24.01,-15.56 89.86,-14.36 139.55,1.37 568.36,-9.16 641.29,6.76l0.87 157.38c88.04,76.38 86.74,71.18 86.57,223.18 -0.16,97.44 7.65,228.02 0.48,321.15 -5.25,67.63 -83.58,90.99 -90.75,232.29 -5.85,115.91 38.81,178.89 88.86,245.25l-906.95 -2.85 -0.27 -630.67 -90.41 0.19c0,142.36 0,284.72 0,427.15 0,378.06 -85.04,296.23 966.02,296.23 131.04,0 278.49,18.66 392.98,-31.82 197.81,-87.23 259.73,-376.24 51.13,-541.02 -115.62,-91.33 -193.78,-51.16 -324.13,-36.31l-3.78 -462.7c-101.62,-81.49 -87.56,-83.56 -85.48,-190.45l88.21 -61.54 -5.06 -340.33 -43.77 -49.79c-230.78,-24.22 -562.58,-5.13 -804.28,-5.23 -182.68,-0.12 -232.73,-22.78 -231.96,173.44 0.19,50.75 -5.3,145.7 3.02,190.98 14.8,80.89 58.78,50.1 88.93,105.35l-2.09 106.29 -90.12 82.43 6.21 243.26 82.95 0.91 1.63 -188.14c26.03,-153.21 407.47,-55.84 679.05,-88.4l0.6 -82.41 -587.22 -0.69 -2.39 -85.53zm680.6 -1816.22c32.95,34.75 18.66,111.9 15.08,164.49l-282.1 0.2c-45.12,-3.27 -35.45,62.33 -37.32,362.06 0,52.76 0.24,105.67 0.33,158.55 0.24,86.6 0.34,535.68 -0.88,622.04l102.5 9.04 -0.03 -631.08 0 -421.23 219.73 -2.54 3.03 72.69c33.69,120.25 164.25,88.25 287.11,88.25 129.99,0 860.24,24.42 927.44,-24 52.95,-38.09 37.94,-67.25 57.87,-136.2l199 0.19 6.53 2444.43 -742.05 0.48 0 101.71c132.31,-0.5 762.82,24.08 833.2,-19.09 29.38,-66.7 29.38,-2543.57 0,-2610.27 -63.19,-38.78 -221.91,-19.42 -302.03,-18.32l-5.04 -162.72 425.05 0.6 3.81 691.39 99.02 -1.15c19.96,-118.71 5.73,-468.02 6.21,-600.45 0.87,-241.51 -104.1,-196.04 -317.07,-196.04l-1538.96 0c-579.18,0 -479.54,-121.61 -476.15,800.04 0.26,76.98 -0.12,523.66 -1.63,615.92l103.14 7.03 0.05 -638.49 0.1 -673.17 414.06 -4.36z"/>
 </g>
</svg>
