<?xml version="1.0" encoding="UTF-8"?>
<!DOCTYPE svg PUBLIC "-//W3C//DTD SVG 1.1//EN" "http://www.w3.org/Graphics/SVG/1.1/DTD/svg11.dtd">
<!-- Creator: CorelDRAW -->
<svg xmlns="http://www.w3.org/2000/svg" xml:space="preserve" width="35mm" height="35mm" version="1.1" style="shape-rendering:geometricPrecision; text-rendering:geometricPrecision; image-rendering:optimizeQuality; fill-rule:evenodd; clip-rule:evenodd"
viewBox="0 0 3500 3500"
 xmlns:xlink="http://www.w3.org/1999/xlink"
 xmlns:xodm="http://www.corel.com/coreldraw/odm/2003">
 <defs>
  <style type="text/css">
   <![CDATA[
    .fil1 {fill:#2C675B}
    .fil0 {fill:#2C665A}
   ]]>
  </style>
 </defs>
 <g id="Слой_x0020_1">
  <metadata id="CorelCorpID_0Corel-Layer"/>
  <rect class="fil0" x="601.97" y="1089.91" width="118.43" height="1325.38"/>
  <rect class="fil0" x="819.5" y="1089.91" width="60.67" height="1325.38"/>
  <rect class="fil0" x="973.27" y="1089.91" width="132.71" height="1325.38"/>
  <rect class="fil0" x="1193.23" y="1089.91" width="60.39" height="1325.38"/>
  <rect class="fil0" x="1324.13" y="1089.91" width="34.6" height="1325.38"/>
  <rect class="fil0" x="1413.2" y="1089.91" width="34.6" height="1325.38"/>
  <rect class="fil0" x="1497.24" y="1089.91" width="132.71" height="1325.38"/>
  <rect class="fil0" x="1717.2" y="1089.91" width="60.39" height="1325.38"/>
  <rect class="fil0" x="1879.35" y="1089.91" width="34.6" height="1325.38"/>
  <rect class="fil0" x="2999.12" y="1089.91" width="132.71" height="1325.38"/>
  <rect class="fil0" x="2851.48" y="1089.91" width="60.39" height="1325.38"/>
  <rect class="fil0" x="2746.38" y="1089.91" width="34.6" height="1325.38"/>
  <rect class="fil0" x="2657.3" y="1089.91" width="34.6" height="1325.38"/>
  <rect class="fil0" x="2475.15" y="1089.91" width="132.71" height="1325.38"/>
  <rect class="fil0" x="2327.51" y="1089.91" width="60.39" height="1325.38"/>
  <rect class="fil0" x="2216.77" y="1089.91" width="34.6" height="1325.38"/>
  <rect class="fil0" x="1981.52" y="1089.91" width="168.43" height="1325.38"/>
  <rect class="fil1" x="603.81" y="2602.53" width="263.47" height="98.05" rx="49.05" ry="49.05"/>
  <rect class="fil1" x="979.93" y="2602.53" width="263.47" height="98.05" rx="49.05" ry="49.05"/>
  <rect class="fil1" x="1361.51" y="2602.53" width="263.47" height="98.05" rx="49.05" ry="49.05"/>
  <rect class="fil1" x="1748.34" y="2602.53" width="263.47" height="98.05" rx="49.05" ry="49.05"/>
  <rect class="fil1" x="2130.64" y="2602.53" width="263.47" height="98.05" rx="49.05" ry="49.05"/>
  <rect class="fil1" x="2497.16" y="2602.53" width="263.47" height="98.05" rx="49.05" ry="49.05"/>
  <rect class="fil1" x="2875.37" y="2602.53" width="263.47" height="98.05" rx="49.05" ry="49.05"/>
 </g>
</svg>
