<?xml version="1.0" encoding="UTF-8"?>
<!DOCTYPE svg PUBLIC "-//W3C//DTD SVG 1.1//EN" "http://www.w3.org/Graphics/SVG/1.1/DTD/svg11.dtd">
<!-- Creator: CorelDRAW -->
<svg xmlns="http://www.w3.org/2000/svg" xml:space="preserve" width="35mm" height="35mm" version="1.1" style="shape-rendering:geometricPrecision; text-rendering:geometricPrecision; image-rendering:optimizeQuality; fill-rule:evenodd; clip-rule:evenodd"
viewBox="0 0 3500 3500"
 xmlns:xlink="http://www.w3.org/1999/xlink"
 xmlns:xodm="http://www.corel.com/coreldraw/odm/2003">
 <defs>
  <style type="text/css">
   <![CDATA[
    .fil4 {fill:#2C675B}
    .fil6 {fill:#019985}
    .fil0 {fill:#F1F6FE}
    .fil5 {fill:url(#id0)}
    .fil2 {fill:url(#id1)}
    .fil3 {fill:url(#id2)}
    .fil1 {fill:url(#id3)}
   ]]>
  </style>
  <linearGradient id="id0" gradientUnits="userSpaceOnUse" x1="2209.45" y1="2418.01" x2="2095.7" y2="782.35">
   <stop offset="0" style="stop-opacity:1; stop-color:#2C665A"/>
   <stop offset="1" style="stop-opacity:1; stop-color:#019985"/>
  </linearGradient>
  <linearGradient id="id1" gradientUnits="userSpaceOnUse" xlink:href="#id0" x1="2333.63" y1="2754.51" x2="2189.57" y2="632.55">
  </linearGradient>
  <linearGradient id="id2" gradientUnits="userSpaceOnUse" xlink:href="#id0" x1="2154.05" y1="2224.32" x2="2057.79" y2="853.3">
  </linearGradient>
  <linearGradient id="id3" gradientUnits="userSpaceOnUse" xlink:href="#id0" x1="2455.39" y1="3140.23" x2="2279.06" y2="489.82">
  </linearGradient>
 </defs>
 <g id="Слой_x0020_1">
  <metadata id="CorelCorpID_0Corel-Layer"/>
  <g id="_2243579781744">
   <path class="fil0" d="M1079.58 2466.68l108.98 0 0.82 109.8 -109.83 0 0.03 -109.8zm1208.55 109.8l0 -109.8 164.56 0 0.25 -164.8 109.83 0c-0.04,319.51 44.86,274.6 -274.64,274.6zm109.71 -1098.62l55.02 0.01 -0.51 659.05c-5.02,42.68 -51.1,66.47 -77.84,86.51 -36.97,27.72 -157.31,128.15 -196.55,132.65l-816.87 0.66c-187.7,0 -227.48,26.4 -226.67,-102.89 0.96,-153.18 -12.83,-935.32 10.81,-971.17 21.53,-32.67 128.65,-130.14 164.11,-165.6 93.77,-93.78 100.77,-77.69 100.15,-147.09 -1.24,-139.36 -15.5,-254.99 101.63,-303.58 54.2,-22.48 238.04,-12.55 310.04,-12.55 312.33,0 302.1,39.77 302.1,352.31 70.18,26.95 162.98,79.74 233.21,114.83 120.7,60.3 96.39,39.24 96.39,246.93l-55.02 0.01 0 109.92zm-109.74 -933.87l199.14 0c54.76,0 75.49,20.73 75.49,75.5l0.04 199.1 -109.83 0 0 -164.8 -164.81 0 -0.03 -109.8zm-1263.45 274.6c0,-319.72 -45.14,-274.6 274.6,-274.6l0.89 109.8 -165.69 0 0 164.8 -109.8 0zm-164.89 1538.15l-0.24 82.78c1.15,14.37 -1.02,-1.11 1.51,12.47 3.09,16.56 2.08,10.35 5.15,15.95l104.51 -1.39 0 109.93 -104.51 -1.26 -6.42 111.2 54.95 0 0 164.8 1757.93 0 0.03 -2417.17 -1757.92 0 -0.04 1922.69 -54.95 0z"/>
   <path class="fil1" d="M640.08 2686.42l54.9 0c0,-599.69 0,-1529.05 0,-2128.73 0,-157.55 -23.56,-293.91 117.19,-336.36 56.81,-17.13 1553.9,-7.01 1784.93,-7.01 67.57,0 149.48,-10.57 207.55,19.11 44.28,22.62 80.6,65.32 86.71,132.04 11.88,129.91 1.05,317.06 1.05,453.15l-0.08 2237.35c0.5,120.82 -14.22,192.64 -112,225.91 -53.29,18.13 -892.02,8.82 -986.64,8.82 -98.97,0 -934.83,10.8 -991.82,-10.68 -93.48,-35.24 -107.31,-104.04 -106.82,-224.05l-0.47 -369.55 -54.5 0 -54.94 -0.04c0,114.45 0,228.89 0,343.34 0,141.82 -4.01,205.17 70.24,279.96 74.75,75.3 107.59,90.88 252.5,90.85l1737.29 0c140.84,0 195.61,0.51 269.63,-73.71 78.79,-79 87.45,-112.05 87.44,-262.76l0 -2080.63c0,-127.48 14.1,-604.52 -9.48,-684.07 -23.91,-80.65 -89.82,-148.96 -164.86,-178.47 -83.37,-32.79 -226.84,-16.41 -333.8,-16.41 -462.36,0 -924.72,0 -1387.08,0 -179.76,0 -429.58,-49.84 -509.15,184.4 -25.63,75.43 -12.73,561.83 -12.73,680.81 0,462.36 0,1254.4 0,1716.76l54.94 -0.03z"/>
   <path class="fil2" d="M859.76 2643.95l54.95 0 0.04 -2209.9 1757.92 0 -0.03 2417.17 -1757.93 0 0 -207.27 -54.95 0 -54.85 0c0,323.31 -43.09,317.07 281.51,317.07 231.78,0 1634.46,6.89 1663.02,-5.72 38.3,-16.91 33.24,-64.05 33.06,-110.97l-0.03 -2362.18c0.01,-130.9 22.42,-158.45 -116.69,-157.93l-1668.63 0.03c-110.05,0 -192.87,-31.75 -192.47,89l0.23 2230.71 54.85 -0.01z"/>
   <path class="fil3" d="M1458.57 1862.43l664.75 -0.09 0 384.6 -136.71 -0.05 -742.26 0.02 0 -384.54 214.22 0.06zm-214.34 -354.71l0.09 -139.79 880.69 0 -1.68 384.61 -751.87 0.12 -127.11 -0.18 -0.12 -244.76zm81.25 -249.94c55.65,-90.62 193.35,-144.48 193.8,-246.53 0.17,-39.63 -6.16,-188.35 5.39,-214.58 22.46,-51.02 127.39,-33.01 186.62,-33.01 73.32,0 146.8,-0.54 220.09,-0.29 156.87,0.53 33.76,168.02 102.51,336.96 20.39,50.09 45.44,106.28 61.86,157.78l-770.27 -0.33zm1072.36 220.08l-54.79 -0.01 0 634.48c-30.98,17.47 -78.13,55.02 -107.33,77.09 -7.98,-51.07 -2.92,-706.93 -2.55,-814.6 0.42,-121.3 -31.63,-122.83 -56.26,-218.41l165.76 79.75 0.38 131.79 54.79 -0.01 55.02 -0.01c0,-207.69 24.31,-186.63 -96.39,-246.93 -70.23,-35.09 -163.03,-87.88 -233.21,-114.83 0,-312.54 10.23,-352.31 -302.1,-352.31 -72,0 -255.84,-9.93 -310.04,12.55 -117.13,48.59 -102.87,164.22 -101.63,303.58 0.62,69.4 -6.38,53.31 -100.15,147.09 -35.46,35.46 -142.58,132.93 -164.11,165.6 -23.64,35.85 -9.85,817.99 -10.81,971.17 -0.81,129.29 38.97,102.89 226.67,102.89l816.87 -0.66c39.24,-4.5 159.58,-104.93 196.55,-132.65 26.74,-20.04 72.82,-43.83 77.84,-86.51l0.51 -659.05 -55.02 -0.01z"/>
   <polygon class="fil4" points="1519.05,3126.65 1519.06,3180.75 2068.36,3180.75 2068.33,3126.65 2068.36,3070.96 1519.05,3070.96 "/>
   <path class="fil5" d="M2288.13 2576.48c319.5,0 274.6,44.91 274.64,-274.6l-109.83 0 -0.25 164.8 -164.56 0 0 109.8zm0 -1922.69l164.81 0 0 164.8 109.83 0 -0.04 -199.1c0,-54.77 -20.73,-75.5 -75.49,-75.5l-199.14 0 0.03 109.8zm-1263.48 164.8l109.8 0 0 -164.8 165.69 0 -0.89 -109.8c-319.74,0 -274.6,-45.12 -274.6,274.6zm253.03 1757.89c-319.5,0 -274.6,44.91 -274.64,-274.6l109.84 0 0.25 164.8 164.55 0 0 109.8z"/>
   <polygon class="fil6" points="1628.92,983.4 1902.7,983.4 1903.53,873.59 1628.89,873.59 "/>
  </g>
 </g>
</svg>
