<?xml version="1.0" encoding="UTF-8"?>
<!DOCTYPE svg PUBLIC "-//W3C//DTD SVG 1.1//EN" "http://www.w3.org/Graphics/SVG/1.1/DTD/svg11.dtd">
<!-- Creator: CorelDRAW -->
<svg xmlns="http://www.w3.org/2000/svg" xml:space="preserve" width="221.756mm" height="33.005mm" version="1.1" style="shape-rendering:geometricPrecision; text-rendering:geometricPrecision; image-rendering:optimizeQuality; fill-rule:evenodd; clip-rule:evenodd"
viewBox="0 0 22175.64 3300.5"
 xmlns:xlink="http://www.w3.org/1999/xlink"
 xmlns:xodm="http://www.corel.com/coreldraw/odm/2003">
 <defs>
  <style type="text/css">
   <![CDATA[
    .fil11 {fill:#FEFEFE}
    .fil4 {fill:#2C675B}
    .fil6 {fill:#019985}
    .fil0 {fill:#F1F6FE}
    .fil14 {fill:url(#id0)}
    .fil10 {fill:url(#id1)}
    .fil3 {fill:url(#id2)}
    .fil2 {fill:url(#id3)}
    .fil5 {fill:url(#id4)}
    .fil20 {fill:url(#id5)}
    .fil23 {fill:url(#id6)}
    .fil13 {fill:url(#id7)}
    .fil15 {fill:url(#id8)}
    .fil27 {fill:url(#id9)}
    .fil25 {fill:url(#id10)}
    .fil16 {fill:url(#id11)}
    .fil7 {fill:url(#id12)}
    .fil19 {fill:url(#id13)}
    .fil28 {fill:url(#id14)}
    .fil12 {fill:url(#id15)}
    .fil21 {fill:url(#id16)}
    .fil1 {fill:url(#id17)}
    .fil26 {fill:url(#id18)}
    .fil24 {fill:url(#id19)}
    .fil8 {fill:url(#id20)}
    .fil9 {fill:url(#id21)}
    .fil17 {fill:url(#id22)}
    .fil18 {fill:url(#id23)}
    .fil22 {fill:url(#id24)}
   ]]>
  </style>
  <linearGradient id="id0" gradientUnits="userSpaceOnUse" x1="5843.96" y1="2657.07" x2="5699.9" y2="535.11">
   <stop offset="0" style="stop-opacity:1; stop-color:#2C665A"/>
   <stop offset="1" style="stop-opacity:1; stop-color:#019985"/>
  </linearGradient>
  <linearGradient id="id1" gradientUnits="userSpaceOnUse" xlink:href="#id0" x1="5723.01" y1="1712.57" x2="5666.51" y2="893.21">
  </linearGradient>
  <linearGradient id="id2" gradientUnits="userSpaceOnUse" xlink:href="#id0" x1="1569.56" y1="2126.88" x2="1473.3" y2="755.86">
  </linearGradient>
  <linearGradient id="id3" gradientUnits="userSpaceOnUse" xlink:href="#id0" x1="1749.14" y1="2657.07" x2="1605.08" y2="535.11">
  </linearGradient>
  <linearGradient id="id4" gradientUnits="userSpaceOnUse" xlink:href="#id0" x1="1624.96" y1="2320.57" x2="1511.21" y2="684.91">
  </linearGradient>
  <linearGradient id="id5" gradientUnits="userSpaceOnUse" xlink:href="#id0" x1="13485.58" y1="2143.13" x2="13405.7" y2="826.05">
  </linearGradient>
  <linearGradient id="id6" gradientUnits="userSpaceOnUse" xlink:href="#id0" x1="17437.66" y1="2320.57" x2="17323.92" y2="684.91">
  </linearGradient>
  <linearGradient id="id7" gradientUnits="userSpaceOnUse" xlink:href="#id0" x1="5965.73" y1="3042.79" x2="5789.39" y2="392.38">
  </linearGradient>
  <linearGradient id="id8" gradientUnits="userSpaceOnUse" xlink:href="#id0" x1="5719.78" y1="2320.57" x2="5606.04" y2="684.91">
  </linearGradient>
  <linearGradient id="id9" gradientUnits="userSpaceOnUse" xlink:href="#id0" x1="17340.15" y1="2084.2" x2="17249.94" y2="1087.26">
  </linearGradient>
  <linearGradient id="id10" gradientUnits="userSpaceOnUse" xlink:href="#id0" x1="21500.22" y1="2657.07" x2="21356.17" y2="535.11">
  </linearGradient>
  <linearGradient id="id11" gradientUnits="userSpaceOnUse" xlink:href="#id0" x1="9622.28" y1="2094.56" x2="9532.14" y2="975.29">
  </linearGradient>
  <linearGradient id="id12" gradientUnits="userSpaceOnUse" xlink:href="#id0" x1="9912.28" y1="3042.79" x2="9735.95" y2="392.38">
  </linearGradient>
  <linearGradient id="id13" gradientUnits="userSpaceOnUse" xlink:href="#id0" x1="13604.73" y1="2320.57" x2="13490.98" y2="684.91">
  </linearGradient>
  <linearGradient id="id14" gradientUnits="userSpaceOnUse" xlink:href="#id0" x1="21351.46" y1="1961.59" x2="21248.05" y2="1006.73">
  </linearGradient>
  <linearGradient id="id15" gradientUnits="userSpaceOnUse" xlink:href="#id0" x1="5349.8" y1="2139.78" x2="5297.64" y2="1310.67">
  </linearGradient>
  <linearGradient id="id16" gradientUnits="userSpaceOnUse" xlink:href="#id0" x1="17683.61" y1="3042.79" x2="17507.27" y2="392.38">
  </linearGradient>
  <linearGradient id="id17" gradientUnits="userSpaceOnUse" xlink:href="#id0" x1="1870.9" y1="3042.79" x2="1694.57" y2="392.38">
  </linearGradient>
  <linearGradient id="id18" gradientUnits="userSpaceOnUse" xlink:href="#id0" x1="21376.06" y1="2320.57" x2="21262.31" y2="684.91">
  </linearGradient>
  <linearGradient id="id19" gradientUnits="userSpaceOnUse" xlink:href="#id0" x1="21621.99" y1="3042.79" x2="21445.66" y2="392.38">
  </linearGradient>
  <linearGradient id="id20" gradientUnits="userSpaceOnUse" xlink:href="#id0" x1="9790.52" y1="2657.07" x2="9646.46" y2="535.11">
  </linearGradient>
  <linearGradient id="id21" gradientUnits="userSpaceOnUse" xlink:href="#id0" x1="9666.34" y1="2320.57" x2="9552.59" y2="684.91">
  </linearGradient>
  <linearGradient id="id22" gradientUnits="userSpaceOnUse" xlink:href="#id0" x1="13850.67" y1="3042.79" x2="13674.34" y2="392.38">
  </linearGradient>
  <linearGradient id="id23" gradientUnits="userSpaceOnUse" xlink:href="#id0" x1="13728.9" y1="2657.07" x2="13584.84" y2="535.11">
  </linearGradient>
  <linearGradient id="id24" gradientUnits="userSpaceOnUse" xlink:href="#id0" x1="17561.84" y1="2657.07" x2="17417.78" y2="535.11">
  </linearGradient>
 </defs>
 <g id="Слой_x0020_1">
  <metadata id="CorelCorpID_0Corel-Layer"/>
  <g id="_2243587636032">
   <path class="fil0" d="M495.09 2369.24l108.98 0 0.82 109.8 -109.83 0 0.03 -109.8zm1208.55 109.8l0 -109.8 164.56 0 0.25 -164.8 109.83 0c-0.04,319.51 44.86,274.6 -274.64,274.6zm109.71 -1098.62l55.02 0.01 -0.51 659.05c-5.02,42.68 -51.1,66.47 -77.84,86.51 -36.97,27.72 -157.31,128.15 -196.55,132.65l-816.87 0.66c-187.7,0 -227.48,26.4 -226.67,-102.89 0.96,-153.18 -12.83,-935.32 10.81,-971.17 21.53,-32.67 128.65,-130.14 164.11,-165.6 93.77,-93.78 100.77,-77.69 100.15,-147.09 -1.24,-139.36 -15.5,-254.99 101.63,-303.58 54.2,-22.48 238.04,-12.55 310.04,-12.55 312.33,0 302.1,39.77 302.1,352.31 70.18,26.95 162.98,79.74 233.21,114.83 120.7,60.3 96.39,39.24 96.39,246.93l-55.02 0.01 0 109.92zm-109.74 -933.87l199.14 0c54.76,0 75.49,20.73 75.49,75.5l0.04 199.1 -109.83 0 0 -164.8 -164.81 0 -0.03 -109.8zm-1263.45 274.6c0,-319.72 -45.14,-274.6 274.6,-274.6l0.89 109.8 -165.69 0 0 164.8 -109.8 0zm-164.89 1538.15l-0.24 82.78c1.15,14.37 -1.02,-1.11 1.51,12.47 3.09,16.56 2.08,10.35 5.15,15.95l104.51 -1.39 0 109.93 -104.51 -1.26 -6.42 111.2 54.95 0 0 164.8 1757.93 0 0.03 -2417.17 -1757.92 0 -0.04 1922.69 -54.95 0z"/>
   <path class="fil1" d="M55.59 2588.98l54.9 0c0,-599.69 0,-1529.05 0,-2128.73 0,-157.55 -23.56,-293.91 117.19,-336.36 56.81,-17.13 1553.9,-7.01 1784.93,-7.01 67.57,0 149.48,-10.57 207.55,19.11 44.28,22.62 80.6,65.32 86.71,132.04 11.88,129.91 1.05,317.06 1.05,453.15l-0.08 2237.35c0.5,120.82 -14.22,192.64 -112,225.91 -53.29,18.13 -892.02,8.82 -986.64,8.82 -98.97,0 -934.83,10.8 -991.82,-10.68 -93.48,-35.24 -107.31,-104.04 -106.82,-224.05l-0.47 -369.55 -54.5 0 -54.94 -0.04c0,114.45 0,228.89 0,343.34 0,141.82 -4.01,205.17 70.24,279.96 74.75,75.3 107.59,90.88 252.5,90.85l1737.29 0c140.84,0 195.61,0.51 269.63,-73.71 78.79,-79 87.45,-112.05 87.44,-262.76l0 -2080.63c0,-127.48 14.1,-604.52 -9.48,-684.07 -23.91,-80.65 -89.82,-148.96 -164.86,-178.47 -83.37,-32.79 -226.84,-16.41 -333.8,-16.41 -462.36,0 -924.72,0 -1387.08,0 -179.76,0 -429.58,-49.84 -509.15,184.4 -25.63,75.43 -12.73,561.83 -12.73,680.81 0,462.36 0,1254.4 0,1716.76l54.94 -0.03z"/>
   <path class="fil2" d="M275.27 2546.51l54.95 0 0.04 -2209.9 1757.92 0 -0.03 2417.17 -1757.93 0 0 -207.27 -54.95 0 -54.85 0c0,323.31 -43.09,317.07 281.51,317.07 231.78,0 1634.46,6.89 1663.02,-5.72 38.3,-16.91 33.24,-64.05 33.06,-110.97l-0.03 -2362.18c0.01,-130.9 22.42,-158.45 -116.69,-157.93l-1668.63 0.03c-110.05,0 -192.87,-31.75 -192.47,89l0.23 2230.71 54.85 -0.01z"/>
   <path class="fil3" d="M874.08 1764.99l664.75 -0.09 0 384.6 -136.71 -0.05 -742.26 0.02 0 -384.54 214.22 0.06zm-214.34 -354.71l0.09 -139.79 880.69 0 -1.68 384.61 -751.87 0.12 -127.11 -0.18 -0.12 -244.76zm81.25 -249.94c55.65,-90.62 193.35,-144.48 193.8,-246.53 0.17,-39.63 -6.16,-188.35 5.39,-214.58 22.46,-51.02 127.39,-33.01 186.62,-33.01 73.32,0 146.8,-0.54 220.09,-0.29 156.87,0.53 33.76,168.02 102.51,336.96 20.39,50.09 45.44,106.28 61.86,157.78l-770.27 -0.33zm1072.36 220.08l-54.79 -0.01 0 634.48c-30.98,17.47 -78.13,55.02 -107.33,77.09 -7.98,-51.07 -2.92,-706.93 -2.55,-814.6 0.42,-121.3 -31.63,-122.83 -56.26,-218.41l165.76 79.75 0.38 131.79 54.79 -0.01 55.02 -0.01c0,-207.69 24.31,-186.63 -96.39,-246.93 -70.23,-35.09 -163.03,-87.88 -233.21,-114.83 0,-312.54 10.23,-352.31 -302.1,-352.31 -72,0 -255.84,-9.93 -310.04,12.55 -117.13,48.59 -102.87,164.22 -101.63,303.58 0.62,69.4 -6.38,53.31 -100.15,147.09 -35.46,35.46 -142.58,132.93 -164.11,165.6 -23.64,35.85 -9.85,817.99 -10.81,971.17 -0.81,129.29 38.97,102.89 226.67,102.89l816.87 -0.66c39.24,-4.5 159.58,-104.93 196.55,-132.65 26.74,-20.04 72.82,-43.83 77.84,-86.51l0.51 -659.05 -55.02 -0.01z"/>
   <polygon class="fil4" points="934.56,3029.21 934.57,3083.31 1483.87,3083.31 1483.84,3029.21 1483.87,2973.52 934.56,2973.52 "/>
   <path class="fil5" d="M1703.64 2479.04c319.5,0 274.6,44.91 274.64,-274.6l-109.83 0 -0.25 164.8 -164.56 0 0 109.8zm0 -1922.69l164.81 0 0 164.8 109.83 0 -0.04 -199.1c0,-54.77 -20.73,-75.5 -75.49,-75.5l-199.14 0 0.03 109.8zm-1263.48 164.8l109.8 0 0 -164.8 165.69 0 -0.89 -109.8c-319.74,0 -274.6,-45.12 -274.6,274.6zm253.03 1757.89c-319.5,0 -274.6,44.91 -274.64,-274.6l109.84 0 0.25 164.8 164.55 0 0 109.8z"/>
   <polygon class="fil6" points="1044.43,885.96 1318.21,885.96 1319.04,776.15 1044.4,776.15 "/>
  </g>
  <path class="fil7" d="M8096.97 2588.98l54.9 0c0,-599.69 0,-1529.05 0,-2128.73 0,-157.55 -23.56,-293.91 117.19,-336.36 56.81,-17.13 1553.9,-7.01 1784.93,-7.01 67.57,0 149.48,-10.57 207.55,19.11 44.28,22.62 80.6,65.32 86.71,132.04 11.88,129.91 1.05,317.06 1.05,453.15l-0.07 2237.35c0.49,120.82 -14.23,192.64 -112.01,225.91 -53.28,18.13 -892.02,8.82 -986.64,8.82 -98.97,0 -934.83,10.8 -991.82,-10.68 -93.48,-35.24 -107.31,-104.04 -106.82,-224.05l-0.47 -369.55 -54.5 0 -54.94 -0.04c0,114.45 0,228.89 0,343.34 0,141.82 -4.01,205.17 70.24,279.96 74.75,75.3 107.59,90.88 252.5,90.85l1737.29 0c140.84,0 195.61,0.51 269.63,-73.71 78.79,-79 87.45,-112.05 87.44,-262.76l0 -2080.63c0,-127.48 14.1,-604.52 -9.48,-684.07 -23.91,-80.65 -89.82,-148.96 -164.86,-178.47 -83.37,-32.79 -226.84,-16.41 -333.8,-16.41 -462.36,0 -924.72,0 -1387.08,0 -179.76,0 -429.58,-49.84 -509.15,184.4 -25.63,75.43 -12.73,561.83 -12.73,680.81 0,462.36 0,1254.4 0,1716.76l54.94 -0.03z"/>
  <path class="fil8" d="M8316.65 2546.51l54.95 0 0.04 -2209.9 1757.92 0 -0.03 2417.17 -1757.93 0 0 -207.27 -54.95 0 -54.85 0c0,323.31 -43.09,317.07 281.51,317.07 231.78,0 1634.47,6.89 1663.02,-5.72 38.3,-16.91 33.24,-64.05 33.06,-110.97l-0.03 -2362.18c0.01,-130.9 22.42,-158.45 -116.68,-157.93l-1668.64 0.03c-110.05,0 -192.87,-31.75 -192.47,89l0.23 2230.71 54.85 -0.01z"/>
  <polygon class="fil4" points="8975.95,3029.21 8975.95,3083.31 9525.25,3083.31 9525.22,3029.21 9525.25,2973.52 8975.95,2973.52 "/>
  <path class="fil9" d="M9745.03 2479.04c319.49,0 274.59,44.91 274.63,-274.6l-109.83 0 -0.25 164.8 -164.55 0 0 109.8zm0 -1922.69l164.8 0 0 164.8 109.83 0 -0.04 -199.1c0,-54.77 -20.73,-75.5 -75.49,-75.5l-199.14 0 0.04 109.8zm-1263.49 164.8l109.8 0 0 -164.8 165.69 0 -0.89 -109.8c-319.74,0 -274.6,-45.12 -274.6,274.6zm253.03 1757.89c-319.5,0 -274.6,44.91 -274.63,-274.6l109.83 0 0.25 164.8 164.55 0 0 109.8z"/>
  <path class="fil10" d="M5146.66 772.71l729.11 0c13.12,0 23.79,10.77 23.79,23.83l0 972.73c0,13.07 -10.67,23.79 -23.79,23.79l-729.11 0c-13.12,0 -23.89,-10.72 -23.89,-23.79l0 -972.73c0,-13.06 10.77,-23.83 23.89,-23.83zm255.66 313.79l128.72 0c6.89,0 12.51,5.62 12.51,12.51 0,6.89 -5.62,12.5 -12.51,12.5l-128.72 0c-6.89,0 -12.51,-5.61 -12.51,-12.5 0,-6.89 5.62,-12.51 12.51,-12.51zm0 -44.71l270.67 0c6.89,0 12.5,5.62 12.5,12.51 0,6.89 -5.61,12.5 -12.5,12.5l-270.67 0c-6.89,0 -12.51,-5.61 -12.51,-12.5 0,-6.89 5.62,-12.51 12.51,-12.51zm0 -48.08l270.67 0c6.89,0 12.5,5.62 12.5,12.51 0,6.89 -5.61,12.5 -12.5,12.5l-270.67 0c-6.89,0 -12.51,-5.61 -12.51,-12.5 0,-6.89 5.62,-12.51 12.51,-12.51zm-85.49 -80.03l431.34 0c4.65,0 8.58,3.88 8.58,8.58l0 262.91c0,4.74 -3.93,8.62 -8.58,8.62l-431.34 0c-4.7,0 -8.68,-3.88 -8.68,-8.62l0 -262.91c0,-4.7 3.98,-8.58 8.68,-8.58zm29.35 24.45l372.59 0c3.98,0 7.1,3.16 7.1,7.09l0 217.08c0,3.83 -3.12,7.09 -7.1,7.09l-372.59 0c-3.93,0 -7.15,-3.26 -7.15,-7.09l0 -217.08c0,-3.93 3.22,-7.09 7.15,-7.09zm-122.86 -130.31l0 950.17 627.34 0c12.3,0 22.2,-9.95 22.2,-22.15l0 -905.81c0,-12.25 -9.9,-22.21 -22.2,-22.21l-627.34 0zm-27.97 950.17l0 -950.17 -23.68 0c-12.2,0 -22.15,9.96 -22.15,22.21l0 905.81c0,12.2 9.95,22.15 22.15,22.15l23.68 0z"/>
  <g id="_2243587624272">
   <rect class="fil11" x="4817.93" y="1209.94" width="671.48" height="987.29"/>
   <path class="fil12" d="M4822.09 1188.74l664.14 0c14.65,0 26.64,11.99 26.64,26.59l0 979.31c0,14.6 -11.99,26.6 -26.64,26.6l-664.14 0c-14.65,0 -26.59,-12 -26.59,-26.6l0 -44.5 -53.49 0c-7.45,0 -13.53,-6.08 -13.53,-13.43 0,-7.45 6.08,-13.52 13.53,-13.52l53.49 0 0 -38.54 -53.49 0c-7.45,0 -13.53,-6.12 -13.53,-13.57 0,-7.46 6.08,-13.48 13.53,-13.48l53.49 0 0 -42.57 -53.49 0c-7.45,0 -13.53,-6.07 -13.53,-13.52 0,-7.4 6.08,-13.43 13.53,-13.43l53.49 0 0 -38.63 -53.49 0c-7.45,0 -13.53,-6.03 -13.53,-13.43 0,-7.5 6.08,-13.52 13.53,-13.52l53.49 0 0 -37.88 -53.49 0c-7.45,0 -13.53,-6.07 -13.53,-13.57 0,-7.35 6.08,-13.43 13.53,-13.43l53.49 0 0 -38.58 -53.49 0c-7.45,0 -13.53,-6.08 -13.53,-13.53 0,-7.45 6.08,-13.47 13.53,-13.47l53.49 0 0 -40.07 -53.49 0c-7.45,0 -13.53,-6.07 -13.53,-13.53 0,-7.45 6.08,-13.47 13.53,-13.47l53.49 0 0 -38.59 -53.49 0c-7.45,0 -13.53,-6.02 -13.53,-13.52 0,-7.35 6.08,-13.43 13.53,-13.43l53.49 0 0 -37.97 -53.49 0c-7.45,0 -13.53,-6.07 -13.53,-13.42 0,-7.46 6.08,-13.58 13.53,-13.58l53.49 0 0 -38.49 -53.49 0c-7.45,0 -13.53,-6.07 -13.53,-13.52 0,-7.4 6.08,-13.48 13.53,-13.48l53.49 0 0 -41.19 -53.49 0c-7.45,0 -13.53,-6.12 -13.53,-13.52 0,-7.4 6.08,-13.53 13.53,-13.53l53.49 0 0 -38.53 -53.49 0c-7.45,0 -13.53,-6.08 -13.53,-13.53 0,-7.35 6.08,-13.42 13.53,-13.42l53.49 0 0 -37.98 -53.49 0c-7.45,0 -13.53,-6.02 -13.53,-13.47 0,-7.45 6.08,-13.53 13.53,-13.53l53.49 0 0 -38.58 -53.49 0c-7.45,0 -13.53,-6.08 -13.53,-13.43 0,-7.4 6.08,-13.47 13.53,-13.47l53.49 0 0 -49.46c0,-14.6 11.94,-26.59 26.59,-26.59zm17.15 76.05l16.9 0c7.4,0 13.42,6.07 13.42,13.47 0,7.35 -6.02,13.43 -13.42,13.43l-16.9 0 0 38.58 16.9 0c7.4,0 13.42,6.08 13.42,13.53 0,7.45 -6.02,13.47 -13.42,13.47l-16.9 0 0 37.98 16.9 0c7.4,0 13.42,6.07 13.42,13.42 0,7.45 -6.02,13.53 -13.42,13.53l-16.9 0 0 38.53 16.9 0c7.4,0 13.42,6.13 13.42,13.53 0,7.4 -6.02,13.52 -13.42,13.52l-16.9 0 0 41.19 16.9 0c7.4,0 13.42,6.08 13.42,13.48 0,7.45 -6.02,13.52 -13.42,13.52l-16.9 0 0 38.49 16.9 0c7.4,0 13.42,6.12 13.42,13.58 0,7.35 -6.02,13.42 -13.42,13.42l-16.9 0 0 37.97 16.9 0c7.4,0 13.42,6.08 13.42,13.43 0,7.5 -6.02,13.52 -13.42,13.52l-16.9 0 0 38.59 16.9 0c7.4,0 13.42,6.02 13.42,13.47 0,7.46 -6.02,13.53 -13.42,13.53l-16.9 0 0 40.07 16.9 0c7.4,0 13.42,6.02 13.42,13.47 0,7.45 -6.02,13.53 -13.42,13.53l-16.9 0 0 38.58 16.9 0c7.4,0 13.42,6.08 13.42,13.43 0,7.5 -6.02,13.57 -13.42,13.57l-16.9 0 0 37.88 16.9 0c7.4,0 13.42,6.02 13.42,13.52 0,7.4 -6.02,13.43 -13.42,13.43l-16.9 0 0 38.63 16.9 0c7.4,0 13.42,6.03 13.42,13.43 0,7.45 -6.02,13.52 -13.42,13.52l-16.9 0 0 42.57 16.9 0c7.4,0 13.42,6.02 13.42,13.48 0,7.45 -6.02,13.57 -13.42,13.57l-16.9 0 0 38.54 16.9 0c7.4,0 13.42,6.07 13.42,13.52 0,7.35 -6.02,13.43 -13.42,13.43l-16.9 0 0 9.08c0,13.07 10.67,23.74 23.68,23.74l591.05 0c13.02,0 23.69,-10.67 23.69,-23.74l0 -908.52c0,-13.06 -10.67,-23.73 -23.69,-23.73l-591.05 0c-13.01,0 -23.68,10.67 -23.68,23.73l0 14.09zm269.24 345.95l115.1 0c6.89,0 12.5,5.62 12.5,12.51 0,6.89 -5.61,12.5 -12.5,12.5l-115.1 0c-6.89,0 -12.51,-5.61 -12.51,-12.5 0,-6.89 5.62,-12.51 12.51,-12.51zm-53.49 -60.43l222.13 0c6.89,0 12.5,5.61 12.5,12.5 0,6.89 -5.61,12.51 -12.5,12.51l-222.13 0c-6.89,0 -12.51,-5.62 -12.51,-12.51 0,-6.89 5.62,-12.5 12.51,-12.5zm-34.45 -54.41l291.03 0c6.89,0 12.5,5.61 12.5,12.51 0,6.89 -5.61,12.5 -12.5,12.5l-291.03 0c-6.89,0 -12.51,-5.61 -12.51,-12.5 0,-6.9 5.62,-12.51 12.51,-12.51zm0 -54.41l291.03 0c6.89,0 12.5,5.62 12.5,12.51 0,6.89 -5.61,12.5 -12.5,12.5l-291.03 0c-6.89,0 -12.51,-5.61 -12.51,-12.5 0,-6.89 5.62,-12.51 12.51,-12.51zm-81.26 -83.81l458.91 0c7.75,0 14.03,6.28 14.03,13.99l0 348.6c0,7.66 -6.28,13.94 -14.03,13.94l-458.91 0c-7.66,0 -13.88,-6.28 -13.88,-13.94l0 -348.6c0,-7.71 6.22,-13.99 13.88,-13.99zm31.65 34.15l395.71 0c6.33,0 11.38,5.1 11.38,11.38l0 285.42c0,6.28 -5.05,11.43 -11.38,11.43l-395.71 0c-6.28,0 -11.44,-5.15 -11.44,-11.43l0 -285.42c0,-6.28 5.16,-11.38 11.44,-11.38z"/>
  </g>
  <path class="fil13" d="M4150.41 2588.98l54.9 0c0,-599.69 0,-1529.05 0,-2128.73 0,-157.55 -23.55,-293.91 117.19,-336.36 56.81,-17.13 1553.91,-7.01 1784.94,-7.01 67.57,0 149.47,-10.57 207.55,19.11 44.28,22.62 80.6,65.32 86.7,132.04 11.89,129.91 1.05,317.06 1.05,453.15l-0.07 2237.35c0.5,120.82 -14.22,192.64 -112,225.91 -53.29,18.13 -892.03,8.82 -986.64,8.82 -98.97,0 -934.83,10.8 -991.82,-10.68 -93.48,-35.24 -107.32,-104.04 -106.82,-224.05l-0.47 -369.55 -54.51 0 -54.93 -0.04c0,114.45 0,228.89 0,343.34 0,141.82 -4.01,205.17 70.24,279.96 74.75,75.3 107.59,90.88 252.49,90.85l1737.3 0c140.83,0 195.61,0.51 269.63,-73.71 78.78,-79 87.44,-112.05 87.44,-262.76l0 -2080.63c0,-127.48 14.1,-604.52 -9.48,-684.07 -23.91,-80.65 -89.82,-148.96 -164.86,-178.47 -83.37,-32.79 -226.85,-16.41 -333.8,-16.41 -462.36,0 -924.73,0 -1387.09,0 -179.75,0 -429.58,-49.84 -509.15,184.4 -25.62,75.43 -12.72,561.83 -12.72,680.81 0,462.36 0,1254.4 0,1716.76l54.93 -0.03z"/>
  <path class="fil14" d="M4370.09 2546.51l54.96 0 0.03 -2209.9 1757.93 0 -0.04 2417.17 -1757.92 0 0 -207.27 -54.96 0 -54.84 0c0,323.31 -43.09,317.07 281.5,317.07 231.79,0 1634.47,6.89 1663.03,-5.72 38.3,-16.91 33.24,-64.05 33.06,-110.97l-0.03 -2362.18c0.01,-130.9 22.41,-158.45 -116.69,-157.93l-1668.64 0.03c-110.05,0 -192.87,-31.75 -192.46,89l0.23 2230.71 54.84 -0.01z"/>
  <polygon class="fil4" points="5029.39,3029.21 5029.39,3083.31 5578.7,3083.31 5578.67,3029.21 5578.7,2973.52 5029.39,2973.52 "/>
  <path class="fil15" d="M5798.47 2479.04c319.5,0 274.6,44.91 274.64,-274.6l-109.84 0 -0.25 164.8 -164.55 0 0 109.8zm0 -1922.69l164.8 0 0 164.8 109.84 0 -0.04 -199.1c0,-54.77 -20.74,-75.5 -75.5,-75.5l-199.13 0 0.03 109.8zm-1263.48 164.8l109.79 0 0 -164.8 165.7 0 -0.89 -109.8c-319.75,0 -274.6,-45.12 -274.6,274.6zm253.03 1757.89c-319.5,0 -274.6,44.91 -274.64,-274.6l109.83 0 0.25 164.8 164.56 0 0 109.8z"/>
  <path class="fil16" d="M8919.36 1687.06c152.92,0 147.08,6.65 146.18,-146.18l75.88 2.05c-0.73,97.44 -11.72,133.97 34.4,143.55l111.22 1.33 -1.54 73.92c-24.12,0.6 -47.41,-0.19 -71.22,0.06 -95.09,0.91 -71.28,38.19 -73.73,145.37l-74.15 0.94 -3.33 -118.62c-11.24,-38.54 -82.71,-27.29 -142.3,-26.82l-1.41 -75.6zm79.06 -192.02l-2.85 122.77 -120.15 2.14c-54.48,34.26 -17.7,200.06 -17.53,200.3 32.36,21.57 85.53,11 138.07,14.71 -0.58,44.11 -4.71,96.34 6.88,130.23 19.12,26.24 177.16,12.57 205.66,6.27l2.91 -137.18 138.71 -7.88c7.2,-29.39 7.45,-67.58 7.54,-104.29 0.23,-115.71 11.17,-106.36 -144.17,-104.92 -3.61,-51.28 7.15,-120.48 -14.83,-137.77 -0.88,-0.69 -172.9,-33.47 -200.24,15.62zm693.32 624.5c-174.65,45.2 -303.02,-173.47 -166.29,-307.1 5.21,5.22 4.82,2.6 16.49,17.27l149.8 289.83zm-94.06 -353.24c209.89,-28.09 304.86,173.58 176.29,307.78 -4.47,-4.24 -7.87,-6.53 -15.37,-16l-34.89 -57.53c-31.6,-57.51 -119.54,-197.12 -126.03,-234.25zm-852.78 -661.47c-12.13,-43.39 -10.95,-170.83 -1.14,-216.16 117.66,-12.8 295.15,-2.51 419.29,-2.51 366.34,0 306.03,-26.14 306.11,111.15 0.04,119.17 21.63,111 -98.97,110.28 -148.08,-0.83 -529.63,9.51 -625.29,-2.76zm66.18 79.34c12.09,-9.93 -19.3,-12.51 72.24,-11.55 112.19,1.1 456.91,-7.36 515.54,5.44l0.7 126.51c70.77,61.41 69.73,57.22 69.6,179.42 -0.14,78.33 6.15,183.31 0.38,258.17 -4.22,54.37 -67.19,73.15 -72.95,186.75 -4.71,93.17 31.19,143.8 71.43,197.15l-729.1 -2.29 -0.21 -507 -72.69 0.15c0,114.45 0,228.89 0,343.39 0,303.93 -68.36,238.15 776.59,238.15 105.34,0 223.87,14.99 315.92,-25.59 159.01,-70.12 208.79,-302.46 41.1,-434.93 -92.95,-73.42 -155.78,-41.12 -260.57,-29.19l-3.04 -371.96c-81.69,-65.51 -70.39,-67.17 -68.71,-153.1l70.91 -49.47 -4.07 -273.6 -35.19 -40.03c-185.53,-19.47 -452.26,-4.12 -646.56,-4.2 -146.85,-0.09 -187.09,-18.31 -186.47,139.43 0.15,40.8 -4.26,117.13 2.43,153.53 11.89,65.03 47.25,40.27 71.49,84.69l-1.68 85.45 -72.46 66.26 5 195.56 66.69 0.73 1.31 -151.25c20.92,-123.16 327.56,-44.88 545.88,-71.06l0.48 -66.25 -472.06 -0.56 -1.93 -68.75z"/>
  <path class="fil17" d="M12035.35 2588.98l54.9 0c0,-599.69 0,-1529.05 0,-2128.73 0,-157.55 -23.55,-293.91 117.19,-336.36 56.82,-17.13 1553.91,-7.01 1784.94,-7.01 67.57,0 149.47,-10.57 207.55,19.11 44.28,22.62 80.6,65.32 86.7,132.04 11.89,129.91 1.06,317.06 1.06,453.15l-0.08 2237.35c0.5,120.82 -14.22,192.64 -112,225.91 -53.29,18.13 -892.02,8.82 -986.64,8.82 -98.97,0 -934.83,10.8 -991.82,-10.68 -93.48,-35.24 -107.32,-104.04 -106.82,-224.05l-0.47 -369.55 -54.51 0 -54.93 -0.04c0,114.45 0,228.89 0,343.34 0,141.82 -4.01,205.17 70.24,279.96 74.75,75.3 107.59,90.88 252.5,90.85l1737.29 0c140.84,0 195.61,0.51 269.63,-73.71 78.79,-79 87.45,-112.05 87.44,-262.76l0 -2080.63c0,-127.48 14.1,-604.52 -9.48,-684.07 -23.91,-80.65 -89.82,-148.96 -164.86,-178.47 -83.37,-32.79 -226.84,-16.41 -333.8,-16.41 -462.36,0 -924.72,0 -1387.09,0 -179.75,0 -429.57,-49.84 -509.14,184.4 -25.63,75.43 -12.73,561.83 -12.73,680.81 0,462.36 0,1254.4 0,1716.76l54.93 -0.03z"/>
  <path class="fil18" d="M12255.04 2546.51l54.95 0 0.03 -2209.9 1757.93 0 -0.03 2417.17 -1757.93 0 0 -207.27 -54.95 0 -54.85 0c0,323.31 -43.09,317.07 281.5,317.07 231.79,0 1634.47,6.89 1663.03,-5.72 38.3,-16.91 33.24,-64.05 33.06,-110.97l-0.03 -2362.18c0.01,-130.9 22.42,-158.45 -116.69,-157.93l-1668.63 0.03c-110.05,0 -192.88,-31.75 -192.47,89l0.23 2230.71 54.85 -0.01z"/>
  <polygon class="fil4" points="12914.33,3029.21 12914.34,3083.31 13463.64,3083.31 13463.61,3029.21 13463.64,2973.52 12914.33,2973.52 "/>
  <path class="fil19" d="M13683.41 2479.04c319.5,0 274.6,44.91 274.64,-274.6l-109.83 0 -0.26 164.8 -164.55 0 0 109.8zm0 -1922.69l164.81 0 0 164.8 109.83 0 -0.04 -199.1c0,-54.77 -20.74,-75.5 -75.5,-75.5l-199.13 0 0.03 109.8zm-1263.48 164.8l109.79 0 0 -164.8 165.7 0 -0.89 -109.8c-319.74,0 -274.6,-45.12 -274.6,274.6zm253.03 1757.89c-319.5,0 -274.6,44.91 -274.64,-274.6l109.83 0 0.26 164.8 164.55 0 0 109.8z"/>
  <path class="fil20" d="M13127.97 2215.73l-373.52 0c-17.16,0 -19.01,-8.74 -24.91,-20.65 -4.2,-8.48 -13.29,-24.09 -15.18,-32.19l453.69 0 -23.04 46.19c-3.61,5.15 -8.61,6.65 -17.04,6.65zm-256.91 -109.33l-173.1 0 0 -490.13 205.89 0c16.51,0 20.28,20.99 28.89,43.99 12.16,32.44 24.38,80.8 29.33,116.44 10.77,77.63 4.98,145.52 -22.03,218.3 -9.15,24.65 -30.5,66.28 -44.05,90.78 -6.17,11.14 -7.91,20.62 -24.93,20.62zm215 -488.31l98.39 0 0 486.49 -123.9 0 24.92 -49.78c8.4,-16.76 15.01,-36.3 21.32,-55.21 10.99,-32.95 24.92,-90.23 24.88,-126.35 -0.06,-62.7 3.31,-69.53 -10.22,-137.48 -7.85,-39.42 -16.64,-66.61 -30.2,-102.81 -1.29,-3.46 -3.68,-11.48 -5.19,-14.86zm-109.32 0c12.93,-3.01 13.67,-1.82 29.15,-1.82 22.65,0 27.58,21.08 33.94,38.95 42.93,120.53 53.65,227.21 4.85,349.67 -12.07,30.3 -19.05,40.09 -32.11,66.29 -18.34,36.79 -10.8,35.22 -63.16,35.22 32.71,-61.82 61.35,-124.25 69.24,-196.77 3.97,-36.51 6.63,-69.37 3.54,-107.41 -3.22,-39.74 -13.34,-90.87 -25.64,-127.42l-14.56 -41.92c-1.55,-4.25 -3.34,-10.51 -5.25,-14.79zm260.55 -54.66l435.47 0c-3.29,14.13 -6.42,51.19 -9.87,70.29 -3.81,21.09 -10.28,46.78 -10.23,69.95 0.04,15.08 -2.6,24.53 -1.78,38.32l7.37 114.73c0.21,29.39 4.52,63.08 5.35,94.86 0.23,9.04 1.69,9.08 1.93,18.12l5.41 96.62c1.42,28.6 5.47,65.24 5.47,96.57 0,14.6 -8.01,29.47 -15.39,37.45 -21.9,23.67 -69.87,21.6 -85.94,-18.12 -5.8,-14.33 -3.63,-48.48 -33.5,-48.48 -33.43,0 -22.36,35.68 -39.62,55.13 -33.36,37.55 -111.93,32.73 -137.47,1.7 -2.14,-2.61 -7.81,-11.11 -9.34,-14.35 -3.32,-6.99 -5.98,-42.48 -28.58,-42.48 -32.3,0 -30.44,28.97 -34.55,43.79 -4.67,16.85 -21.14,36.38 -41.97,36.38 -33.01,0 -19.7,-2.97 -38.27,-7.29 1.46,-17.57 30.98,-37.61 30.98,-114.79 0,-52.1 4.11,-506.97 -5.47,-528.4zm-49.19 -94.75l0 -287.88 488.31 0 0 324.33 -455.52 0c-19.15,0 -32.79,-15.15 -32.79,-36.45zm-435.48 -69.23l377.17 0 0 51.01c-19.88,0 -52.84,-2.46 -52.84,29.16 0,35.58 45.92,25.23 57.95,27.68 14.5,2.96 25.95,38.88 33.15,52.49l-453.69 0 18.18 -38.3c7.83,-15.53 13.77,-14.58 41.95,-14.54 28.15,0.03 217.61,1.85 228.56,-1.02 13.8,-3.62 23.93,-18.11 19.44,-33.67 -4.53,-15.7 -16.69,-21.8 -36.64,-21.8l-233.23 0 0 -51.01zm923.79 -276.96l-482.85 0c-9.12,0 -5.46,-15.52 -5.46,-40.08 0,-44.17 37.03,-85.67 62.23,-119.98 4.48,-6.09 8.64,-11.8 12.85,-18.12 6.11,-9.17 93.43,-138.23 102.33,-143.65 9.43,-5.76 15.35,-2.49 24.83,-2.49l82 0c13.2,0 13.08,-3.7 25.58,1.73 9.45,4.1 33.32,41.93 40.39,52.55 8.52,12.79 17.06,23.76 25.51,36.44 8.52,12.79 17.06,23.76 25.51,36.44l51.02 72.88c18.89,28.35 37.88,45.5 37.88,89.66 0,14.3 -1.82,20.72 -1.82,34.62zm-136.66 -388.1l0 5.47 -215 0c0,-21.1 -4.89,-51.02 25.51,-51.02l167.63 0c27.5,0 21.86,36.05 21.86,45.55zm-244.15 63.78c-42.27,63.11 -94.21,131.78 -134.84,193.13 -15.68,23.67 -29.15,50.23 -29.15,82l0 267.84 -397.21 0c-16.54,0 -30.42,3.95 -36.44,14.57 -13.38,23.59 23.4,86.6 -45.01,200.98 -19.05,31.85 -13.29,85.39 -13.29,125.17 0,58.39 1.82,112.72 1.82,169.46l-3.55 169.54c-5.98,72.3 12.57,150.96 46.08,212.46 9.81,18.01 21.82,38.89 48.57,38.89l399.03 0c20.3,0 34.76,-4.42 51.82,-8.4 23.64,-5.52 11.02,8.4 66.62,8.4 14.51,0 32.95,-7.87 43.14,-13.34 6.22,-3.34 12.23,-7.45 17.42,-11.73 4.89,-4.04 11.51,-10.21 15.96,-13.19 66.39,44.45 119.04,52.2 190.73,13.98 8.56,-4.56 14.06,-9.54 22.45,-13.98 26.14,22.72 48.87,38.26 87.46,38.26 40.4,0 80.95,-29.91 95.29,-63.23 20.48,-47.55 5.2,-100.13 4.86,-148.07 -0.09,-13.44 -0.83,-36.94 -2.81,-50.02l-6.21 -99.48c-0.17,-21.24 -7.2,-77.36 -7.38,-98.29 -0.55,-64.27 -6.58,-103.52 6.86,-173.66 5.87,-30.62 14.76,-85.17 15.14,-116.04 0.11,-8.88 -0.55,-18.66 -0.08,-27.41l1.83 -51.01c0.01,-19.61 -1.86,-32.38 -1.82,-51.02 0.18,-81.1 -2.44,-176.02 1.83,-255.08 1.2,-22.23 0.2,-50.69 -2.82,-70.08 -6.58,-42.29 -22.34,-72.83 -43.26,-100.68 -28.43,-37.86 -49.88,-70.99 -74.95,-105.43l-44.78 -64.54c36.82,-3.07 27.33,-48.42 27.33,-58.31 0,-10.27 2.97,-21.7 -1.02,-40.89 -7.76,-37.31 -39.22,-66.61 -75.51,-66.61l-174.92 0c-17.78,0 -38.46,10.4 -47.87,19.55 -36.13,35.14 -26.96,54.99 -30.22,106.45 -1.05,16.5 7.75,38.05 28.9,39.81z"/>
  <path class="fil21" d="M15868.29 2588.98l54.9 0c0,-599.69 0,-1529.05 0,-2128.73 0,-157.55 -23.55,-293.91 117.19,-336.36 56.81,-17.13 1553.91,-7.01 1784.94,-7.01 67.57,0 149.47,-10.57 207.55,19.11 44.28,22.62 80.6,65.32 86.7,132.04 11.89,129.91 1.05,317.06 1.05,453.15l-0.07 2237.35c0.5,120.82 -14.22,192.64 -112,225.91 -53.29,18.13 -892.03,8.82 -986.64,8.82 -98.97,0 -934.83,10.8 -991.82,-10.68 -93.48,-35.24 -107.32,-104.04 -106.82,-224.05l-0.47 -369.55 -54.51 0 -54.93 -0.04c0,114.45 0,228.89 0,343.34 0,141.82 -4.01,205.17 70.24,279.96 74.75,75.3 107.59,90.88 252.49,90.85l1737.3 0c140.83,0 195.61,0.51 269.63,-73.71 78.78,-79 87.44,-112.05 87.44,-262.76l0 -2080.63c0,-127.48 14.1,-604.52 -9.48,-684.07 -23.91,-80.65 -89.82,-148.96 -164.86,-178.47 -83.37,-32.79 -226.85,-16.41 -333.8,-16.41 -462.36,0 -924.73,0 -1387.09,0 -179.75,0 -429.58,-49.84 -509.15,184.4 -25.62,75.43 -12.72,561.83 -12.72,680.81 0,462.36 0,1254.4 0,1716.76l54.93 -0.03z"/>
  <path class="fil22" d="M16087.97 2546.51l54.96 0 0.03 -2209.9 1757.93 0 -0.04 2417.17 -1757.92 0 0 -207.27 -54.96 0 -54.84 0c0,323.31 -43.09,317.07 281.5,317.07 231.79,0 1634.47,6.89 1663.03,-5.72 38.3,-16.91 33.24,-64.05 33.06,-110.97l-0.03 -2362.18c0.01,-130.9 22.41,-158.45 -116.69,-157.93l-1668.64 0.03c-110.05,0 -192.87,-31.75 -192.46,89l0.23 2230.71 54.84 -0.01z"/>
  <polygon class="fil4" points="16747.27,3029.21 16747.27,3083.31 17296.58,3083.31 17296.54,3029.21 17296.58,2973.52 16747.27,2973.52 "/>
  <path class="fil23" d="M17516.35 2479.04c319.5,0 274.6,44.91 274.64,-274.6l-109.84 0 -0.25 164.8 -164.55 0 0 109.8zm0 -1922.69l164.8 0 0 164.8 109.84 0 -0.04 -199.1c0,-54.77 -20.74,-75.5 -75.5,-75.5l-199.14 0 0.04 109.8zm-1263.48 164.8l109.79 0 0 -164.8 165.7 0 -0.9 -109.8c-319.74,0 -274.59,-45.12 -274.59,274.6zm253.03 1757.89c-319.5,0 -274.6,44.91 -274.64,-274.6l109.83 0 0.25 164.8 164.56 0 0 109.8z"/>
  <path class="fil24" d="M19806.68 2588.98l54.9 0c0,-599.69 0,-1529.05 0,-2128.73 0,-157.55 -23.55,-293.91 117.19,-336.36 56.81,-17.13 1553.9,-7.01 1784.94,-7.01 67.57,0 149.47,-10.57 207.54,19.11 44.29,22.62 80.61,65.32 86.71,132.04 11.89,129.91 1.05,317.06 1.05,453.15l-0.07 2237.35c0.49,120.82 -14.23,192.64 -112,225.91 -53.29,18.13 -892.03,8.82 -986.64,8.82 -98.97,0 -934.83,10.8 -991.83,-10.68 -93.48,-35.24 -107.31,-104.04 -106.82,-224.05l-0.46 -369.55 -54.51 0 -54.93 -0.04c0,114.45 0,228.89 0,343.34 0,141.82 -4.02,205.17 70.24,279.96 74.75,75.3 107.58,90.88 252.49,90.85l1737.29 0c140.84,0 195.61,0.51 269.63,-73.71 78.79,-79 87.45,-112.05 87.45,-262.76l0 -2080.63c0,-127.48 14.1,-604.52 -9.49,-684.07 -23.9,-80.65 -89.82,-148.96 -164.86,-178.47 -83.36,-32.79 -226.84,-16.41 -333.79,-16.41 -462.37,0 -924.73,0 -1387.09,0 -179.76,0 -429.58,-49.84 -509.15,184.4 -25.62,75.43 -12.72,561.83 -12.72,680.81 0,462.36 0,1254.4 0,1716.76l54.93 -0.03z"/>
  <path class="fil25" d="M20026.36 2546.51l54.95 0 0.04 -2209.9 1757.93 0 -0.04 2417.17 -1757.93 0 0 -207.27 -54.95 0 -54.84 0c0,323.31 -43.09,317.07 281.5,317.07 231.78,0 1634.47,6.89 1663.03,-5.72 38.3,-16.91 33.23,-64.05 33.05,-110.97l-0.02 -2362.18c0,-130.9 22.41,-158.45 -116.69,-157.93l-1668.64 0.03c-110.05,0 -192.87,-31.75 -192.46,89l0.23 2230.71 54.84 -0.01z"/>
  <polygon class="fil4" points="20685.66,3029.21 20685.66,3083.31 21234.97,3083.31 21234.93,3029.21 21234.97,2973.52 20685.66,2973.52 "/>
  <path class="fil26" d="M21454.74 2479.04c319.49,0 274.6,44.91 274.63,-274.6l-109.83 0 -0.25 164.8 -164.55 0 0 109.8zm0 -1922.69l164.8 0 0 164.8 109.83 0 -0.03 -199.1c0,-54.77 -20.74,-75.5 -75.5,-75.5l-199.14 0 0.04 109.8zm-1263.49 164.8l109.8 0 0 -164.8 165.7 0 -0.9 -109.8c-319.74,0 -274.6,-45.12 -274.6,274.6zm253.03 1757.89c-319.49,0 -274.6,44.91 -274.63,-274.6l109.83 0 0.25 164.8 164.55 0 0 109.8z"/>
  <path class="fil27" d="M17414.2 1729.59c11.43,83.12 -9.14,170.37 -38.61,239.54 -15.59,36.6 -34.11,67.32 -53.39,93.49 -16.95,22.99 -44.36,60.47 -60.3,76.29l-472.68 -2c-19.88,-21.66 -62.04,-96.04 -62.1,-134.56l-21.43 -48.29c-58.67,-220.73 -2.84,-456.84 147.92,-624.44 37.57,-41.77 25.31,-30.71 27.1,-99.14l247.16 1.14 -2.83 39.16 -186.33 2.82c-19.1,4.68 -5.63,-1.08 -17.51,8.19l-0.18 31.44c42.75,0 195.95,-7.35 224.05,4.2 12.58,5.18 115.26,90.28 125.99,100.97 67.18,66.95 131.47,174.7 143.14,311.19zm98.35 242.09l-67.14 2.12 -0.06 41.29c21.7,2.26 75.36,10.17 83.63,-10.43 29.99,-2.67 56.17,-26.46 67.29,-57.11 12.18,-33.58 6.28,-310.12 6.28,-357.41 0,-258.25 -39.23,-287.45 -41.47,-440.85l58.68 -7.95c15.77,-97.97 -53.67,-163.79 -118.09,-188.34 -43.12,-16.45 -97.03,-11.72 -145.38,-11.7 -24.54,0.02 -49.02,0.09 -73.55,-0.25l-55.65 5.27c-27.23,9.29 -18.07,83.85 -8.33,89.91 1.05,0.64 3.27,2.47 4.6,3.22 1.35,0.75 3.37,2.07 4.92,2.84 24.65,12.15 28.36,2.32 62.2,26.58 4.92,62.24 -33.13,74.14 -45.56,110.35l15.93 21.79c33.65,-8.94 52.59,-43.15 66.12,-80.11 24.33,35.32 10.63,26.66 70.62,26.86l-7.56 79.34 -31.8 98.77c-9.58,44.99 -14.09,32.05 -9.52,71.07l29.61 3.55c25.99,-50.87 26.04,-123.94 58.73,-169.97l86.44 1.1c11.88,59.91 23.3,120.35 33.35,180.57 9.25,55.45 4.39,139.85 4.45,199.98 0.07,68.52 -0.1,137.05 -0.03,205.57 0.08,70.76 17.36,132.92 -48.71,153.94zm-999.74 -147.39c-20.52,-31.77 -9.93,-184.13 -7.07,-233.36 25.31,0.57 9.59,-2.36 18.86,8.18l84.56 24.89 11.41 -33.86c-24.17,-15.55 -124.13,-55.62 -142.05,-41.87 -14.19,13.34 -6.41,-8.17 -11.76,26.94l0.07 228.23c3.88,80.93 57.87,118.55 144.4,105.76l-0.58 -35.98c-57.12,-9.03 -82.24,4.21 -97.84,-48.93zm37.8 -535.16c29.09,-50.67 128.03,-53.71 163.48,0 -12.92,34.84 -42.67,44.95 -84.59,44.11 -75.64,-1.56 -74.51,-36.98 -78.89,-44.11zm112.45 89.53c23.2,-15.96 37.03,-12.77 61.53,-31.05 24.57,-18.34 30.44,-34.95 30.53,-73.13 -58.22,-88.89 -169.33,-73.87 -218.87,-34.64 -40.31,31.9 -32.8,81.02 4.58,108.73 35.89,26.6 77.97,17.04 122.23,30.09zm531.89 154.58c112.34,1.52 153.97,352.04 83.7,375.33 -62.72,20.78 44.3,-132.88 -62.26,-296.03 -21.34,-32.69 -46.85,-45.39 -21.44,-79.3zm41.42 406.75c47.92,40.76 88.57,-1.26 101.41,-45.19 17.92,-61.27 9.25,-105.75 20.66,-158.46 -23.24,-38.2 -4.89,-80.91 -69.84,-181.2 -74.82,-115.49 -135.29,-47.27 -143.43,-21 -23.81,76.94 104.04,116.02 78.77,297.8 -7.37,53.02 -27.17,68.08 12.43,108.05zm-106.32 -38.71c-38.14,29.8 -59.42,57.31 -120.23,68.69 -164.83,30.81 -288.73,-144.21 -207.77,-287.92 19.63,-34.85 56.24,-70.97 102.71,-88.4 71.02,-26.65 90.93,-5.96 123.42,38.18 42.21,57.35 98.73,180.45 101.87,269.45zm-298.49 75.14c44.59,8.41 153.73,86.04 280.39,-6.92 19.94,-14.65 14.59,-18.03 31.58,-19.65 37.88,-56.36 34.96,-57.32 12.95,-137.61 -21.8,-79.54 -64.3,-176.08 -119.22,-233.46 -34.37,-35.9 -47.18,-48.92 -120.25,-32.01 -86.45,20 -155.8,92.08 -175.2,177.18 -12.44,54.57 -3.72,111.13 16.48,155.78 23.69,52.39 57.04,62.73 73.27,96.69zm-280.85 -850.45c-1.79,-45.79 16.31,-60.86 64.06,-60.79l44.05 0.07c40.27,0.07 56.27,21.98 55.46,61.2l-163.57 -0.48zm42.27 -143.48l79.64 0.6 -0.07 40.45 -81.19 0.17 1.62 -41.22zm38.21 996.77c-45.72,-18.71 -115.37,6.91 -167.51,-10.39 -47.81,-15.85 -37.87,-70.93 -37.75,-129.1 0.21,-109.95 -10.32,-224.47 19.27,-323.76 21.33,-71.58 27.8,-64.72 4.51,-135.15 -13.85,-41.9 -36.05,-87.65 -10.44,-127.59 8.17,-12.73 85.5,-75.89 91.42,-78.5 34.17,-15.07 122.9,-6.24 164.84,-6.34 50.49,0.6 59.63,28.03 96.65,47.5l18.53 -29.59c-18.77,-24.2 -35.85,-25.71 -45.84,-39.4 -20.17,-27.64 1.72,-40.75 -15.95,-72.36 -15.96,-28.51 -29.73,-9.17 -34.26,-56.62 -2.59,-27.15 1.63,-50.86 -6.25,-71.69 -28.37,-7.42 -49.61,-4.93 -79.02,-5.13 -10.11,-0.07 -35.76,-1.04 -44.26,0.12 -68.27,9.43 -9.85,67.01 -51.32,112.93 -37.12,41.12 -21.56,20.55 -27.25,89.93 -27.65,14.5 -26.26,18.67 -49.89,38.22 -17.85,14.76 -30.08,17.78 -44.77,36 -74.13,91.98 32.52,158.02 0.24,264.25 -42.87,141.06 -27.81,244.62 -27.81,408.56 0,66.5 19.36,105.09 73.91,119.36 19.76,5.17 147.78,9.67 174.07,-1.89l-1.12 -29.36zm806.03 -831.43l82.91 -0.28 0.47 41.92 -83.28 -0.84 -0.1 -40.8zm-116.87 -109.26c-57.89,-46.91 -60.79,-4.57 -67.4,-50.46 33.23,-14.73 173.38,-10.72 215.51,-1.89 63.43,13.29 99.36,54.9 111.38,120.53l-211.66 -0.1c-10.76,-34.56 -24.25,-48.97 -47.83,-68.08zm-397.76 68.07l163.44 0.07 0.42 82.53 -165.55 0.13 1.69 -82.73zm-97.36 184.48l-124.93 189.4c-1.06,51.17 -79.53,163.54 -54.47,379.85 12.34,106.56 63.54,256.41 123.12,317.6 41.19,4.81 483.97,6.17 505.56,0.02 25.09,-7.14 96.93,-110.59 112.19,-139.04 30.86,-57.57 53.81,-113.66 65.02,-185.12 61,-388.93 -271.66,-537.12 -281.5,-582.13 -11.39,-52.02 25.59,-80.57 -42.65,-82.68 -0.02,-42.64 9.83,-88.08 -18.23,-115.94 -39.32,-18.17 -177.71,-12.51 -219.19,0 -13.86,35.56 -9.86,59.61 -9.93,105.92l-15.85 8.53c-61.28,32.91 3.2,97.12 -39.14,103.59z"/>
  <path class="fil28" d="M21239.99 1953.27l-325.59 0c-15.21,0 -24.76,-12.04 -24.76,-27.61l0 -523.16c0,-17.97 13.43,-26.14 32.06,-26.14l313.84 0c22.16,0 32.01,9.91 32.01,32.01l0 513c0,19.55 -8.17,31.9 -27.56,31.9zm-754.28 -29.04c-19.6,0 -19.81,-30.52 0,-30.52 18.83,0 18.83,30.52 0,30.52zm-29.04 -15.97c0,41.08 56.65,34.04 56.65,5.82l0 -10.21c0,-11.13 -12.55,-23.23 -29.14,-23.23 -14.75,0 -27.51,12.76 -27.51,27.62zm139.49 5.82l-42.11 0c-2.09,-9.04 -2.09,-8.43 0,-17.46l42.11 0c1.07,12.35 2.14,0.56 0,17.46zm-56.71 -14.6c0,34.81 9.8,29.14 55.18,29.14 20.47,0 24.29,-46.55 -2.86,-46.55 -15.92,0 -38.74,-2.7 -46.24,4.65 -2.66,2.65 -6.08,7.81 -6.08,12.76zm-165.62 10.21c0,-16.9 -5.62,-13.07 39.2,-13.07 5.66,0 4.39,3.67 4.39,13.07 0,3.42 -1.02,4.39 -4.39,4.39l-34.86 0c-3.32,0 -4.34,-0.97 -4.34,-4.39zm-14.6 -4.34c0,29.6 23.48,23.27 55.28,23.27 23.22,0 23.22,-46.55 0,-46.55 -30.47,0 -55.28,-6.43 -55.28,23.28zm95.96 -690.27l59.61 0 0 2.85 -59.61 0 0 -2.85zm1.48 17.4l56.65 0c20.47,0 19.96,-31.9 0,-31.9l-56.65 0c-20.01,0 -20.01,31.9 0,31.9zm332.73 563.84c-26.9,0 -22.82,-34.86 -2.91,-34.86 26.64,0 21.23,34.86 2.91,34.86zm-37.77 -17.4c0,8.42 5.15,19.04 9.75,23.68 20.98,21.54 61.5,12.61 61.5,-26.54 0,-33.12 -50.89,-47.01 -67.47,-12.3 -1.53,3.32 -3.78,11.13 -3.78,15.16zm267.4 13.07c0,-22.77 1.48,-32.77 18.53,-49.82 22.81,-22.81 60.18,-21.9 82.89,0.72 34.45,34.5 17.71,96.97 -39.51,102.33 -31.85,2.91 -61.91,-28.17 -61.91,-53.23zm-18.94 -7.25c0,11.89 3.63,23.63 7.35,31.9 4.85,10.87 11.23,20.72 20.32,27.71 5.92,4.6 10,8.48 18.42,12.1 30.32,12.96 62.94,7.1 86.06,-15.21 0.2,-0.2 0.56,-0.46 0.71,-0.77l7.51 -8.42c23.73,-31.23 19.39,-77.88 -7.86,-102.74 -32.36,-29.66 -79.63,-28.74 -109.64,1.27 -8.22,8.12 -17.45,24.1 -20.26,36.4 -0.67,2.85 -2.61,13.98 -2.61,17.76zm75.65 -120.61c50.73,0 90.54,25.37 110.91,66.4 40.63,81.57 -18.68,176.3 -109.48,176.3 -57.58,0 -104.99,-42.32 -116.78,-93.92 -1.59,-6.58 -3.68,-19.95 -3.93,-26.79 -0.67,-29.45 14.13,-64.11 35.37,-85.34 21.79,-21.8 49.71,-36.65 83.91,-36.65zm-136.59 117.7c0,57.22 28.33,103.46 77.99,128.32 38.18,19.24 84.78,19.24 123.06,0 18.27,-9.14 24.76,-14.91 38.33,-28.43 11.03,-11.03 20.67,-23.94 27.16,-39.61 27.61,-66.76 6.12,-132.3 -46.3,-170.07 -30.06,-21.74 -69.72,-31.18 -109.17,-23.27 -16.44,3.26 -36.09,11.63 -49.21,20.57 -36.18,24.5 -61.86,67.22 -61.86,112.49zm-4.44 -188.95l0 -161.29c0,-3.37 3.93,-7.3 7.3,-7.3l270.31 0c6.79,0 10.16,3.42 10.16,10.16l0 158.43c0,6.84 -3.37,10.15 -10.16,10.15l-267.4 0c-6.74,0 -10.21,-3.31 -10.21,-10.15zm-18.78 -155.42l0 152.51c0,19.09 12.86,32 31.9,32l260.15 0c16.54,0 32.01,-10.11 32.01,-26.13l0 -164.25c0,-15.77 -14.5,-26.13 -30.58,-26.13l-264.49 0c-16.79,0 -28.99,14.65 -28.99,32zm-594.42 386.53l0 -537.71c0,-11.69 9.14,-24.76 20.37,-24.76l283.32 0c13.83,0 23.28,11.18 23.28,24.76l0 539.14c0,13.57 -11.13,24.7 -24.71,24.7l-277.56 0c-14.39,0 -24.7,-11.84 -24.7,-26.13zm-17.4 -542.05l0 547.82c0,16.13 17.55,37.82 37.77,37.82l286.23 0c28.23,0 39.25,-28.59 39.25,-56.71l0 -513.01c0,-30.98 -13.27,-55.17 -46.45,-55.17l-268.88 0c-28.43,0 -47.92,18.37 -47.92,39.25zm1140.75 643.72c0,-25.83 14.65,-15.97 53.39,-8.32l122.04 26.13c10.36,2.15 19.29,4.65 24.14,13.58 7.81,14.29 -3.32,30.78 2.55,45.53 1.02,2.76 7.81,10.46 0.1,23.58 -11.02,18.83 -66.65,12.45 -95.34,-6.84 -6.79,-4.54 -12.45,-10.36 -12.45,-18.12 0,-15.92 26.13,-13.27 26.13,-30.42 0,-14.49 -15.82,-15.77 -23.22,-17.51 -11.44,-2.7 -22.92,-4.84 -34.81,-7.35 -10.77,-2.24 -22.16,-5 -33.38,-7.24 -8.43,-1.69 -29.15,-3.98 -29.15,-13.02zm-1164.08 -20.31l0 -678.64c0,-25.98 26.13,-42.16 52.32,-42.16l303.79 0c24.7,0 52.32,16.39 52.32,39.25l0 681.55c0,20.41 -23.94,39.25 -49.46,39.25l-309.56 0c-13.83,0 -24.6,-4.55 -32.87,-10.77 -7.1,-5.36 -16.54,-16.85 -16.54,-28.48zm1251.21 0l8.78 0 0 1.48 -8.78 0 0 -1.48zm-97.29 -29.1c0,-8.62 2.91,-14.54 11.59,-14.54l175.84 0c5.2,0 12.86,4.74 15.72,7.5 10,9.95 3.47,25.16 9.34,38.64 6.27,14.19 8.32,1.84 8.32,28.02 0,9.44 -4.34,-0.72 -15.93,-5.87l-78.5 -17.35c0.92,-3.93 7.96,-13.53 -3.98,-22.26 -4.9,-3.52 -8.57,-2.55 -16.33,-2.5l-78.5 0c-12.56,0 -27.57,0.72 -27.57,-11.64zm-141.02 -53.69l34.61 19.14c18.88,11.48 60.89,29.81 83.75,38.38 12.51,4.54 5,16.54 21.18,20.93 -1.63,2.96 -2.04,3.42 -2.9,7.25 -22.11,-1.89 -85.04,-20.11 -106.07,-30.53l-30.57 -16.02 0 -39.15zm-576.91 -97.44l146.79 0 0 109.03 -146.79 0 0 -109.03zm576.91 -23.22l0 -146.79c12.15,-5.87 10.57,-3.32 24.86,-11.54 12.65,-7.4 25.93,-15.67 36.64,-25.88 15.47,-14.9 22.16,-22.66 33.89,-40.16 2.71,-4.14 7.76,-13.27 10.72,-15.37 1.23,4.6 1.48,2.91 3.78,7.86 1.48,3.37 2.3,5.36 3.42,8.12 2.19,4.8 4.44,11.69 6.07,17.15 11.18,37.61 -5.56,78.4 -28.89,106.72l-32 37.77c-3.83,4.39 -8.06,8.07 -12.3,12.36l-34.25 37.05c-4.49,4.49 -6.63,9.14 -11.94,12.71zm-4.34 -322.63c11.84,5.72 58.95,5.82 98.87,65.39l-8.27 13.52c-7.4,12.35 -19.81,29.91 -29.86,39.97l-25.57 20.87c-5,3.68 -9.19,5.51 -14.6,8.78 -4.39,2.71 -10.21,6.43 -16.23,6.94l0 -119.13c0,-34.96 -2.04,-18.58 -4.34,-36.34zm-94.47 -100.24l27.61 0 0 71.25 -27.61 0 0 -71.25zm23.22 -36.34c0,-24.19 7.2,-45.53 21.33,-62.93 17.82,-21.9 46.71,-37.37 74.63,-37.37 24.65,0 34.35,-0.15 57.67,10.62 15.31,7.15 32.11,22.61 39.71,37.36 3.01,5.82 5.82,10.77 8.17,17.92 16.84,50.58 -1.84,172.51 -22.77,216 -12.81,-8.57 -14.85,-25.37 -64.36,-50.38 -26.44,-13.32 -44.81,-10.97 -58.8,-13.83 -6.02,-1.27 -11.69,-9.8 -33.68,-9.8l0 -72.73c0,-5.67 -3.48,-9.19 -6.9,-12.1 -4.49,-3.72 -7.4,-3.93 -15,-3.93l0 -18.83zm-712.07 -280.52l562.42 0 0 388.11 -152.51 0c-28.43,0 -52.37,21.8 -52.37,49.36l0 299.35 -146.79 0 0 -463.55c0,-46.45 -33.13,-77.02 -77.02,-77.02l-133.73 0 0 -196.25zm-26.13 -2.91l0 199.16 -45.07 0 0 -220.95c0,-29.61 15.82,-49.36 45.07,-49.36l614.73 0c26.08,0 45.07,18.27 45.07,39.2l0 422.97 -45.07 0 0 -393.93c0,-10.62 -11.89,-20.31 -23.22,-20.31l-568.29 0c-12.6,0 -23.22,10.56 -23.22,23.22zm-66.86 -28.99l0 228.15 -82.84 0c-43.69,0 -76.97,30.57 -76.97,77.02l0 658.27c0,22.3 5.15,38.84 19.96,54.21 10.61,11.12 31.44,22.86 52.67,22.86l321.2 0c25.26,0 53.39,-20.11 63.95,-43.59 8.01,-18.07 5.77,-49.61 5.77,-71.25l146.79 0 0 75.54c0,24.4 23.12,47.98 47.93,47.98l334.26 0c20.11,0 36.39,-15.21 43.13,-29.5 7.66,-16.29 4.8,-45.07 4.8,-67.89 28.63,19.14 91.21,36.19 124.74,42.47 10.16,1.84 7.15,1.02 10.47,9.8 2.14,5.71 4.39,8.88 9.49,12.35 10.97,7.45 65.43,17.15 83.81,20.77 7.04,1.43 11.07,3.32 18.58,3.32 -1.28,1.63 -38.33,23.53 -8.99,55.33 26.7,29.09 136.84,53.54 136.84,-14.75 0,-12.61 -5.82,-12.61 -5.82,-18.78 0,-17.87 5.06,-4.6 1.08,-33.23 -1.43,-10.36 10.56,-2.2 10.56,-36.65 0,-15.21 -8.88,-13.52 -11.12,-23.73 -1.43,-6.54 3.52,-56.05 -48.49,-56.05l-161.29 0c-20.06,0 -27.26,5.93 -34.86,20.32l-32.97 -13.63c-31.85,-14.9 -46.3,-21.84 -76.26,-39.91 -4.08,-2.4 -11.84,-7.97 -15.77,-8.93 0,-17.05 0,-34 0,-50.94 0,-27.36 -3.52,-13.12 15.16,-37.16 13.68,-17.66 58.95,-61.86 73.75,-80.34 4.34,-5.41 7.56,-8.57 11.84,-14.29 40.33,-54.46 55.23,-94.83 23.28,-159.35 -13.53,-27.2 -10.46,-3.52 4.85,-50.83 19.7,-60.9 20.87,-100.66 20.87,-165.17 0,-47.57 -27.56,-91.52 -69.97,-108.82 -39.46,-16.13 -90.04,-12.86 -124.19,12.05l-18.32 15.15c-10.56,12.66 -18.53,24.1 -24.29,41.09 -5.77,17.05 -7.41,36.8 -7.41,59.36 -12.55,0 -21.79,6.54 -21.79,17.51l0 71.25 -15.98 0 0 -425.83c0,-29.25 -30.26,-58.13 -59.61,-58.13l-626.32 0c-33.89,0 -62.52,28.73 -62.52,63.95z"/>
 </g>
</svg>
