<?xml version="1.0" encoding="UTF-8"?>
<!DOCTYPE svg PUBLIC "-//W3C//DTD SVG 1.1//EN" "http://www.w3.org/Graphics/SVG/1.1/DTD/svg11.dtd">
<!-- Creator: CorelDRAW -->
<svg xmlns="http://www.w3.org/2000/svg" xml:space="preserve" width="35mm" height="35mm" version="1.1" style="shape-rendering:geometricPrecision; text-rendering:geometricPrecision; image-rendering:optimizeQuality; fill-rule:evenodd; clip-rule:evenodd"
viewBox="0 0 3500 3500"
 xmlns:xlink="http://www.w3.org/1999/xlink"
 xmlns:xodm="http://www.corel.com/coreldraw/odm/2003">
 <defs>
  <style type="text/css">
   <![CDATA[
    .fil2 {fill:#2C675B}
    .fil4 {fill:url(#id0)}
    .fil3 {fill:url(#id1)}
    .fil0 {fill:url(#id2)}
    .fil1 {fill:url(#id3)}
   ]]>
  </style>
  <linearGradient id="id0" gradientUnits="userSpaceOnUse" x1="2048.53" y1="2277.64" x2="1968.65" y2="960.56">
   <stop offset="0" style="stop-opacity:1; stop-color:#2C665A"/>
   <stop offset="1" style="stop-opacity:1; stop-color:#019985"/>
  </linearGradient>
  <linearGradient id="id1" gradientUnits="userSpaceOnUse" xlink:href="#id0" x1="2167.68" y1="2455.08" x2="2053.93" y2="819.42">
  </linearGradient>
  <linearGradient id="id2" gradientUnits="userSpaceOnUse" xlink:href="#id0" x1="2413.62" y1="3177.3" x2="2237.29" y2="526.89">
  </linearGradient>
  <linearGradient id="id3" gradientUnits="userSpaceOnUse" xlink:href="#id0" x1="2291.85" y1="2791.58" x2="2147.79" y2="669.62">
  </linearGradient>
 </defs>
 <g id="Слой_x0020_1">
  <metadata id="CorelCorpID_0Corel-Layer"/>
  <path class="fil0" d="M598.3 2723.49l54.9 0c0,-599.69 0,-1529.05 0,-2128.73 0,-157.55 -23.55,-293.91 117.19,-336.36 56.82,-17.13 1553.91,-7.01 1784.94,-7.01 67.57,0 149.47,-10.57 207.55,19.11 44.28,22.62 80.6,65.32 86.7,132.04 11.89,129.91 1.06,317.06 1.06,453.15l-0.08 2237.35c0.5,120.82 -14.22,192.64 -112,225.91 -53.29,18.13 -892.02,8.82 -986.64,8.82 -98.97,0 -934.83,10.8 -991.82,-10.68 -93.48,-35.24 -107.32,-104.04 -106.82,-224.05l-0.47 -369.55 -54.51 0 -54.93 -0.04c0,114.45 0,228.89 0,343.34 0,141.82 -4.01,205.17 70.24,279.96 74.75,75.3 107.59,90.88 252.5,90.85l1737.29 0c140.84,0 195.61,0.51 269.63,-73.71 78.79,-79 87.45,-112.05 87.44,-262.76l0 -2080.63c0,-127.48 14.1,-604.52 -9.48,-684.07 -23.91,-80.65 -89.82,-148.96 -164.86,-178.47 -83.37,-32.79 -226.84,-16.41 -333.8,-16.41 -462.36,0 -924.72,0 -1387.09,0 -179.75,0 -429.57,-49.84 -509.14,184.4 -25.63,75.43 -12.73,561.83 -12.73,680.81 0,462.36 0,1254.4 0,1716.76l54.93 -0.03z"/>
  <path class="fil1" d="M817.99 2681.02l54.95 0 0.03 -2209.9 1757.93 0 -0.03 2417.17 -1757.93 0 0 -207.27 -54.95 0 -54.85 0c0,323.31 -43.09,317.07 281.5,317.07 231.79,0 1634.47,6.89 1663.03,-5.72 38.3,-16.91 33.24,-64.05 33.06,-110.97l-0.03 -2362.18c0.01,-130.9 22.42,-158.45 -116.69,-157.93l-1668.63 0.03c-110.05,0 -192.88,-31.75 -192.47,89l0.23 2230.71 54.85 -0.01z"/>
  <polygon class="fil2" points="1477.28,3163.72 1477.29,3217.82 2026.59,3217.82 2026.56,3163.72 2026.59,3108.03 1477.28,3108.03 "/>
  <path class="fil3" d="M2246.36 2613.55c319.5,0 274.6,44.91 274.64,-274.6l-109.83 0 -0.26 164.8 -164.55 0 0 109.8zm0 -1922.69l164.81 0 0 164.8 109.83 0 -0.04 -199.1c0,-54.77 -20.74,-75.5 -75.5,-75.5l-199.13 0 0.03 109.8zm-1263.48 164.8l109.79 0 0 -164.8 165.7 0 -0.89 -109.8c-319.74,0 -274.6,-45.12 -274.6,274.6zm253.03 1757.89c-319.5,0 -274.6,44.91 -274.64,-274.6l109.83 0 0.26 164.8 164.55 0 0 109.8z"/>
  <path class="fil4" d="M1690.92 2350.24l-373.52 0c-17.16,0 -19.01,-8.74 -24.91,-20.65 -4.2,-8.48 -13.29,-24.09 -15.18,-32.19l453.69 0 -23.04 46.19c-3.61,5.15 -8.61,6.65 -17.04,6.65zm-256.91 -109.33l-173.1 0 0 -490.13 205.89 0c16.51,0 20.28,20.99 28.89,43.99 12.16,32.44 24.38,80.8 29.33,116.44 10.77,77.63 4.98,145.52 -22.03,218.3 -9.15,24.65 -30.5,66.28 -44.05,90.78 -6.17,11.14 -7.91,20.62 -24.93,20.62zm215 -488.31l98.39 0 0 486.49 -123.9 0 24.92 -49.78c8.4,-16.76 15.01,-36.3 21.32,-55.21 10.99,-32.95 24.92,-90.23 24.88,-126.35 -0.06,-62.7 3.31,-69.53 -10.22,-137.48 -7.85,-39.42 -16.64,-66.61 -30.2,-102.81 -1.29,-3.46 -3.68,-11.48 -5.19,-14.86zm-109.32 0c12.93,-3.01 13.67,-1.82 29.15,-1.82 22.65,0 27.58,21.08 33.94,38.95 42.93,120.53 53.65,227.21 4.85,349.67 -12.07,30.3 -19.05,40.09 -32.11,66.29 -18.34,36.79 -10.8,35.22 -63.16,35.22 32.71,-61.82 61.35,-124.25 69.24,-196.77 3.97,-36.51 6.63,-69.37 3.54,-107.41 -3.22,-39.74 -13.34,-90.87 -25.64,-127.42l-14.56 -41.92c-1.55,-4.25 -3.34,-10.51 -5.25,-14.79zm260.55 -54.66l435.47 0c-3.29,14.13 -6.42,51.19 -9.87,70.29 -3.81,21.09 -10.28,46.78 -10.23,69.95 0.04,15.08 -2.6,24.53 -1.78,38.32l7.37 114.73c0.21,29.39 4.52,63.08 5.35,94.86 0.23,9.04 1.69,9.08 1.93,18.12l5.41 96.62c1.42,28.6 5.47,65.24 5.47,96.57 0,14.6 -8.01,29.47 -15.39,37.45 -21.9,23.67 -69.87,21.6 -85.94,-18.12 -5.8,-14.33 -3.63,-48.48 -33.5,-48.48 -33.43,0 -22.36,35.68 -39.62,55.13 -33.36,37.55 -111.93,32.73 -137.47,1.7 -2.14,-2.61 -7.81,-11.11 -9.34,-14.35 -3.32,-6.99 -5.98,-42.48 -28.58,-42.48 -32.3,0 -30.44,28.97 -34.55,43.79 -4.67,16.85 -21.14,36.38 -41.97,36.38 -33.01,0 -19.7,-2.97 -38.27,-7.29 1.46,-17.57 30.98,-37.61 30.98,-114.79 0,-52.1 4.11,-506.97 -5.47,-528.4zm-49.19 -94.75l0 -287.88 488.31 0 0 324.33 -455.52 0c-19.15,0 -32.79,-15.15 -32.79,-36.45zm-435.48 -69.23l377.17 0 0 51.01c-19.88,0 -52.84,-2.46 -52.84,29.16 0,35.58 45.92,25.23 57.95,27.68 14.5,2.96 25.95,38.88 33.15,52.49l-453.69 0 18.18 -38.3c7.83,-15.53 13.77,-14.58 41.95,-14.54 28.15,0.03 217.61,1.85 228.56,-1.02 13.8,-3.62 23.93,-18.11 19.44,-33.67 -4.53,-15.7 -16.69,-21.8 -36.64,-21.8l-233.23 0 0 -51.01zm923.79 -276.96l-482.85 0c-9.12,0 -5.46,-15.52 -5.46,-40.08 0,-44.17 37.03,-85.67 62.23,-119.98 4.48,-6.09 8.64,-11.8 12.85,-18.12 6.11,-9.17 93.43,-138.23 102.33,-143.65 9.43,-5.76 15.35,-2.49 24.83,-2.49l82 0c13.2,0 13.08,-3.7 25.58,1.73 9.45,4.1 33.32,41.93 40.39,52.55 8.52,12.79 17.06,23.76 25.51,36.44 8.52,12.79 17.06,23.76 25.51,36.44l51.02 72.88c18.89,28.35 37.88,45.5 37.88,89.66 0,14.3 -1.82,20.72 -1.82,34.62zm-136.66 -388.1l0 5.47 -215 0c0,-21.1 -4.89,-51.02 25.51,-51.02l167.63 0c27.5,0 21.86,36.05 21.86,45.55zm-244.15 63.78c-42.27,63.11 -94.21,131.78 -134.84,193.13 -15.68,23.67 -29.15,50.23 -29.15,82l0 267.84 -397.21 0c-16.54,0 -30.42,3.95 -36.44,14.57 -13.38,23.59 23.4,86.6 -45.01,200.98 -19.05,31.85 -13.29,85.39 -13.29,125.17 0,58.39 1.82,112.72 1.82,169.46l-3.55 169.54c-5.98,72.3 12.57,150.96 46.08,212.46 9.81,18.01 21.82,38.89 48.57,38.89l399.03 0c20.3,0 34.76,-4.42 51.82,-8.4 23.64,-5.52 11.02,8.4 66.62,8.4 14.51,0 32.95,-7.87 43.14,-13.34 6.22,-3.34 12.23,-7.45 17.42,-11.73 4.89,-4.04 11.51,-10.21 15.96,-13.19 66.39,44.45 119.04,52.2 190.73,13.98 8.56,-4.56 14.06,-9.54 22.45,-13.98 26.14,22.72 48.87,38.26 87.46,38.26 40.4,0 80.95,-29.91 95.29,-63.23 20.48,-47.55 5.2,-100.13 4.86,-148.07 -0.09,-13.44 -0.83,-36.94 -2.81,-50.02l-6.21 -99.48c-0.17,-21.24 -7.2,-77.36 -7.38,-98.29 -0.55,-64.27 -6.58,-103.52 6.86,-173.66 5.87,-30.62 14.76,-85.17 15.14,-116.04 0.11,-8.88 -0.55,-18.66 -0.08,-27.41l1.83 -51.01c0.01,-19.61 -1.86,-32.38 -1.82,-51.02 0.18,-81.1 -2.44,-176.02 1.83,-255.08 1.2,-22.23 0.2,-50.69 -2.82,-70.08 -6.58,-42.29 -22.34,-72.83 -43.26,-100.68 -28.43,-37.86 -49.88,-70.99 -74.95,-105.43l-44.78 -64.54c36.82,-3.07 27.33,-48.42 27.33,-58.31 0,-10.27 2.97,-21.7 -1.02,-40.89 -7.76,-37.31 -39.22,-66.61 -75.51,-66.61l-174.92 0c-17.78,0 -38.46,10.4 -47.87,19.55 -36.13,35.14 -26.96,54.99 -30.22,106.45 -1.05,16.5 7.75,38.05 28.9,39.81z"/>
 </g>
</svg>
