<?xml version="1.0" encoding="UTF-8"?>
<!DOCTYPE svg PUBLIC "-//W3C//DTD SVG 1.1//EN" "http://www.w3.org/Graphics/SVG/1.1/DTD/svg11.dtd">
<!-- Creator: CorelDRAW -->
<svg xmlns="http://www.w3.org/2000/svg" xml:space="preserve" width="35mm" height="35mm" version="1.1" style="shape-rendering:geometricPrecision; text-rendering:geometricPrecision; image-rendering:optimizeQuality; fill-rule:evenodd; clip-rule:evenodd"
viewBox="0 0 3500 3500"
 xmlns:xlink="http://www.w3.org/1999/xlink"
 xmlns:xodm="http://www.corel.com/coreldraw/odm/2003">
 <defs>
  <style type="text/css">
   <![CDATA[
    .fil2 {fill:#2C675B}
    .fil1 {fill:url(#id0)}
    .fil4 {fill:url(#id1)}
    .fil3 {fill:url(#id2)}
    .fil0 {fill:url(#id3)}
   ]]>
  </style>
  <linearGradient id="id0" gradientUnits="userSpaceOnUse" x1="2286.67" y1="2758.61" x2="2142.62" y2="636.65">
   <stop offset="0" style="stop-opacity:1; stop-color:#2C665A"/>
   <stop offset="1" style="stop-opacity:1; stop-color:#019985"/>
  </linearGradient>
  <linearGradient id="id1" gradientUnits="userSpaceOnUse" xlink:href="#id0" x1="2137.91" y1="2063.13" x2="2034.5" y2="1108.27">
  </linearGradient>
  <linearGradient id="id2" gradientUnits="userSpaceOnUse" xlink:href="#id0" x1="2162.51" y1="2422.11" x2="2048.76" y2="786.45">
  </linearGradient>
  <linearGradient id="id3" gradientUnits="userSpaceOnUse" xlink:href="#id0" x1="2408.44" y1="3144.33" x2="2232.11" y2="493.92">
  </linearGradient>
 </defs>
 <g id="Слой_x0020_1">
  <metadata id="CorelCorpID_0Corel-Layer"/>
  <path class="fil0" d="M593.13 2690.52l54.9 0c0,-599.69 0,-1529.05 0,-2128.73 0,-157.55 -23.55,-293.91 117.19,-336.36 56.81,-17.13 1553.9,-7.01 1784.94,-7.01 67.57,0 149.47,-10.57 207.54,19.11 44.29,22.62 80.61,65.32 86.71,132.04 11.89,129.91 1.05,317.06 1.05,453.15l-0.07 2237.35c0.49,120.82 -14.23,192.64 -112,225.91 -53.29,18.13 -892.03,8.82 -986.64,8.82 -98.97,0 -934.83,10.8 -991.83,-10.68 -93.48,-35.24 -107.31,-104.04 -106.82,-224.05l-0.46 -369.55 -54.51 0 -54.93 -0.04c0,114.45 0,228.89 0,343.34 0,141.82 -4.02,205.17 70.24,279.96 74.75,75.3 107.58,90.88 252.49,90.85l1737.29 0c140.84,0 195.61,0.51 269.63,-73.71 78.79,-79 87.45,-112.05 87.45,-262.76l0 -2080.63c0,-127.48 14.1,-604.52 -9.49,-684.07 -23.9,-80.65 -89.82,-148.96 -164.86,-178.47 -83.36,-32.79 -226.84,-16.41 -333.79,-16.41 -462.37,0 -924.73,0 -1387.09,0 -179.76,0 -429.58,-49.84 -509.15,184.4 -25.62,75.43 -12.72,561.83 -12.72,680.81 0,462.36 0,1254.4 0,1716.76l54.93 -0.03z"/>
  <path class="fil1" d="M812.81 2648.05l54.95 0 0.04 -2209.9 1757.93 0 -0.04 2417.17 -1757.93 0 0 -207.27 -54.95 0 -54.84 0c0,323.31 -43.09,317.07 281.5,317.07 231.78,0 1634.47,6.89 1663.03,-5.72 38.3,-16.91 33.23,-64.05 33.05,-110.97l-0.02 -2362.18c0,-130.9 22.41,-158.45 -116.69,-157.93l-1668.64 0.03c-110.05,0 -192.87,-31.75 -192.46,89l0.23 2230.71 54.84 -0.01z"/>
  <polygon class="fil2" points="1472.11,3130.75 1472.11,3184.85 2021.42,3184.85 2021.38,3130.75 2021.42,3075.06 1472.11,3075.06 "/>
  <path class="fil3" d="M2241.19 2580.58c319.49,0 274.6,44.91 274.63,-274.6l-109.83 0 -0.25 164.8 -164.55 0 0 109.8zm0 -1922.69l164.8 0 0 164.8 109.83 0 -0.03 -199.1c0,-54.77 -20.74,-75.5 -75.5,-75.5l-199.14 0 0.04 109.8zm-1263.49 164.8l109.8 0 0 -164.8 165.7 0 -0.9 -109.8c-319.74,0 -274.6,-45.12 -274.6,274.6zm253.03 1757.89c-319.49,0 -274.6,44.91 -274.63,-274.6l109.83 0 0.25 164.8 164.55 0 0 109.8z"/>
  <path class="fil4" d="M2026.44 2054.81l-325.59 0c-15.21,0 -24.76,-12.04 -24.76,-27.61l0 -523.16c0,-17.97 13.43,-26.14 32.06,-26.14l313.84 0c22.16,0 32.01,9.91 32.01,32.01l0 513c0,19.55 -8.17,31.9 -27.56,31.9zm-754.28 -29.04c-19.6,0 -19.81,-30.52 0,-30.52 18.83,0 18.83,30.52 0,30.52zm-29.04 -15.97c0,41.08 56.65,34.04 56.65,5.82l0 -10.21c0,-11.13 -12.55,-23.23 -29.14,-23.23 -14.75,0 -27.51,12.76 -27.51,27.62zm139.49 5.82l-42.11 0c-2.09,-9.04 -2.09,-8.43 0,-17.46l42.11 0c1.07,12.35 2.14,0.56 0,17.46zm-56.71 -14.6c0,34.81 9.8,29.14 55.18,29.14 20.47,0 24.29,-46.55 -2.86,-46.55 -15.92,0 -38.74,-2.7 -46.24,4.65 -2.66,2.65 -6.08,7.81 -6.08,12.76zm-165.62 10.21c0,-16.9 -5.62,-13.07 39.2,-13.07 5.66,0 4.39,3.67 4.39,13.07 0,3.42 -1.02,4.39 -4.39,4.39l-34.86 0c-3.32,0 -4.34,-0.97 -4.34,-4.39zm-14.6 -4.34c0,29.6 23.48,23.27 55.28,23.27 23.22,0 23.22,-46.55 0,-46.55 -30.47,0 -55.28,-6.43 -55.28,23.28zm95.96 -690.27l59.61 0 0 2.85 -59.61 0 0 -2.85zm1.48 17.4l56.65 0c20.47,0 19.96,-31.9 0,-31.9l-56.65 0c-20.01,0 -20.01,31.9 0,31.9zm332.73 563.84c-26.9,0 -22.82,-34.86 -2.91,-34.86 26.64,0 21.23,34.86 2.91,34.86zm-37.77 -17.4c0,8.42 5.15,19.04 9.75,23.68 20.98,21.54 61.5,12.61 61.5,-26.54 0,-33.12 -50.89,-47.01 -67.47,-12.3 -1.53,3.32 -3.78,11.13 -3.78,15.16zm267.4 13.07c0,-22.77 1.48,-32.77 18.53,-49.82 22.81,-22.81 60.18,-21.9 82.89,0.72 34.45,34.5 17.71,96.97 -39.51,102.33 -31.85,2.91 -61.91,-28.17 -61.91,-53.23zm-18.94 -7.25c0,11.89 3.63,23.63 7.35,31.9 4.85,10.87 11.23,20.72 20.32,27.71 5.92,4.6 10,8.48 18.42,12.1 30.32,12.96 62.94,7.1 86.06,-15.21 0.2,-0.2 0.56,-0.46 0.71,-0.77l7.51 -8.42c23.73,-31.23 19.39,-77.88 -7.86,-102.74 -32.36,-29.66 -79.63,-28.74 -109.64,1.27 -8.22,8.12 -17.45,24.1 -20.26,36.4 -0.67,2.85 -2.61,13.98 -2.61,17.76zm75.65 -120.61c50.73,0 90.54,25.37 110.91,66.4 40.63,81.57 -18.68,176.3 -109.48,176.3 -57.58,0 -104.99,-42.32 -116.78,-93.92 -1.59,-6.58 -3.68,-19.95 -3.93,-26.79 -0.67,-29.45 14.13,-64.11 35.37,-85.34 21.79,-21.8 49.71,-36.65 83.91,-36.65zm-136.59 117.7c0,57.22 28.33,103.46 77.99,128.32 38.18,19.24 84.78,19.24 123.06,0 18.27,-9.14 24.76,-14.91 38.33,-28.43 11.03,-11.03 20.67,-23.94 27.16,-39.61 27.61,-66.76 6.12,-132.3 -46.3,-170.07 -30.06,-21.74 -69.72,-31.18 -109.17,-23.27 -16.44,3.26 -36.09,11.63 -49.21,20.57 -36.18,24.5 -61.86,67.22 -61.86,112.49zm-4.44 -188.95l0 -161.29c0,-3.37 3.93,-7.3 7.3,-7.3l270.31 0c6.79,0 10.16,3.42 10.16,10.16l0 158.43c0,6.84 -3.37,10.15 -10.16,10.15l-267.4 0c-6.74,0 -10.21,-3.31 -10.21,-10.15zm-18.78 -155.42l0 152.51c0,19.09 12.86,32 31.9,32l260.15 0c16.54,0 32.01,-10.11 32.01,-26.13l0 -164.25c0,-15.77 -14.5,-26.13 -30.58,-26.13l-264.49 0c-16.79,0 -28.99,14.65 -28.99,32zm-594.42 386.53l0 -537.71c0,-11.69 9.14,-24.76 20.37,-24.76l283.32 0c13.83,0 23.28,11.18 23.28,24.76l0 539.14c0,13.57 -11.13,24.7 -24.71,24.7l-277.56 0c-14.39,0 -24.7,-11.84 -24.7,-26.13zm-17.4 -542.05l0 547.82c0,16.13 17.55,37.82 37.77,37.82l286.23 0c28.23,0 39.25,-28.59 39.25,-56.71l0 -513.01c0,-30.98 -13.27,-55.17 -46.45,-55.17l-268.88 0c-28.43,0 -47.92,18.37 -47.92,39.25zm1140.75 643.72c0,-25.83 14.65,-15.97 53.39,-8.32l122.04 26.13c10.36,2.15 19.29,4.65 24.14,13.58 7.81,14.29 -3.32,30.78 2.55,45.53 1.02,2.76 7.81,10.46 0.1,23.58 -11.02,18.83 -66.65,12.45 -95.34,-6.84 -6.79,-4.54 -12.45,-10.36 -12.45,-18.12 0,-15.92 26.13,-13.27 26.13,-30.42 0,-14.49 -15.82,-15.77 -23.22,-17.51 -11.44,-2.7 -22.92,-4.84 -34.81,-7.35 -10.77,-2.24 -22.16,-5 -33.38,-7.24 -8.43,-1.69 -29.15,-3.98 -29.15,-13.02zm-1164.08 -20.31l0 -678.64c0,-25.98 26.13,-42.16 52.32,-42.16l303.79 0c24.7,0 52.32,16.39 52.32,39.25l0 681.55c0,20.41 -23.94,39.25 -49.46,39.25l-309.56 0c-13.83,0 -24.6,-4.55 -32.87,-10.77 -7.1,-5.36 -16.54,-16.85 -16.54,-28.48zm1251.21 0l8.78 0 0 1.48 -8.78 0 0 -1.48zm-97.29 -29.1c0,-8.62 2.91,-14.54 11.59,-14.54l175.84 0c5.2,0 12.86,4.74 15.72,7.5 10,9.95 3.47,25.16 9.34,38.64 6.27,14.19 8.32,1.84 8.32,28.02 0,9.44 -4.34,-0.72 -15.93,-5.87l-78.5 -17.35c0.92,-3.93 7.96,-13.53 -3.98,-22.26 -4.9,-3.52 -8.57,-2.55 -16.33,-2.5l-78.5 0c-12.56,0 -27.57,0.72 -27.57,-11.64zm-141.02 -53.69l34.61 19.14c18.88,11.48 60.89,29.81 83.75,38.38 12.51,4.54 5,16.54 21.18,20.93 -1.63,2.96 -2.04,3.42 -2.9,7.25 -22.11,-1.89 -85.04,-20.11 -106.07,-30.53l-30.57 -16.02 0 -39.15zm-576.91 -97.44l146.79 0 0 109.03 -146.79 0 0 -109.03zm576.91 -23.22l0 -146.79c12.15,-5.87 10.57,-3.32 24.86,-11.54 12.65,-7.4 25.93,-15.67 36.64,-25.88 15.47,-14.9 22.16,-22.66 33.89,-40.16 2.71,-4.14 7.76,-13.27 10.72,-15.37 1.23,4.6 1.48,2.91 3.78,7.86 1.48,3.37 2.3,5.36 3.42,8.12 2.19,4.8 4.44,11.69 6.07,17.15 11.18,37.61 -5.56,78.4 -28.89,106.72l-32 37.77c-3.83,4.39 -8.06,8.07 -12.3,12.36l-34.25 37.05c-4.49,4.49 -6.63,9.14 -11.94,12.71zm-4.34 -322.63c11.84,5.72 58.95,5.82 98.87,65.39l-8.27 13.52c-7.4,12.35 -19.81,29.91 -29.86,39.97l-25.57 20.87c-5,3.68 -9.19,5.51 -14.6,8.78 -4.39,2.71 -10.21,6.43 -16.23,6.94l0 -119.13c0,-34.96 -2.04,-18.58 -4.34,-36.34zm-94.47 -100.24l27.61 0 0 71.25 -27.61 0 0 -71.25zm23.22 -36.34c0,-24.19 7.2,-45.53 21.33,-62.93 17.82,-21.9 46.71,-37.37 74.63,-37.37 24.65,0 34.35,-0.15 57.67,10.62 15.31,7.15 32.11,22.61 39.71,37.36 3.01,5.82 5.82,10.77 8.17,17.92 16.84,50.58 -1.84,172.51 -22.77,216 -12.81,-8.57 -14.85,-25.37 -64.36,-50.38 -26.44,-13.32 -44.81,-10.97 -58.8,-13.83 -6.02,-1.27 -11.69,-9.8 -33.68,-9.8l0 -72.73c0,-5.67 -3.48,-9.19 -6.9,-12.1 -4.49,-3.72 -7.4,-3.93 -15,-3.93l0 -18.83zm-712.07 -280.52l562.42 0 0 388.11 -152.51 0c-28.43,0 -52.37,21.8 -52.37,49.36l0 299.35 -146.79 0 0 -463.55c0,-46.45 -33.13,-77.02 -77.02,-77.02l-133.73 0 0 -196.25zm-26.13 -2.91l0 199.16 -45.07 0 0 -220.95c0,-29.61 15.82,-49.36 45.07,-49.36l614.73 0c26.08,0 45.07,18.27 45.07,39.2l0 422.97 -45.07 0 0 -393.93c0,-10.62 -11.89,-20.31 -23.22,-20.31l-568.29 0c-12.6,0 -23.22,10.56 -23.22,23.22zm-66.86 -28.99l0 228.15 -82.84 0c-43.69,0 -76.97,30.57 -76.97,77.02l0 658.27c0,22.3 5.15,38.84 19.96,54.21 10.61,11.12 31.44,22.86 52.67,22.86l321.2 0c25.26,0 53.39,-20.11 63.95,-43.59 8.01,-18.07 5.77,-49.61 5.77,-71.25l146.79 0 0 75.54c0,24.4 23.12,47.98 47.93,47.98l334.26 0c20.11,0 36.39,-15.21 43.13,-29.5 7.66,-16.29 4.8,-45.07 4.8,-67.89 28.63,19.14 91.21,36.19 124.74,42.47 10.16,1.84 7.15,1.02 10.47,9.8 2.14,5.71 4.39,8.88 9.49,12.35 10.97,7.45 65.43,17.15 83.81,20.77 7.04,1.43 11.07,3.32 18.58,3.32 -1.28,1.63 -38.33,23.53 -8.99,55.33 26.7,29.09 136.84,53.54 136.84,-14.75 0,-12.61 -5.82,-12.61 -5.82,-18.78 0,-17.87 5.06,-4.6 1.08,-33.23 -1.43,-10.36 10.56,-2.2 10.56,-36.65 0,-15.21 -8.88,-13.52 -11.12,-23.73 -1.43,-6.54 3.52,-56.05 -48.49,-56.05l-161.29 0c-20.06,0 -27.26,5.93 -34.86,20.32l-32.97 -13.63c-31.85,-14.9 -46.3,-21.84 -76.26,-39.91 -4.08,-2.4 -11.84,-7.97 -15.77,-8.93 0,-17.05 0,-34 0,-50.94 0,-27.36 -3.52,-13.12 15.16,-37.16 13.68,-17.66 58.95,-61.86 73.75,-80.34 4.34,-5.41 7.56,-8.57 11.84,-14.29 40.33,-54.46 55.23,-94.83 23.28,-159.35 -13.53,-27.2 -10.46,-3.52 4.85,-50.83 19.7,-60.9 20.87,-100.66 20.87,-165.17 0,-47.57 -27.56,-91.52 -69.97,-108.82 -39.46,-16.13 -90.04,-12.86 -124.19,12.05l-18.32 15.15c-10.56,12.66 -18.53,24.1 -24.29,41.09 -5.77,17.05 -7.41,36.8 -7.41,59.36 -12.55,0 -21.79,6.54 -21.79,17.51l0 71.25 -15.98 0 0 -425.83c0,-29.25 -30.26,-58.13 -59.61,-58.13l-626.32 0c-33.89,0 -62.52,28.73 -62.52,63.95z"/>
 </g>
</svg>
