<?xml version="1.0" encoding="UTF-8"?>
<!DOCTYPE svg PUBLIC "-//W3C//DTD SVG 1.1//EN" "http://www.w3.org/Graphics/SVG/1.1/DTD/svg11.dtd">
<!-- Creator: CorelDRAW -->
<svg xmlns="http://www.w3.org/2000/svg" xml:space="preserve" width="35mm" height="35mm" version="1.1" style="shape-rendering:geometricPrecision; text-rendering:geometricPrecision; image-rendering:optimizeQuality; fill-rule:evenodd; clip-rule:evenodd"
viewBox="0 0 3500 3500"
 xmlns:xlink="http://www.w3.org/1999/xlink"
 xmlns:xodm="http://www.corel.com/coreldraw/odm/2003">
 <defs>
  <style type="text/css">
   <![CDATA[
    .fil2 {fill:#2C675B}
    .fil3 {fill:url(#id0)}
    .fil4 {fill:url(#id1)}
    .fil0 {fill:url(#id2)}
    .fil1 {fill:url(#id3)}
   ]]>
  </style>
  <linearGradient id="id0" gradientUnits="userSpaceOnUse" x1="2156.88" y1="2441.34" x2="2043.14" y2="805.68">
   <stop offset="0" style="stop-opacity:1; stop-color:#2C665A"/>
   <stop offset="1" style="stop-opacity:1; stop-color:#019985"/>
  </linearGradient>
  <linearGradient id="id1" gradientUnits="userSpaceOnUse" xlink:href="#id0" x1="2059.37" y1="2204.97" x2="1969.16" y2="1208.03">
  </linearGradient>
  <linearGradient id="id2" gradientUnits="userSpaceOnUse" xlink:href="#id0" x1="2402.83" y1="3163.56" x2="2226.49" y2="513.15">
  </linearGradient>
  <linearGradient id="id3" gradientUnits="userSpaceOnUse" xlink:href="#id0" x1="2281.06" y1="2777.84" x2="2137" y2="655.88">
  </linearGradient>
 </defs>
 <g id="Слой_x0020_1">
  <metadata id="CorelCorpID_0Corel-Layer"/>
  <path class="fil0" d="M587.51 2709.75l54.9 0c0,-599.69 0,-1529.05 0,-2128.73 0,-157.55 -23.55,-293.91 117.19,-336.36 56.81,-17.13 1553.91,-7.01 1784.94,-7.01 67.57,0 149.47,-10.57 207.55,19.11 44.28,22.62 80.6,65.32 86.7,132.04 11.89,129.91 1.05,317.06 1.05,453.15l-0.07 2237.35c0.5,120.82 -14.22,192.64 -112,225.91 -53.29,18.13 -892.03,8.82 -986.64,8.82 -98.97,0 -934.83,10.8 -991.82,-10.68 -93.48,-35.24 -107.32,-104.04 -106.82,-224.05l-0.47 -369.55 -54.51 0 -54.93 -0.04c0,114.45 0,228.89 0,343.34 0,141.82 -4.01,205.17 70.24,279.96 74.75,75.3 107.59,90.88 252.49,90.85l1737.3 0c140.83,0 195.61,0.51 269.63,-73.71 78.78,-79 87.44,-112.05 87.44,-262.76l0 -2080.63c0,-127.48 14.1,-604.52 -9.48,-684.07 -23.91,-80.65 -89.82,-148.96 -164.86,-178.47 -83.37,-32.79 -226.85,-16.41 -333.8,-16.41 -462.36,0 -924.73,0 -1387.09,0 -179.75,0 -429.58,-49.84 -509.15,184.4 -25.62,75.43 -12.72,561.83 -12.72,680.81 0,462.36 0,1254.4 0,1716.76l54.93 -0.03z"/>
  <path class="fil1" d="M807.19 2667.28l54.96 0 0.03 -2209.9 1757.93 0 -0.04 2417.17 -1757.92 0 0 -207.27 -54.96 0 -54.84 0c0,323.31 -43.09,317.07 281.5,317.07 231.79,0 1634.47,6.89 1663.03,-5.72 38.3,-16.91 33.24,-64.05 33.06,-110.97l-0.03 -2362.18c0.01,-130.9 22.41,-158.45 -116.69,-157.93l-1668.64 0.03c-110.05,0 -192.87,-31.75 -192.46,89l0.23 2230.71 54.84 -0.01z"/>
  <polygon class="fil2" points="1466.49,3149.98 1466.49,3204.08 2015.8,3204.08 2015.76,3149.98 2015.8,3094.29 1466.49,3094.29 "/>
  <path class="fil3" d="M2235.57 2599.81c319.5,0 274.6,44.91 274.64,-274.6l-109.84 0 -0.25 164.8 -164.55 0 0 109.8zm0 -1922.69l164.8 0 0 164.8 109.84 0 -0.04 -199.1c0,-54.77 -20.74,-75.5 -75.5,-75.5l-199.14 0 0.04 109.8zm-1263.48 164.8l109.79 0 0 -164.8 165.7 0 -0.9 -109.8c-319.74,0 -274.59,-45.12 -274.59,274.6zm253.03 1757.89c-319.5,0 -274.6,44.91 -274.64,-274.6l109.83 0 0.25 164.8 164.56 0 0 109.8z"/>
  <path class="fil4" d="M2133.42 1850.36c11.43,83.12 -9.14,170.37 -38.61,239.54 -15.59,36.6 -34.11,67.32 -53.39,93.49 -16.95,22.99 -44.36,60.47 -60.3,76.29l-472.68 -2c-19.88,-21.66 -62.04,-96.04 -62.1,-134.56l-21.43 -48.29c-58.67,-220.73 -2.84,-456.84 147.92,-624.44 37.57,-41.77 25.31,-30.71 27.1,-99.14l247.16 1.14 -2.83 39.16 -186.33 2.82c-19.1,4.68 -5.63,-1.08 -17.51,8.19l-0.18 31.44c42.75,0 195.95,-7.35 224.05,4.2 12.58,5.18 115.26,90.28 125.99,100.97 67.18,66.95 131.47,174.7 143.14,311.19zm98.35 242.09l-67.14 2.12 -0.06 41.29c21.7,2.26 75.36,10.17 83.63,-10.43 29.99,-2.67 56.17,-26.46 67.29,-57.11 12.18,-33.58 6.28,-310.12 6.28,-357.41 0,-258.25 -39.23,-287.45 -41.47,-440.85l58.68 -7.95c15.77,-97.97 -53.67,-163.79 -118.09,-188.34 -43.12,-16.45 -97.03,-11.72 -145.38,-11.7 -24.54,0.02 -49.02,0.09 -73.55,-0.25l-55.65 5.27c-27.23,9.29 -18.07,83.85 -8.33,89.91 1.05,0.64 3.27,2.47 4.6,3.22 1.35,0.75 3.37,2.07 4.92,2.84 24.65,12.15 28.36,2.32 62.2,26.58 4.92,62.24 -33.13,74.14 -45.56,110.35l15.93 21.79c33.65,-8.94 52.59,-43.15 66.12,-80.11 24.33,35.32 10.63,26.66 70.62,26.86l-7.56 79.34 -31.8 98.77c-9.58,44.99 -14.09,32.05 -9.52,71.07l29.61 3.55c25.99,-50.87 26.04,-123.94 58.73,-169.97l86.44 1.1c11.88,59.91 23.3,120.35 33.35,180.57 9.25,55.45 4.39,139.85 4.45,199.98 0.07,68.52 -0.1,137.05 -0.03,205.57 0.08,70.76 17.36,132.92 -48.71,153.94zm-999.74 -147.39c-20.52,-31.77 -9.93,-184.13 -7.07,-233.36 25.31,0.57 9.59,-2.36 18.86,8.18l84.56 24.89 11.41 -33.86c-24.17,-15.55 -124.13,-55.62 -142.05,-41.87 -14.19,13.34 -6.41,-8.17 -11.76,26.94l0.07 228.23c3.88,80.93 57.87,118.55 144.4,105.76l-0.58 -35.98c-57.12,-9.03 -82.24,4.21 -97.84,-48.93zm37.8 -535.16c29.09,-50.67 128.03,-53.71 163.48,0 -12.92,34.84 -42.67,44.95 -84.59,44.11 -75.64,-1.56 -74.51,-36.98 -78.89,-44.11zm112.45 89.53c23.2,-15.96 37.03,-12.77 61.53,-31.05 24.57,-18.34 30.44,-34.95 30.53,-73.13 -58.22,-88.89 -169.33,-73.87 -218.87,-34.64 -40.31,31.9 -32.8,81.02 4.58,108.73 35.89,26.6 77.97,17.04 122.23,30.09zm531.89 154.58c112.34,1.52 153.97,352.04 83.7,375.33 -62.72,20.78 44.3,-132.88 -62.26,-296.03 -21.34,-32.69 -46.85,-45.39 -21.44,-79.3zm41.42 406.75c47.92,40.76 88.57,-1.26 101.41,-45.19 17.92,-61.27 9.25,-105.75 20.66,-158.46 -23.24,-38.2 -4.89,-80.91 -69.84,-181.2 -74.82,-115.49 -135.29,-47.27 -143.43,-21 -23.81,76.94 104.04,116.02 78.77,297.8 -7.37,53.02 -27.17,68.08 12.43,108.05zm-106.32 -38.71c-38.14,29.8 -59.42,57.31 -120.23,68.69 -164.83,30.81 -288.73,-144.21 -207.77,-287.92 19.63,-34.85 56.24,-70.97 102.71,-88.4 71.02,-26.65 90.93,-5.96 123.42,38.18 42.21,57.35 98.73,180.45 101.87,269.45zm-298.49 75.14c44.59,8.41 153.73,86.04 280.39,-6.92 19.94,-14.65 14.59,-18.03 31.58,-19.65 37.88,-56.36 34.96,-57.32 12.95,-137.61 -21.8,-79.54 -64.3,-176.08 -119.22,-233.46 -34.37,-35.9 -47.18,-48.92 -120.25,-32.01 -86.45,20 -155.8,92.08 -175.2,177.18 -12.44,54.57 -3.72,111.13 16.48,155.78 23.69,52.39 57.04,62.73 73.27,96.69zm-280.85 -850.45c-1.79,-45.79 16.31,-60.86 64.06,-60.79l44.05 0.07c40.27,0.07 56.27,21.98 55.46,61.2l-163.57 -0.48zm42.27 -143.48l79.64 0.6 -0.07 40.45 -81.19 0.17 1.62 -41.22zm38.21 996.77c-45.72,-18.71 -115.37,6.91 -167.51,-10.39 -47.81,-15.85 -37.87,-70.93 -37.75,-129.1 0.21,-109.95 -10.32,-224.47 19.27,-323.76 21.33,-71.58 27.8,-64.72 4.51,-135.15 -13.85,-41.9 -36.05,-87.65 -10.44,-127.59 8.17,-12.73 85.5,-75.89 91.42,-78.5 34.17,-15.07 122.9,-6.24 164.84,-6.34 50.49,0.6 59.63,28.03 96.65,47.5l18.53 -29.59c-18.77,-24.2 -35.85,-25.71 -45.84,-39.4 -20.17,-27.64 1.72,-40.75 -15.95,-72.36 -15.96,-28.51 -29.73,-9.17 -34.26,-56.62 -2.59,-27.15 1.63,-50.86 -6.25,-71.69 -28.37,-7.42 -49.61,-4.93 -79.02,-5.13 -10.11,-0.07 -35.76,-1.04 -44.26,0.12 -68.27,9.43 -9.85,67.01 -51.32,112.93 -37.12,41.12 -21.56,20.55 -27.25,89.93 -27.65,14.5 -26.26,18.67 -49.89,38.22 -17.85,14.76 -30.08,17.78 -44.77,36 -74.13,91.98 32.52,158.02 0.24,264.25 -42.87,141.06 -27.81,244.62 -27.81,408.56 0,66.5 19.36,105.09 73.91,119.36 19.76,5.17 147.78,9.67 174.07,-1.89l-1.12 -29.36zm806.03 -831.43l82.91 -0.28 0.47 41.92 -83.28 -0.84 -0.1 -40.8zm-116.87 -109.26c-57.89,-46.91 -60.79,-4.57 -67.4,-50.46 33.23,-14.73 173.38,-10.72 215.51,-1.89 63.43,13.29 99.36,54.9 111.38,120.53l-211.66 -0.1c-10.76,-34.56 -24.25,-48.97 -47.83,-68.08zm-397.76 68.07l163.44 0.07 0.42 82.53 -165.55 0.13 1.69 -82.73zm-97.36 184.48l-124.93 189.4c-1.06,51.17 -79.53,163.54 -54.47,379.85 12.34,106.56 63.54,256.41 123.12,317.6 41.19,4.81 483.97,6.17 505.56,0.02 25.09,-7.14 96.93,-110.59 112.19,-139.04 30.86,-57.57 53.81,-113.66 65.02,-185.12 61,-388.93 -271.66,-537.12 -281.5,-582.13 -11.39,-52.02 25.59,-80.57 -42.65,-82.68 -0.02,-42.64 9.83,-88.08 -18.23,-115.94 -39.32,-18.17 -177.71,-12.51 -219.19,0 -13.86,35.56 -9.86,59.61 -9.93,105.92l-15.85 8.53c-61.28,32.91 3.2,97.12 -39.14,103.59z"/>
 </g>
</svg>
