<?xml version="1.0" encoding="UTF-8"?>
<!DOCTYPE svg PUBLIC "-//W3C//DTD SVG 1.1//EN" "http://www.w3.org/Graphics/SVG/1.1/DTD/svg11.dtd">
<!-- Creator: CorelDRAW -->
<svg xmlns="http://www.w3.org/2000/svg" xml:space="preserve" width="35mm" height="35mm" version="1.1" style="shape-rendering:geometricPrecision; text-rendering:geometricPrecision; image-rendering:optimizeQuality; fill-rule:evenodd; clip-rule:evenodd"
viewBox="0 0 3500 3500"
 xmlns:xlink="http://www.w3.org/1999/xlink"
 xmlns:xodm="http://www.corel.com/coreldraw/odm/2003">
 <defs>
  <style type="text/css">
   <![CDATA[
    .fil1 {fill:#FEFEFE}
    .fil5 {fill:#2C675B}
    .fil4 {fill:url(#id0)}
    .fil0 {fill:url(#id1)}
    .fil3 {fill:url(#id2)}
    .fil6 {fill:url(#id3)}
    .fil2 {fill:url(#id4)}
   ]]>
  </style>
  <linearGradient id="id0" gradientUnits="userSpaceOnUse" x1="2224.72" y1="2709.61" x2="2080.66" y2="587.65">
   <stop offset="0" style="stop-opacity:1; stop-color:#2C665A"/>
   <stop offset="1" style="stop-opacity:1; stop-color:#019985"/>
  </linearGradient>
  <linearGradient id="id1" gradientUnits="userSpaceOnUse" xlink:href="#id0" x1="2103.77" y1="1765.11" x2="2047.27" y2="945.75">
  </linearGradient>
  <linearGradient id="id2" gradientUnits="userSpaceOnUse" xlink:href="#id0" x1="2346.49" y1="3095.33" x2="2170.15" y2="444.92">
  </linearGradient>
  <linearGradient id="id3" gradientUnits="userSpaceOnUse" xlink:href="#id0" x1="2100.54" y1="2373.11" x2="1986.8" y2="737.45">
  </linearGradient>
  <linearGradient id="id4" gradientUnits="userSpaceOnUse" xlink:href="#id0" x1="1730.56" y1="2192.32" x2="1678.4" y2="1363.21">
  </linearGradient>
 </defs>
 <g id="Слой_x0020_1">
  <metadata id="CorelCorpID_0Corel-Layer"/>
  <path class="fil0" d="M1527.42 825.25l729.11 0c13.12,0 23.79,10.77 23.79,23.83l0 972.73c0,13.07 -10.67,23.79 -23.79,23.79l-729.11 0c-13.12,0 -23.89,-10.72 -23.89,-23.79l0 -972.73c0,-13.06 10.77,-23.83 23.89,-23.83zm255.66 313.79l128.72 0c6.89,0 12.51,5.62 12.51,12.51 0,6.89 -5.62,12.5 -12.51,12.5l-128.72 0c-6.89,0 -12.51,-5.61 -12.51,-12.5 0,-6.89 5.62,-12.51 12.51,-12.51zm0 -44.71l270.67 0c6.89,0 12.5,5.62 12.5,12.51 0,6.89 -5.61,12.5 -12.5,12.5l-270.67 0c-6.89,0 -12.51,-5.61 -12.51,-12.5 0,-6.89 5.62,-12.51 12.51,-12.51zm0 -48.08l270.67 0c6.89,0 12.5,5.62 12.5,12.51 0,6.89 -5.61,12.5 -12.5,12.5l-270.67 0c-6.89,0 -12.51,-5.61 -12.51,-12.5 0,-6.89 5.62,-12.51 12.51,-12.51zm-85.49 -80.03l431.34 0c4.65,0 8.58,3.88 8.58,8.58l0 262.91c0,4.74 -3.93,8.62 -8.58,8.62l-431.34 0c-4.7,0 -8.68,-3.88 -8.68,-8.62l0 -262.91c0,-4.7 3.98,-8.58 8.68,-8.58zm29.35 24.45l372.59 0c3.98,0 7.1,3.16 7.1,7.09l0 217.08c0,3.83 -3.12,7.09 -7.1,7.09l-372.59 0c-3.93,0 -7.15,-3.26 -7.15,-7.09l0 -217.08c0,-3.93 3.22,-7.09 7.15,-7.09zm-122.86 -130.31l0 950.17 627.34 0c12.3,0 22.2,-9.95 22.2,-22.15l0 -905.81c0,-12.25 -9.9,-22.21 -22.2,-22.21l-627.34 0zm-27.97 950.17l0 -950.17 -23.68 0c-12.2,0 -22.15,9.96 -22.15,22.21l0 905.81c0,12.2 9.95,22.15 22.15,22.15l23.68 0z"/>
  <g id="_2243590705824">
   <rect class="fil1" x="1198.69" y="1262.48" width="671.48" height="987.29"/>
   <path class="fil2" d="M1202.85 1241.28l664.14 0c14.65,0 26.64,11.99 26.64,26.59l0 979.31c0,14.6 -11.99,26.6 -26.64,26.6l-664.14 0c-14.65,0 -26.59,-12 -26.59,-26.6l0 -44.5 -53.49 0c-7.45,0 -13.53,-6.08 -13.53,-13.43 0,-7.45 6.08,-13.52 13.53,-13.52l53.49 0 0 -38.54 -53.49 0c-7.45,0 -13.53,-6.12 -13.53,-13.57 0,-7.46 6.08,-13.48 13.53,-13.48l53.49 0 0 -42.57 -53.49 0c-7.45,0 -13.53,-6.07 -13.53,-13.52 0,-7.4 6.08,-13.43 13.53,-13.43l53.49 0 0 -38.63 -53.49 0c-7.45,0 -13.53,-6.03 -13.53,-13.43 0,-7.5 6.08,-13.52 13.53,-13.52l53.49 0 0 -37.88 -53.49 0c-7.45,0 -13.53,-6.07 -13.53,-13.57 0,-7.35 6.08,-13.43 13.53,-13.43l53.49 0 0 -38.58 -53.49 0c-7.45,0 -13.53,-6.08 -13.53,-13.53 0,-7.45 6.08,-13.47 13.53,-13.47l53.49 0 0 -40.07 -53.49 0c-7.45,0 -13.53,-6.07 -13.53,-13.53 0,-7.45 6.08,-13.47 13.53,-13.47l53.49 0 0 -38.59 -53.49 0c-7.45,0 -13.53,-6.02 -13.53,-13.52 0,-7.35 6.08,-13.43 13.53,-13.43l53.49 0 0 -37.97 -53.49 0c-7.45,0 -13.53,-6.07 -13.53,-13.42 0,-7.46 6.08,-13.58 13.53,-13.58l53.49 0 0 -38.49 -53.49 0c-7.45,0 -13.53,-6.07 -13.53,-13.52 0,-7.4 6.08,-13.48 13.53,-13.48l53.49 0 0 -41.19 -53.49 0c-7.45,0 -13.53,-6.12 -13.53,-13.52 0,-7.4 6.08,-13.53 13.53,-13.53l53.49 0 0 -38.53 -53.49 0c-7.45,0 -13.53,-6.08 -13.53,-13.53 0,-7.35 6.08,-13.42 13.53,-13.42l53.49 0 0 -37.98 -53.49 0c-7.45,0 -13.53,-6.02 -13.53,-13.47 0,-7.45 6.08,-13.53 13.53,-13.53l53.49 0 0 -38.58 -53.49 0c-7.45,0 -13.53,-6.08 -13.53,-13.43 0,-7.4 6.08,-13.47 13.53,-13.47l53.49 0 0 -49.46c0,-14.6 11.94,-26.59 26.59,-26.59zm17.15 76.05l16.9 0c7.4,0 13.42,6.07 13.42,13.47 0,7.35 -6.02,13.43 -13.42,13.43l-16.9 0 0 38.58 16.9 0c7.4,0 13.42,6.08 13.42,13.53 0,7.45 -6.02,13.47 -13.42,13.47l-16.9 0 0 37.98 16.9 0c7.4,0 13.42,6.07 13.42,13.42 0,7.45 -6.02,13.53 -13.42,13.53l-16.9 0 0 38.53 16.9 0c7.4,0 13.42,6.13 13.42,13.53 0,7.4 -6.02,13.52 -13.42,13.52l-16.9 0 0 41.19 16.9 0c7.4,0 13.42,6.08 13.42,13.48 0,7.45 -6.02,13.52 -13.42,13.52l-16.9 0 0 38.49 16.9 0c7.4,0 13.42,6.12 13.42,13.58 0,7.35 -6.02,13.42 -13.42,13.42l-16.9 0 0 37.97 16.9 0c7.4,0 13.42,6.08 13.42,13.43 0,7.5 -6.02,13.52 -13.42,13.52l-16.9 0 0 38.59 16.9 0c7.4,0 13.42,6.02 13.42,13.47 0,7.46 -6.02,13.53 -13.42,13.53l-16.9 0 0 40.07 16.9 0c7.4,0 13.42,6.02 13.42,13.47 0,7.45 -6.02,13.53 -13.42,13.53l-16.9 0 0 38.58 16.9 0c7.4,0 13.42,6.08 13.42,13.43 0,7.5 -6.02,13.57 -13.42,13.57l-16.9 0 0 37.88 16.9 0c7.4,0 13.42,6.02 13.42,13.52 0,7.4 -6.02,13.43 -13.42,13.43l-16.9 0 0 38.63 16.9 0c7.4,0 13.42,6.03 13.42,13.43 0,7.45 -6.02,13.52 -13.42,13.52l-16.9 0 0 42.57 16.9 0c7.4,0 13.42,6.02 13.42,13.48 0,7.45 -6.02,13.57 -13.42,13.57l-16.9 0 0 38.54 16.9 0c7.4,0 13.42,6.07 13.42,13.52 0,7.35 -6.02,13.43 -13.42,13.43l-16.9 0 0 9.08c0,13.07 10.67,23.74 23.68,23.74l591.05 0c13.02,0 23.69,-10.67 23.69,-23.74l0 -908.52c0,-13.06 -10.67,-23.73 -23.69,-23.73l-591.05 0c-13.01,0 -23.68,10.67 -23.68,23.73l0 14.09zm269.24 345.95l115.1 0c6.89,0 12.5,5.62 12.5,12.51 0,6.89 -5.61,12.5 -12.5,12.5l-115.1 0c-6.89,0 -12.51,-5.61 -12.51,-12.5 0,-6.89 5.62,-12.51 12.51,-12.51zm-53.49 -60.43l222.13 0c6.89,0 12.5,5.61 12.5,12.5 0,6.89 -5.61,12.51 -12.5,12.51l-222.13 0c-6.89,0 -12.51,-5.62 -12.51,-12.51 0,-6.89 5.62,-12.5 12.51,-12.5zm-34.45 -54.41l291.03 0c6.89,0 12.5,5.61 12.5,12.51 0,6.89 -5.61,12.5 -12.5,12.5l-291.03 0c-6.89,0 -12.51,-5.61 -12.51,-12.5 0,-6.9 5.62,-12.51 12.51,-12.51zm0 -54.41l291.03 0c6.89,0 12.5,5.62 12.5,12.51 0,6.89 -5.61,12.5 -12.5,12.5l-291.03 0c-6.89,0 -12.51,-5.61 -12.51,-12.5 0,-6.89 5.62,-12.51 12.51,-12.51zm-81.26 -83.81l458.91 0c7.75,0 14.03,6.28 14.03,13.99l0 348.6c0,7.66 -6.28,13.94 -14.03,13.94l-458.91 0c-7.66,0 -13.88,-6.28 -13.88,-13.94l0 -348.6c0,-7.71 6.22,-13.99 13.88,-13.99zm31.65 34.15l395.71 0c6.33,0 11.38,5.1 11.38,11.38l0 285.42c0,6.28 -5.05,11.43 -11.38,11.43l-395.71 0c-6.28,0 -11.44,-5.15 -11.44,-11.43l0 -285.42c0,-6.28 5.16,-11.38 11.44,-11.38z"/>
  </g>
  <path class="fil3" d="M531.17 2641.52l54.9 0c0,-599.69 0,-1529.05 0,-2128.73 0,-157.55 -23.55,-293.91 117.19,-336.36 56.81,-17.13 1553.91,-7.01 1784.94,-7.01 67.57,0 149.47,-10.57 207.55,19.11 44.28,22.62 80.6,65.32 86.7,132.04 11.89,129.91 1.05,317.06 1.05,453.15l-0.07 2237.35c0.5,120.82 -14.22,192.64 -112,225.91 -53.29,18.13 -892.03,8.82 -986.64,8.82 -98.97,0 -934.83,10.8 -991.82,-10.68 -93.48,-35.24 -107.32,-104.04 -106.82,-224.05l-0.47 -369.55 -54.51 0 -54.93 -0.04c0,114.45 0,228.89 0,343.34 0,141.82 -4.01,205.17 70.24,279.96 74.75,75.3 107.59,90.88 252.49,90.85l1737.3 0c140.83,0 195.61,0.51 269.63,-73.71 78.78,-79 87.44,-112.05 87.44,-262.76l0 -2080.63c0,-127.48 14.1,-604.52 -9.48,-684.07 -23.91,-80.65 -89.82,-148.96 -164.86,-178.47 -83.37,-32.79 -226.85,-16.41 -333.8,-16.41 -462.36,0 -924.73,0 -1387.09,0 -179.75,0 -429.58,-49.84 -509.15,184.4 -25.62,75.43 -12.72,561.83 -12.72,680.81 0,462.36 0,1254.4 0,1716.76l54.93 -0.03z"/>
  <path class="fil4" d="M750.85 2599.05l54.96 0 0.03 -2209.9 1757.93 0 -0.04 2417.17 -1757.92 0 0 -207.27 -54.96 0 -54.84 0c0,323.31 -43.09,317.07 281.5,317.07 231.79,0 1634.47,6.89 1663.03,-5.72 38.3,-16.91 33.24,-64.05 33.06,-110.97l-0.03 -2362.18c0.01,-130.9 22.41,-158.45 -116.69,-157.93l-1668.64 0.03c-110.05,0 -192.87,-31.75 -192.46,89l0.23 2230.71 54.84 -0.01z"/>
  <polygon class="fil5" points="1410.15,3081.75 1410.15,3135.85 1959.46,3135.85 1959.43,3081.75 1959.46,3026.06 1410.15,3026.06 "/>
  <path class="fil6" d="M2179.23 2531.58c319.5,0 274.6,44.91 274.64,-274.6l-109.84 0 -0.25 164.8 -164.55 0 0 109.8zm0 -1922.69l164.8 0 0 164.8 109.84 0 -0.04 -199.1c0,-54.77 -20.74,-75.5 -75.5,-75.5l-199.13 0 0.03 109.8zm-1263.48 164.8l109.79 0 0 -164.8 165.7 0 -0.89 -109.8c-319.75,0 -274.6,-45.12 -274.6,274.6zm253.03 1757.89c-319.5,0 -274.6,44.91 -274.64,-274.6l109.83 0 0.25 164.8 164.56 0 0 109.8z"/>
 </g>
</svg>
