<?xml version="1.0" encoding="UTF-8"?>
<!DOCTYPE svg PUBLIC "-//W3C//DTD SVG 1.1//EN" "http://www.w3.org/Graphics/SVG/1.1/DTD/svg11.dtd">
<!-- Creator: CorelDRAW -->
<svg xmlns="http://www.w3.org/2000/svg" xml:space="preserve" width="35mm" height="35mm" version="1.1" style="shape-rendering:geometricPrecision; text-rendering:geometricPrecision; image-rendering:optimizeQuality; fill-rule:evenodd; clip-rule:evenodd"
viewBox="0 0 3500 3500"
 xmlns:xlink="http://www.w3.org/1999/xlink"
 xmlns:xodm="http://www.corel.com/coreldraw/odm/2003">
 <defs>
  <style type="text/css">
   <![CDATA[
    .fil2 {fill:#2C675B}
    .fil4 {fill:url(#id0)}
    .fil0 {fill:url(#id1)}
    .fil1 {fill:url(#id2)}
    .fil3 {fill:url(#id3)}
   ]]>
  </style>
  <linearGradient id="id0" gradientUnits="userSpaceOnUse" x1="2193.86" y1="2160.68" x2="2103.72" y2="1041.41">
   <stop offset="0" style="stop-opacity:1; stop-color:#2C665A"/>
   <stop offset="1" style="stop-opacity:1; stop-color:#019985"/>
  </linearGradient>
  <linearGradient id="id1" gradientUnits="userSpaceOnUse" xlink:href="#id0" x1="2483.86" y1="3108.91" x2="2307.53" y2="458.5">
  </linearGradient>
  <linearGradient id="id2" gradientUnits="userSpaceOnUse" xlink:href="#id0" x1="2362.1" y1="2723.19" x2="2218.04" y2="601.23">
  </linearGradient>
  <linearGradient id="id3" gradientUnits="userSpaceOnUse" xlink:href="#id0" x1="2237.92" y1="2386.69" x2="2124.17" y2="751.03">
  </linearGradient>
 </defs>
 <g id="Слой_x0020_1">
  <metadata id="CorelCorpID_0Corel-Layer"/>
  <path class="fil0" d="M668.55 2655.1l54.9 0c0,-599.69 0,-1529.05 0,-2128.73 0,-157.55 -23.56,-293.91 117.19,-336.36 56.81,-17.13 1553.9,-7.01 1784.93,-7.01 67.57,0 149.48,-10.57 207.55,19.11 44.28,22.62 80.6,65.32 86.71,132.04 11.88,129.91 1.05,317.06 1.05,453.15l-0.07 2237.35c0.49,120.82 -14.23,192.64 -112.01,225.91 -53.28,18.13 -892.02,8.82 -986.64,8.82 -98.97,0 -934.83,10.8 -991.82,-10.68 -93.48,-35.24 -107.31,-104.04 -106.82,-224.05l-0.47 -369.55 -54.5 0 -54.94 -0.04c0,114.45 0,228.89 0,343.34 0,141.82 -4.01,205.17 70.24,279.96 74.75,75.3 107.59,90.88 252.5,90.85l1737.29 0c140.84,0 195.61,0.51 269.63,-73.71 78.79,-79 87.45,-112.05 87.44,-262.76l0 -2080.63c0,-127.48 14.1,-604.52 -9.48,-684.07 -23.91,-80.65 -89.82,-148.96 -164.86,-178.47 -83.37,-32.79 -226.84,-16.41 -333.8,-16.41 -462.36,0 -924.72,0 -1387.08,0 -179.76,0 -429.58,-49.84 -509.15,184.4 -25.63,75.43 -12.73,561.83 -12.73,680.81 0,462.36 0,1254.4 0,1716.76l54.94 -0.03z"/>
  <path class="fil1" d="M888.23 2612.63l54.95 0 0.04 -2209.9 1757.92 0 -0.03 2417.17 -1757.93 0 0 -207.27 -54.95 0 -54.85 0c0,323.31 -43.09,317.07 281.51,317.07 231.78,0 1634.47,6.89 1663.02,-5.72 38.3,-16.91 33.24,-64.05 33.06,-110.97l-0.03 -2362.18c0.01,-130.9 22.42,-158.45 -116.68,-157.93l-1668.64 0.03c-110.05,0 -192.87,-31.75 -192.47,89l0.23 2230.71 54.85 -0.01z"/>
  <polygon class="fil2" points="1547.53,3095.33 1547.53,3149.43 2096.83,3149.43 2096.8,3095.33 2096.83,3039.64 1547.53,3039.64 "/>
  <path class="fil3" d="M2316.61 2545.16c319.49,0 274.59,44.91 274.63,-274.6l-109.83 0 -0.25 164.8 -164.55 0 0 109.8zm0 -1922.69l164.8 0 0 164.8 109.83 0 -0.04 -199.1c0,-54.77 -20.73,-75.5 -75.49,-75.5l-199.14 0 0.04 109.8zm-1263.49 164.8l109.8 0 0 -164.8 165.69 0 -0.89 -109.8c-319.74,0 -274.6,-45.12 -274.6,274.6zm253.03 1757.89c-319.5,0 -274.6,44.91 -274.63,-274.6l109.83 0 0.25 164.8 164.55 0 0 109.8z"/>
  <path class="fil4" d="M1490.94 1753.18c152.92,0 147.08,6.65 146.18,-146.18l75.88 2.05c-0.73,97.44 -11.72,133.97 34.4,143.55l111.22 1.33 -1.54 73.92c-24.12,0.6 -47.41,-0.19 -71.22,0.06 -95.09,0.91 -71.28,38.19 -73.73,145.37l-74.15 0.94 -3.33 -118.62c-11.24,-38.54 -82.71,-27.29 -142.3,-26.82l-1.41 -75.6zm79.06 -192.02l-2.85 122.77 -120.15 2.14c-54.48,34.26 -17.7,200.06 -17.53,200.3 32.36,21.57 85.53,11 138.07,14.71 -0.58,44.11 -4.71,96.34 6.88,130.23 19.12,26.24 177.16,12.57 205.66,6.27l2.91 -137.18 138.71 -7.88c7.2,-29.39 7.45,-67.58 7.54,-104.29 0.23,-115.71 11.17,-106.36 -144.17,-104.92 -3.61,-51.28 7.15,-120.48 -14.83,-137.77 -0.88,-0.69 -172.9,-33.47 -200.24,15.62zm693.32 624.5c-174.65,45.2 -303.02,-173.47 -166.29,-307.1 5.21,5.22 4.82,2.6 16.49,17.27l149.8 289.83zm-94.06 -353.24c209.89,-28.09 304.86,173.58 176.29,307.78 -4.47,-4.24 -7.87,-6.53 -15.37,-16l-34.89 -57.53c-31.6,-57.51 -119.54,-197.12 -126.03,-234.25zm-852.78 -661.47c-12.13,-43.39 -10.95,-170.83 -1.14,-216.16 117.66,-12.8 295.15,-2.51 419.29,-2.51 366.34,0 306.03,-26.14 306.11,111.15 0.04,119.17 21.63,111 -98.97,110.28 -148.08,-0.83 -529.63,9.51 -625.29,-2.76zm66.18 79.34c12.09,-9.93 -19.3,-12.51 72.24,-11.55 112.19,1.1 456.91,-7.36 515.54,5.44l0.7 126.51c70.77,61.41 69.73,57.22 69.6,179.42 -0.14,78.33 6.15,183.31 0.38,258.17 -4.22,54.37 -67.19,73.15 -72.95,186.75 -4.71,93.17 31.19,143.8 71.43,197.15l-729.1 -2.29 -0.21 -507 -72.69 0.15c0,114.45 0,228.89 0,343.39 0,303.93 -68.36,238.15 776.59,238.15 105.34,0 223.87,14.99 315.92,-25.59 159.01,-70.12 208.79,-302.46 41.1,-434.93 -92.95,-73.42 -155.78,-41.12 -260.57,-29.19l-3.04 -371.96c-81.69,-65.51 -70.39,-67.17 -68.71,-153.1l70.91 -49.47 -4.07 -273.6 -35.19 -40.03c-185.53,-19.47 -452.26,-4.12 -646.56,-4.2 -146.85,-0.09 -187.09,-18.31 -186.47,139.43 0.15,40.8 -4.26,117.13 2.43,153.53 11.89,65.03 47.25,40.27 71.49,84.69l-1.68 85.45 -72.46 66.26 5 195.56 66.69 0.73 1.31 -151.25c20.92,-123.16 327.56,-44.88 545.88,-71.06l0.48 -66.25 -472.06 -0.56 -1.93 -68.75z"/>
 </g>
</svg>
