<?xml version="1.0" encoding="UTF-8"?>
<!DOCTYPE svg PUBLIC "-//W3C//DTD SVG 1.1//EN" "http://www.w3.org/Graphics/SVG/1.1/DTD/svg11.dtd">
<!-- Creator: CorelDRAW -->
<svg xmlns="http://www.w3.org/2000/svg" xml:space="preserve" width="35mm" height="35mm" version="1.1" style="shape-rendering:geometricPrecision; text-rendering:geometricPrecision; image-rendering:optimizeQuality; fill-rule:evenodd; clip-rule:evenodd"
viewBox="0 0 3500 3500"
 xmlns:xlink="http://www.w3.org/1999/xlink"
 xmlns:xodm="http://www.corel.com/coreldraw/odm/2003">
 <defs>
  <style type="text/css">
   <![CDATA[
    .fil0 {fill:url(#id0)}
   ]]>
  </style>
  <linearGradient id="id0" gradientUnits="userSpaceOnUse" x1="1984.1" y1="1781.05" x2="1920.99" y2="1377.99">
   <stop offset="0" style="stop-opacity:1; stop-color:#2C665A"/>
   <stop offset="1" style="stop-opacity:1; stop-color:#019985"/>
  </linearGradient>
 </defs>
 <g id="Слой_x0020_1">
  <metadata id="CorelCorpID_0Corel-Layer"/>
  <path class="fil0" d="M1747.44 1318.72c239.62,0 433.88,194.26 433.88,433.88 0,239.62 -194.26,433.88 -433.88,433.88 -239.62,0 -433.88,-194.26 -433.88,-433.88 0,-239.62 194.26,-433.88 433.88,-433.88zm435.2 -127.16l212.27 -212.27c34.57,-34.57 91.14,-34.57 125.71,0l0.07 0.07c34.57,34.57 34.57,91.14 0,125.71l-212.27 212.27c-34.57,34.57 -91.14,34.57 -125.71,0l-0.07 -0.07c-34.57,-34.57 -34.57,-91.14 0,-125.71zm-346.31 -443.62l0 300.19c0,48.89 -40,88.89 -88.89,88.89l-0.09 0c-48.89,0 -88.89,-40 -88.89,-88.89l0 -300.19c0,-48.89 40,-88.89 88.89,-88.89l0.09 0c48.89,0 88.89,40 88.89,88.89zm-736.44 231.37l212.26 212.26c34.57,34.57 34.57,91.14 0,125.71l-0.06 0.07c-34.57,34.57 -91.14,34.57 -125.71,0l-212.27 -212.27c-34.57,-34.57 -34.57,-91.14 0,-125.71l0.06 -0.06c34.58,-34.57 91.14,-34.57 125.72,0zm-357.15 684.34l300.19 0c48.89,0 88.89,40 88.89,88.89l0 0.09c0,48.89 -40,88.89 -88.89,88.89l-300.19 0c-48.89,0 -88.89,-40 -88.89,-88.89l0 -0.09c0,-48.89 40,-88.89 88.89,-88.89zm231.37 736.44l212.27 -212.27c34.57,-34.57 91.14,-34.57 125.71,0l0.07 0.07c34.57,34.57 34.57,91.14 0,125.71l-212.27 212.27c-34.57,34.57 -91.14,34.57 -125.71,0l-0.07 -0.07c-34.57,-34.57 -34.57,-91.14 0,-125.71zm862.22 56.97l0 300.19c0,48.89 -40,88.89 -88.89,88.89l-0.09 0c-48.89,0 -88.89,-40 -88.89,-88.89l0 -300.19c0,-48.89 40,-88.89 88.89,-88.89l0.09 0c48.89,0 88.89,40 88.89,88.89zm472.09 -269.22l212.26 212.26c34.57,34.57 34.57,91.14 0,125.71l-0.06 0.07c-34.57,34.57 -91.14,34.57 -125.71,0l-212.27 -212.27c-34.57,-34.57 -34.57,-91.14 0,-125.71l0.07 -0.06c34.57,-34.57 91.14,-34.57 125.71,0zm143.44 -524.19l300.19 0c48.89,0 88.89,40 88.89,88.89l0 0.09c0,48.89 -40,88.89 -88.89,88.89l-300.19 0c-48.89,0 -88.89,-40 -88.89,-88.89l0 -0.09c0,-48.89 40,-88.89 88.89,-88.89z"/>
 </g>
</svg>
