<?xml version="1.0" encoding="UTF-8"?>
<!DOCTYPE svg PUBLIC "-//W3C//DTD SVG 1.1//EN" "http://www.w3.org/Graphics/SVG/1.1/DTD/svg11.dtd">
<!-- Creator: CorelDRAW -->
<svg xmlns="http://www.w3.org/2000/svg" xml:space="preserve" width="35mm" height="35mm" version="1.1" style="shape-rendering:geometricPrecision; text-rendering:geometricPrecision; image-rendering:optimizeQuality; fill-rule:evenodd; clip-rule:evenodd"
viewBox="0 0 3500 3500"
 xmlns:xlink="http://www.w3.org/1999/xlink"
 xmlns:xodm="http://www.corel.com/coreldraw/odm/2003">
 <defs>
  <style type="text/css">
   <![CDATA[
    .fil0 {fill:url(#id0)}
   ]]>
  </style>
  <linearGradient id="id0" gradientUnits="userSpaceOnUse" x1="1962.58" y1="1777.68" x2="1905.21" y2="1422.38">
   <stop offset="0" style="stop-opacity:1; stop-color:#2C665A"/>
   <stop offset="1" style="stop-opacity:1; stop-color:#019985"/>
  </linearGradient>
 </defs>
 <g id="Слой_x0020_1">
  <metadata id="CorelCorpID_0Corel-Layer"/>
  <path class="fil0" d="M1161.13 1908.87c453.25,-90.82 582.38,597.32 135.48,687.56 -457.64,92.41 -597.26,-595.04 -135.48,-687.56zm739.41 375.12c-9.21,-80.56 34.58,-98.03 71.14,-134.57 353.07,-352.96 267.52,-348.87 523.52,-92.88 34.92,34.92 62.67,62.71 97.55,97.68 122.55,122.86 84.14,113.22 -116.73,314.08 -237.8,237.8 -142.69,251.3 -575.48,-184.31zm331.6 -483.03c-64.32,23.03 -284.13,256.36 -356.41,330.57 -150.54,154.58 22.86,264.62 170.89,412.65 254.23,254.23 229.28,251.08 637.22,-170.61 150.08,-155.13 -23.69,-265.7 -170.87,-412.88 -92.49,-92.48 -165.45,-201.04 -280.83,-159.73zm-213.89 -868.07c40.41,-19.3 239.54,-7.93 300.53,-7.93 313.71,0 273.34,-40.88 273.34,351.43 0,84.69 25.54,232.45 -46.57,265.72 -31.8,14.67 -253.06,7.63 -304.86,7.63 -84.75,0 -232.49,25.47 -265.76,-46.54 -14.6,-31.59 -7.59,-253.25 -7.59,-304.89 0,-98.69 -25.61,-228.89 50.91,-265.42zm-11.26 -79.55c-126,36.58 -117.66,134.64 -117.66,276.64 0.01,424.15 -56.19,497.77 283.03,497.77 424.11,0 497.78,56.06 497.77,-283.03 0,-424.53 55.95,-497.77 -283.02,-497.77 -74.57,0 -328.44,-8.61 -380.12,6.39zm-777.8 58.55l360.12 637.85 -728.69 -1.2 368.57 -636.65zm-403.84 715.86l800.4 0c111.01,0 69.31,-60.82 29.35,-126.94l-354.43 -621.7c-80.73,-138.67 -82.07,-130.66 -212.83,113.3l-312.12 546.63c-36.51,62.63 -33.9,88.71 49.63,88.71zm327.24 203.65c-254.08,50.05 -392.44,277.85 -348.64,500.96 80.22,408.63 591.2,441.42 765.94,176.62 242.51,-367.51 -81.21,-743.78 -417.3,-677.58z"/>
 </g>
</svg>
