<?xml version="1.0" encoding="UTF-8"?>
<!DOCTYPE svg PUBLIC "-//W3C//DTD SVG 1.1//EN" "http://www.w3.org/Graphics/SVG/1.1/DTD/svg11.dtd">
<!-- Creator: CorelDRAW -->
<svg xmlns="http://www.w3.org/2000/svg" xml:space="preserve" width="35mm" height="35mm" version="1.1" style="shape-rendering:geometricPrecision; text-rendering:geometricPrecision; image-rendering:optimizeQuality; fill-rule:evenodd; clip-rule:evenodd"
viewBox="0 0 3500 3500"
 xmlns:xlink="http://www.w3.org/1999/xlink"
 xmlns:xodm="http://www.corel.com/coreldraw/odm/2003">
 <defs>
  <style type="text/css">
   <![CDATA[
    .fil0 {fill:url(#id0)}
   ]]>
  </style>
  <linearGradient id="id0" gradientUnits="userSpaceOnUse" x1="1901.4" y1="1798.76" x2="1844.58" y2="1457.65">
   <stop offset="0" style="stop-opacity:1; stop-color:#2C665A"/>
   <stop offset="1" style="stop-opacity:1; stop-color:#019985"/>
  </linearGradient>
 </defs>
 <g id="Слой_x0020_1">
  <metadata id="CorelCorpID_0Corel-Layer"/>
  <path class="fil0" d="M2147.22 1301.03c-38.81,-17.86 -63.45,-71.95 -16.83,-100.18 58.77,-35.6 91.29,19.29 81.79,74.95 -24.33,-15.7 -44.17,-69.69 -73.19,-35.27 -15.36,33.74 -0.01,28.2 8.23,60.5zm-651.07 532.76c28.68,7.75 65.42,22.99 82.62,41.11 -16.08,18.62 -22.19,27.8 -47.93,41.05l-34.69 -82.16zm45.37 223.99l32.77 -4.61c9.13,-38.39 -5.71,-44.24 -15.43,-78.49l80 -79.23c36.08,15.24 47.17,30.45 74.89,11.99l7.32 -36.94c-21.11,-12.02 -269.98,-131.53 -293.52,-117.47 -31.39,41.87 12.84,102.96 35.85,152.57 20.03,43.19 44.5,129.28 78.12,152.18zm-295.41 -37.75c16.76,-32.79 34.67,-47.54 81.87,-32.72 14.02,46.86 -0.56,64.33 -32.66,81.58 -22.8,-12.63 -36.46,-26.03 -49.21,-48.86zm-73.1 0c16.75,28.82 7.24,19.85 31.92,44.25l111.6 111.5c104.48,104.52 112.24,29.74 70.2,-8.56 -30.77,-28.04 -22.66,-19.31 -32.94,-43.12 56.8,2.48 195.94,32.2 139.16,-48.4l-111.96 -9.07c53.84,-191.9 -166.29,-170.8 -207.98,-46.6zm666.38 -587.11c23.58,-22.44 61.59,-75.27 124.94,-27.88 74.49,55.72 68.75,110.47 6.49,161.48l-131.43 -133.6zm-70.49 2.39c13.63,32.84 77.27,81.48 101.34,109.84 21.7,25.56 80.85,109.16 120.29,90.46 23.54,-24.9 74.99,-67.42 83.66,-115.3 20.25,-111.82 -104.64,-217.16 -201.46,-184.72 -34.1,11.43 -92.59,69.96 -103.83,99.72zm-80.3 54.17c-8.63,47.71 20.13,57.5 46.59,82.98 24.76,23.86 50.2,42.85 68.52,70.33 -90.87,-7.36 -231.52,-64.62 -243.41,-15.13 -5.42,22.52 131.8,147.65 163.23,179.58 17.16,17.43 43.14,59.14 66.89,22.45 13.1,-36.52 -20.98,-55.07 -43.02,-77.09 -24.34,-24.31 -48.75,-43.61 -67.39,-70.75 63.26,5.21 172.79,44.32 229.8,29.07 26.09,-58.46 -60.9,-90 -143.93,-192.19 -4.31,-5.3 -26.8,-27.96 -31.17,-30.47 -12.91,-7.41 -36.04,-10.27 -46.11,1.22zm-543.59 795.26c19.28,-19.19 29.53,-34.92 57.99,-50.94 39.11,1.71 46.6,8.2 47.55,47.81 -16.18,27.77 -31.95,38.78 -50.74,58l-54.8 -54.87zm-82.91 -91.05c28.37,-20.51 37.69,-44.69 77.43,-18.83 4.56,42.17 -16.91,45.85 -36.55,65.66 -17.78,-12.82 -29.01,-21.37 -40.88,-46.83zm-70.57 3.29c4.51,38.21 64.43,85.18 103.06,123.8 46.6,46.59 85.98,103.61 123.87,84.28 59.74,-30.46 180.75,-201.41 -20.78,-232.72 -36.62,-119.54 -160.85,-63.9 -206.15,24.64zm-117.18 71.67c-23.91,46.76 25.21,73.51 54.33,102.64l253.86 253.94c87.16,87.86 121.8,105.14 210.83,16.01l511.61 -511.64c23.09,-23.1 336.38,-315.78 326.86,-348.07 -17.5,-59.38 -101.2,44.14 -112.11,55.05l-565.51 565.44c-57.02,57.01 -108.4,108.4 -165.41,165.42 -110.11,110.11 -59.04,119.03 -336.39,-158.32 -57.29,-57.29 -129.23,-151.72 -178.07,-140.47zm1326.88 -1262.75c10.15,-21.39 -5.87,-0.86 17.07,-24.94 188.13,-197.51 487.78,30.68 372.12,256.8 -22.44,43.87 -90.01,124.67 -159.89,116.71 -17.91,-81.31 -34.54,-159.43 -52.32,-240.14 -19.37,-87.86 -82.36,-95.23 -176.98,-108.43zm-59.07 -16.13c-68.52,-6.65 -249.86,-66.93 -302.47,-48.63 -46.95,16.34 -958.72,960.04 -1096.92,1088 -106.1,98.22 36.85,193.44 47.62,195.74 21.87,4.69 23.67,-4.4 30.6,-10.35 20.02,-50.86 -42.05,-55.97 -60.04,-109.87 -0.6,-26.9 234.16,-249.25 267.34,-282.43 82.57,-82.57 813.32,-823.35 836.36,-828.39 11.01,-2.41 433.46,82.02 446.58,102.96l62.08 265.3c-57.34,-2.85 -88.7,-19.8 -121.7,-42.72 75.62,-168.94 -80.05,-211.63 -152.6,-165.14 -37.73,24.18 -67.14,82.42 -41.03,141.8 23.97,54.5 71.82,66.33 145.19,60.89 68.7,42.93 80.67,56.79 182.15,65.5 32.09,115.39 32.74,116.17 -15.57,164.08 -48.77,48.36 -115.27,94.96 -88.26,123.87 2.67,2.5 -8.73,12.35 21.19,10.74 22.74,-1.22 101.32,-90.45 117.79,-106.96 76.83,-76.98 37.93,-86.05 26.39,-194.23 61.48,-36.98 136.32,-37.98 199.25,-165 85.06,-171.68 -40.5,-415.85 -273.93,-405.43 -109.68,4.9 -200.28,73.34 -230.02,140.27z"/>
 </g>
</svg>
