<?xml version="1.0" encoding="UTF-8"?>
<!DOCTYPE svg PUBLIC "-//W3C//DTD SVG 1.1//EN" "http://www.w3.org/Graphics/SVG/1.1/DTD/svg11.dtd">
<!-- Creator: CorelDRAW -->
<svg xmlns="http://www.w3.org/2000/svg" xml:space="preserve" width="35mm" height="35mm" version="1.1" style="shape-rendering:geometricPrecision; text-rendering:geometricPrecision; image-rendering:optimizeQuality; fill-rule:evenodd; clip-rule:evenodd"
viewBox="0 0 3500 3500"
 xmlns:xlink="http://www.w3.org/1999/xlink"
 xmlns:xodm="http://www.corel.com/coreldraw/odm/2003">
 <defs>
  <style type="text/css">
   <![CDATA[
    .fil0 {fill:url(#id0)}
   ]]>
  </style>
  <linearGradient id="id0" gradientUnits="userSpaceOnUse" x1="1991.57" y1="1781.89" x2="1926.47" y2="1367.01">
   <stop offset="0" style="stop-opacity:1; stop-color:#2C665A"/>
   <stop offset="1" style="stop-opacity:1; stop-color:#019985"/>
  </linearGradient>
 </defs>
 <g id="Слой_x0020_1">
  <metadata id="CorelCorpID_0Corel-Layer"/>
  <path class="fil0" d="M1865.83 1721.57c36.85,-15.25 642.27,-6.88 768.05,-6.93 100.82,-0.04 161,-14.37 162.69,98.98l-0.27 765.08c0,77.6 17.8,193.52 -42.64,216.66 -38.43,14.72 -644.73,7.25 -770.42,7.31 -104.53,0.04 -161.33,15.04 -162.68,-100.77l0.25 -765.05c0,-79.71 -19,-188.8 45.02,-215.28zm102.16 992.84c53.51,48.56 81.39,-3.01 159.94,-81.57 11.57,-11.57 20.22,-20.43 25.01,-29.01 14.63,-26.22 -7.9,-69.94 -53.86,-41.87 -35.46,21.65 -61.63,71.39 -93.9,93.52 -30.93,-15.61 -54.52,-62.74 -85.52,-24.52 -21.02,25.91 13.03,59.15 48.33,83.45zm292.86 -23.49c166.37,4.65 305.47,8.03 366.4,8.03 59.12,-5.01 46.21,-79.63 -2.17,-74.93l-358.93 -6.36c-53.22,-0.53 -50.69,71.99 -5.3,73.26zm-292.86 -223.58c53.51,48.57 81.39,-3.01 159.94,-81.56 11.57,-11.58 20.22,-20.43 25.01,-29.02 14.63,-26.22 -7.9,-69.93 -53.86,-41.87 -35.46,21.66 -61.63,71.4 -93.9,93.52 -30.93,-15.61 -54.52,-62.73 -85.52,-24.51 -21.02,25.91 13.03,59.14 48.33,83.44zm292.86 -23.49c166.37,4.65 305.47,8.03 366.4,8.03 59.12,-5.01 46.21,-79.63 -2.17,-74.93l-358.93 -6.36c-53.22,-0.53 -50.69,72 -5.3,73.26zm-292.86 -204.07c53.51,48.57 81.39,-3.01 159.94,-81.56 11.57,-11.58 20.22,-20.43 25.01,-29.02 14.63,-26.22 -7.9,-69.94 -53.86,-41.87 -35.46,21.65 -61.63,71.4 -93.9,93.52 -30.93,-15.61 -54.52,-62.73 -85.52,-24.52 -21.02,25.92 13.03,59.15 48.33,83.45zm292.86 -23.49c166.37,4.65 305.47,8.03 366.4,8.03 59.12,-5.01 46.21,-79.63 -2.17,-74.93l-358.93 -6.36c-53.22,-0.53 -50.69,71.99 -5.3,73.26zm-292.86 -223.57c53.51,48.56 81.39,-3.02 159.94,-81.57 11.57,-11.58 20.22,-20.43 25.01,-29.02 14.63,-26.22 -7.9,-69.93 -53.86,-41.87 -35.46,21.66 -61.63,71.4 -93.9,93.52 -30.93,-15.61 -54.52,-62.73 -85.52,-24.51 -21.02,25.91 13.03,59.14 48.33,83.45zm292.86 -23.49c166.37,4.64 305.47,8.02 366.4,8.02 59.12,-5 46.21,-79.63 -2.17,-74.93l-358.93 -6.36c-53.22,-0.53 -50.69,72 -5.3,73.27zm-1347.42 88.78c-10.15,184.87 16.4,293.85 99.13,445.01 27.52,50.29 59.81,79.12 76.83,112.02 -421.59,0.53 -394.01,29.86 -394.01,-185.81 0,-97.38 -12.82,-187.42 35.22,-259.11 32.77,-48.9 102.1,-99.24 182.83,-112.11zm285.17 554.18l-42.88 -41.5 23.33 -286.99 82.99 -7.24 26.22 295.31c-25.8,27.09 -33.5,41.78 -89.66,40.42zm153.11 1c12.15,-20.45 21.43,-28.06 36.47,-49.17 12.68,-17.79 21.95,-33.17 34.9,-53.1 85.42,-131.39 113.26,-290.35 104.59,-451.58 67.26,6.97 147.25,56.54 181.18,107.94 44.19,66.95 37.03,162.15 37.04,253.15 0,105.77 26.81,192.67 -96.51,194.88 -89.79,1.61 -210.18,5.06 -297.67,-2.12zm-364.79 -477.95c16.95,13.15 0.34,-7.58 22.07,19.84 10.45,13.18 7.67,16.41 16.92,26.86 46.08,52.04 90.11,-21.66 73.79,148.15 -4.42,46.03 -6.65,95.88 -15.44,141.42 -57.36,-70.44 -94.91,-224.24 -97.34,-336.27zm367.22 335.68c-3.4,-41.35 -22.69,-188.98 -18.77,-217.09 7.62,-54.65 54.55,-54.91 62.25,-58.83 18.94,-9.63 43.36,-49.96 56.64,-65.32 2.21,91.08 -42.2,300.35 -100.12,341.24zm-211.47 -314.01l76.74 -85.41c29.73,34.83 54.16,42.08 78.72,85.16 -21,58.31 -36.23,46.11 -134.6,45.57l-20.86 -45.32zm186.98 -203.24c35.4,15.92 73.17,46.32 98.46,71.1 -10.77,21.96 -43.39,73.59 -60.35,87.49l-93.82 -99.26 55.71 -59.33zm-224.01 0.16l59.68 63.11 -83.66 98.08c-28.35,-16.29 -52.67,-58.56 -68.56,-90.25l92.54 -70.94zm115.32 5.32c-29.56,-21.85 -70.26,-53.43 -74.91,-96.25l149.24 -3.05c-1.88,47.37 -50.89,71.48 -74.33,99.3zm-314.07 -703.06c25.34,-34.42 14.55,-90.96 43.97,-132.06 24.7,-34.51 58.83,-58.09 100.38,-77.66 129.33,90.18 203.32,99.39 334.11,0.64 130.41,30.57 133.27,181.08 148.96,213.89l47.8 -0.37c18.24,-31.43 7.03,-39.55 34.13,-67.79 51.26,-4.74 54.63,6.33 54.63,58.3 0,234.85 -63.97,120.82 -105.97,179.33 -20.46,28.5 11.8,131.11 -99.18,252.6 -139.56,152.77 -383.8,129.12 -494.36,-0.18 -85.93,-100.5 -62.94,-125.81 -95.07,-257.75 -62.74,-26.01 -105.86,-12.58 -105.86,-103.66 -0.54,-101.89 -10.98,-128.91 53.96,-130.32 29.76,34.23 12.29,40.6 42.57,72.13l39.93 -7.1zm-136.43 -136.63c-0.14,-102.08 -13.98,-208.2 50.01,-266.36 47.66,-43.32 65.69,-21.45 113.37,-44.03 26.01,-12.31 62.97,-135.5 363.97,-103.29 109.12,11.69 155.47,36.91 201.36,104.32 37.04,6.11 69.16,7.53 98.93,25.87 20.9,12.87 44.26,37.01 54.66,59.85 28.2,61.96 19.26,151.93 17.5,222.95 -35.41,-4.06 -64.85,0.31 -94.19,7.67 -30.76,-60.89 -115.68,-170.79 -217.1,-157.75 -50.56,25.93 -45.27,71.65 -140.72,70.95 -89.05,-0.65 -92.05,-45.12 -140.64,-72.66 -54.14,-15.36 -145.12,59.56 -183.34,109.38 -4.71,6.14 -11.15,17.55 -17.16,26.79l-19.31 22.77c-36.03,-14.65 -46.68,-12.24 -87.34,-6.46zm867.05 364.57c120.97,-48.65 108.28,-127.46 108.28,-268.16 0,-94.72 12.05,-268.48 -22.64,-346.69 -19.23,-43.35 -57.24,-81.49 -93.02,-100.62 -29.08,-15.55 -38.8,-15.31 -70.54,-25.13 -58.78,-18.18 -61.26,-116.95 -341.3,-116.45 -276.4,0.49 -270.88,97.57 -354.35,120.52 -210.03,57.75 -168.46,281.19 -168.46,485.95 -0.01,203.11 4.39,184.65 114.76,256.63 14.79,131.23 74.54,227.43 170.85,297.18 88.98,64.44 89.63,20.02 89.54,100.99 -30.74,16.41 -60.14,41.19 -91.24,64.58 -84.73,63.71 -359.38,23.37 -358.94,388.47 0.32,268.67 -32.86,348.74 246.14,348.72 181.96,-0.02 784.09,16.37 879.3,-18.66 0,228.97 109.78,206.24 316.48,206.24 172.91,0 345.83,0 518.75,0 352.09,0 290.1,-17.68 290.1,-747.32 0,-555.95 52.88,-490.57 -545.08,-490.57 -95.25,0 -440.64,-13.99 -500.5,16.61 -133.84,68.4 -55.95,281.74 -83.48,435.19 -24.6,-37.42 -116.29,-89.63 -185.93,-104.84 -112.67,-24.61 -71.66,-24.35 -185.8,-104.38l1.49 -42.16c42.37,-35.15 96.22,-37.22 175.61,-136.65 70.21,-87.93 50.88,-129.82 89.98,-219.45z"/>
 </g>
</svg>
