<?xml version="1.0" encoding="UTF-8"?>
<!DOCTYPE svg PUBLIC "-//W3C//DTD SVG 1.1//EN" "http://www.w3.org/Graphics/SVG/1.1/DTD/svg11.dtd">
<!-- Creator: CorelDRAW -->
<svg xmlns="http://www.w3.org/2000/svg" xml:space="preserve" width="35mm" height="35mm" version="1.1" style="shape-rendering:geometricPrecision; text-rendering:geometricPrecision; image-rendering:optimizeQuality; fill-rule:evenodd; clip-rule:evenodd"
viewBox="0 0 3500 3500"
 xmlns:xlink="http://www.w3.org/1999/xlink"
 xmlns:xodm="http://www.corel.com/coreldraw/odm/2003">
 <defs>
  <style type="text/css">
   <![CDATA[
    .fil0 {fill:url(#id0)}
   ]]>
  </style>
  <linearGradient id="id0" gradientUnits="userSpaceOnUse" x1="1966.7" y1="1781.42" x2="1908.23" y2="1373.08">
   <stop offset="0" style="stop-opacity:1; stop-color:#2C665A"/>
   <stop offset="1" style="stop-opacity:1; stop-color:#019985"/>
  </linearGradient>
 </defs>
 <g id="Слой_x0020_1">
  <metadata id="CorelCorpID_0Corel-Layer"/>
  <path class="fil0" d="M1473.6 2567.83c-97.69,-12.27 -196.85,-6.72 -295.2,-6.72 -50.66,0 -71.44,2.24 -58.42,60.2 45.31,25.86 289.38,16.76 358.15,5.08l-4.53 -58.56zm1112.94 71.4c-0.44,40.9 8.32,98.48 -10.24,130.11 -37.21,23.25 -292.99,18.24 -344.27,6.97 -5.09,-5.78 -5.89,-18.92 -6.04,-19.31 -10.46,-10.39 -6.38,16.83 -11.87,-22.19l3.67 -99.79 368.75 4.21zm-805.7 -188.31c26.36,147.12 -52.59,330.49 -222.67,331.3 -91.98,0.44 -184.2,-0.19 -276.21,-0.19 -209.6,0 -348.16,37.79 -436.06,-120.1 -92.59,-166.27 14.3,-380.49 73.59,-395.48 37.83,0 114.7,14.65 119.31,-33.18 5.22,-54.22 -72.17,-39.56 -109.57,-41.74 0,-139.31 -28.39,-146.24 111.08,-146.03l517.82 0c137.06,-0.28 107.62,7.75 107.62,147.37 -100.23,0 -457.33,-19.9 -512.96,16.4l2.12 40.76c41.86,32.01 454.84,15.9 536.39,16.69 32.14,54.01 73.57,95.07 89.54,184.2zm808.39 109.78l-374.43 0.06 -86.56 -957.07 548.32 -0.01 -87.33 957.02zm-468.86 -1032.69c-4.83,-70.03 -26.13,-108.46 59.13,-108.46l449.04 -1.75 54.78 9.96c7.15,30.1 8.1,65.23 -3.26,102.19l-559.69 -1.94zm-635.82 443.25c-10.04,-66.3 -8.09,-335.06 -1.09,-406.26 6.13,-62.29 24.68,-111.31 50.02,-157.72 156.94,-287.54 531.19,-241.21 661.05,-63.71 -177.89,19.67 -158.76,65.57 -140.72,259.67l88.1 967.36c6.02,71.17 -1.45,140.15 6.69,211.45l-394.21 -0.3c17.87,-39.83 46.74,-47.25 77.6,-126.86 19.71,-50.86 29.98,-110.8 26.71,-170.65 -4.78,-87.76 -60.49,-223.99 -119.34,-263.07 -0.32,-266.45 -0.61,-241.03 -254.81,-249.91zm255.05 -824.26c-1.46,-128.74 22.06,-132.53 146.48,-132.51 124.46,0.01 149.87,1.78 147.43,132.16 -121.61,-28.11 -172.72,-27.77 -293.91,0.35zm110.34 -279.77l73.55 0 -0.2 73.67 -73.48 0 0.13 -73.67zm-399.13 -128.89c49.84,-38.32 226.84,-18.42 297.18,-18.42 74.41,0 297.1,-25.24 242.9,56.64 -20.53,31.02 -241.16,17.08 -294.68,17.08 -147.21,0 -269.3,25.03 -245.4,-55.3zm-38.39 825.14l-4.47 411.38 -460.63 1.35c-128.09,17.58 -81.81,168.08 -92.08,230.28 -5.44,32.94 -73.05,68.63 -108.37,208.65 -50.31,199.47 57.64,369.46 188.39,424.49 82.47,34.71 1294.25,15.48 1572.21,16.04 124.58,0.26 152.71,-42.46 152.44,-163.99 -0.45,-198 75.23,-927.9 98.39,-1173.7 11.95,-126.85 -22,-172.3 -147.26,-172.07 -103.57,0.2 -207.14,0.07 -310.72,0.07 -29.22,-6.34 -84.47,-124.93 -192.26,-163.05 -1.08,-54.74 6.73,-117.62 -17.75,-162.62 -64.41,-118.39 -93.22,5.69 -93.22,-162.1 114.57,-46.5 96.78,-208.13 -50.27,-212.02 -133.36,-3.54 -271.93,0.43 -405.95,0.14 -238.79,-0.51 -165.65,165.45 -132.97,193.4 54.44,46.57 277.37,27.49 368.32,27.49 0,96.48 2.69,72.99 -27.8,90.35 -96.38,54.86 -80.93,119.58 -83.25,226.29 -108.64,38.59 -249.99,212.87 -252.75,379.62zm150.58 70.08l58.12 2.23c27.34,-96.45 5.06,-148.9 104.83,-234.65 20.32,-17.46 48.81,-26 71.21,-48.35 11.92,-161.73 -291.02,86.95 -234.16,280.77zm13.38 844.1c0.04,-0.22 55.56,-63.85 -44.14,-63.85l-466.03 0c-51.01,0 -66.27,0.08 -58.6,53.47 19.5,17.09 24.05,20.1 58.6,20.1 120.01,0.22 410.53,10.74 510.17,-9.72z"/>
 </g>
</svg>
