<?xml version="1.0" encoding="UTF-8"?>
<!DOCTYPE svg PUBLIC "-//W3C//DTD SVG 1.1//EN" "http://www.w3.org/Graphics/SVG/1.1/DTD/svg11.dtd">
<!-- Creator: CorelDRAW -->
<svg xmlns="http://www.w3.org/2000/svg" xml:space="preserve" width="35mm" height="35mm" version="1.1" style="shape-rendering:geometricPrecision; text-rendering:geometricPrecision; image-rendering:optimizeQuality; fill-rule:evenodd; clip-rule:evenodd"
viewBox="0 0 3500 3500"
 xmlns:xlink="http://www.w3.org/1999/xlink"
 xmlns:xodm="http://www.corel.com/coreldraw/odm/2003">
 <defs>
  <style type="text/css">
   <![CDATA[
    .fil0 {fill:url(#id0)}
   ]]>
  </style>
  <linearGradient id="id0" gradientUnits="userSpaceOnUse" x1="1996.31" y1="1882.14" x2="1930.59" y2="1671.28">
   <stop offset="0" style="stop-opacity:1; stop-color:#2C665A"/>
   <stop offset="1" style="stop-opacity:1; stop-color:#019985"/>
  </linearGradient>
 </defs>
 <g id="Слой_x0020_1">
  <metadata id="CorelCorpID_0Corel-Layer"/>
  <path class="fil0" d="M1298.38 1374.67c-61.01,199.44 246.83,150.42 449.02,150.42l0 227.51c-311.44,0 -505.05,-37.67 -453.27,473.89 25.21,249.07 302.82,208.29 421.23,208.31 99.21,0.01 217.8,20.26 249.76,-63.15 86.95,-226.88 -304.36,-164.2 -445.24,-164.2l0 -227.51c79.85,0 238.16,9.54 304.49,-15.01 61.76,-22.85 129.29,-90.86 144.92,-164.86 9.57,-45.29 9.13,-258.07 2.26,-306.52 -12.17,-85.8 -69.48,-147.44 -133.48,-176.07 -73.57,-32.9 -215.62,-19.69 -303.93,-19.73 -99.21,-0.05 -206.28,-19.51 -235.76,76.92zm-462.56 315.7c9.7,125.6 1.87,281.53 1.87,410.44 0,126.65 -35.07,312.73 89.82,331.41 163.74,24.5 137.52,-151.8 137.52,-278.11 0,-112.98 15.23,-750.03 -16.29,-804.65 -25.83,-44.73 -100.69,-67.4 -153.21,-36.55 -4.39,2.59 -285.96,254.02 -284.53,328.67 1.04,54.43 70.81,185.23 224.82,48.79zm1972.94 -309.83c-97.99,-106.21 -306.57,-82.76 -443.23,-83.09 -93.6,-0.21 -160.79,13.66 -162.5,110.5 -3.26,184.98 252.83,90.14 406.54,119.35 74.71,14.21 52.2,149.61 42.06,210.3 -123.42,37.15 -325.4,-37.94 -334.91,119.83 -10.23,169.6 198.85,112.42 327.1,126.49 14.67,69.04 18.61,126.47 9.83,202.17 -114.36,72.08 -381.2,-48.26 -440.2,82.66 -96.04,213.11 248.86,166.24 344.12,166.19 181.37,-0.09 274.85,-58.48 315.86,-210.16 15.25,-56.4 15.93,-185.27 4.63,-242.33 -9.06,-45.75 -22.88,-58.71 -35.57,-93.77 -15.78,-43.57 2.9,-42.22 21.32,-89.15 50.81,-129.39 19.19,-338.51 -55.05,-418.99z"/>
 </g>
</svg>
