<?xml version="1.0" encoding="UTF-8"?>
<!DOCTYPE svg PUBLIC "-//W3C//DTD SVG 1.1//EN" "http://www.w3.org/Graphics/SVG/1.1/DTD/svg11.dtd">
<!-- Creator: CorelDRAW -->
<svg xmlns="http://www.w3.org/2000/svg" xml:space="preserve" width="35mm" height="35mm" version="1.1" style="shape-rendering:geometricPrecision; text-rendering:geometricPrecision; image-rendering:optimizeQuality; fill-rule:evenodd; clip-rule:evenodd"
viewBox="0 0 3500 3500"
 xmlns:xlink="http://www.w3.org/1999/xlink"
 xmlns:xodm="http://www.corel.com/coreldraw/odm/2003">
 <defs>
  <style type="text/css">
   <![CDATA[
    .str0 {stroke:#2C665A;stroke-width:35.28;stroke-linecap:round;stroke-miterlimit:22.9256}
    .fil0 {fill:none}
    .fil1 {fill:url(#id0)}
   ]]>
  </style>
  <linearGradient id="id0" gradientUnits="userSpaceOnUse" x1="1931.61" y1="1770.15" x2="1879.31" y2="1470.29">
   <stop offset="0" style="stop-opacity:1; stop-color:#2C665A"/>
   <stop offset="1" style="stop-opacity:1; stop-color:#019985"/>
  </linearGradient>
 </defs>
 <g id="Слой_x0020_1">
  <metadata id="CorelCorpID_0Corel-Layer"/>
  <path class="fil0 str0" d="M1059.08 2779.58c-83.56,0 -167.15,0 -250.74,0 -73.32,-0.65 -93.65,-33.13 -92.85,-88.22 0,-78.91 0,-157.86 0,-236.8m1720.22 325.02c83.57,0 167.13,0 250.75,0 73.3,-0.65 93.65,-33.13 92.85,-88.22 0,-78.91 0,-157.86 0,-236.8m-343.6 -1728.94c83.57,0 167.13,0 250.75,0 73.3,0.65 93.65,33.13 92.85,88.22 0,78.91 0,157.87 0,236.8m-1720.23 -325.02c-83.56,0 -167.15,0 -250.74,0 -73.32,0.65 -93.65,33.13 -92.85,88.22 0,78.91 0,157.87 0,236.8"/>
  <path class="fil1" d="M829.35 935.42l84.84 0 0 1627.13 -84.84 0 0 -1627.13zm1108.87 0l-120.65 0 0 1627.13 120.65 0 0 -1627.13zm72.66 0l-24.78 0 0 1627.13 24.78 0 0 -1627.13zm97.81 0l-43.26 0 0 1627.13 43.26 0 0 -1627.13zm157.56 0l-95.07 0 0 1627.13 95.07 0 0 -1627.13zm60.21 0l-24.79 0 0 1627.13 24.79 0 0 -1627.13zm63.8 0l-24.78 0 0 1627.13 24.78 0 0 -1627.13zm93.77 0l-43.26 0 0 1627.13 43.26 0 0 -1627.13zm157.56 0l-95.07 0 0 1627.13 95.07 0 0 -1627.13zm-897.2 0l24.79 0 0 1627.13 -24.79 0 0 -1627.13zm-116.15 0l43.26 0 0 1627.13 -43.26 0 0 -1627.13zm-157.56 0l95.06 0 0 1627.13 -95.06 0 0 -1627.13zm-60.21 0l24.78 0 0 1627.13 -24.78 0 0 -1627.13zm-63.81 0l24.78 0 0 1627.13 -24.78 0 0 -1627.13zm-93.77 0l43.26 0 0 1627.13 -43.26 0 0 -1627.13zm-157.56 0l95.07 0 0 1627.13 -95.07 0 0 -1627.13zm-110.16 0l43.46 0 0 1627.13 -43.46 0 0 -1627.13z"/>
 </g>
</svg>
