<?xml version="1.0" encoding="UTF-8"?>
<!DOCTYPE svg PUBLIC "-//W3C//DTD SVG 1.1//EN" "http://www.w3.org/Graphics/SVG/1.1/DTD/svg11.dtd">
<!-- Creator: CorelDRAW -->
<svg xmlns="http://www.w3.org/2000/svg" xml:space="preserve" width="35mm" height="35mm" version="1.1" style="shape-rendering:geometricPrecision; text-rendering:geometricPrecision; image-rendering:optimizeQuality; fill-rule:evenodd; clip-rule:evenodd"
viewBox="0 0 3500 3500"
 xmlns:xlink="http://www.w3.org/1999/xlink"
 xmlns:xodm="http://www.corel.com/coreldraw/odm/2003">
 <defs>
  <style type="text/css">
   <![CDATA[
    .fil0 {fill:url(#id0)}
   ]]>
  </style>
  <linearGradient id="id0" gradientUnits="userSpaceOnUse" x1="2024.6" y1="1742.6" x2="1957.08" y2="1351.64">
   <stop offset="0" style="stop-opacity:1; stop-color:#2C665A"/>
   <stop offset="1" style="stop-opacity:1; stop-color:#019985"/>
  </linearGradient>
 </defs>
 <g id="Слой_x0020_1">
  <metadata id="CorelCorpID_0Corel-Layer"/>
  <path class="fil0" d="M1922.48 2675.24l-128.94 -3c-14.46,-22.51 -10.1,-19.28 -9.64,-67.96l3.06 -222.64c39.42,-15.23 97.57,-11.7 140.21,-3.33 10.03,45.59 5.63,173.82 5.86,235.99 0.13,35.35 2.48,39.44 -10.55,60.94zm-421.41 -1362.74l0 158.97c0,105.98 99.27,100.9 99.27,0l0 -133.52 149.3 1.69c-0.03,33.99 -4.84,154.29 5.3,177.67 19.94,46 93.94,46.27 93.94,-45.84 0,-270.29 39.44,-232.75 -266.7,-232.75 -64.84,0 -81.11,8.22 -81.11,73.78zm0 417.28l0 149.03c0,76.74 55.86,114.24 90.37,59.56 19.76,-31.3 6.28,-139.77 11.99,-186.11l143.97 0.34c3.78,41.59 -4.77,152.31 9.21,180.43 24.77,49.84 92.27,41.89 92.27,-54.22 0,-81.25 10.56,-164.66 -17.38,-218.09 -100.43,-15.68 -143.44,-8.2 -249.32,-7.73 -69.6,0 -81.11,4.57 -81.11,76.79zm863.1 25.09c185.6,-72.56 260.93,214.24 98.47,269.9 -180.01,61.68 -276.74,-200.2 -98.47,-269.9zm-11.81 -100.72c-305.24,82.05 -197.44,545.16 121.48,470.74 109.31,-25.51 209.07,-147.25 176.08,-291.05 -26.49,-115.49 -152.26,-218.75 -297.56,-179.69zm-1434.67 16.06l108.12 -0.12 219.74 0 -1.16 1004.13 -288.13 0.25 -38.57 -1.5 0 -1002.76zm1498.93 952.42c-43.47,-34.9 -308.15,-493.54 -347.85,-584.61 -114.28,-262.17 83.86,-512.21 338.17,-515.9 257.55,-3.74 463.85,243.86 354.46,512.62 -64.59,158.7 -248.79,431.15 -344.78,587.89zm-1356.03 -1204.54l184.96 0 0.15 112.99 -1.31 39.14 -182.91 0.01 -0.72 -39.15 -0.17 -112.99zm288.2 -419.21l1018.25 -0.72 -2.95 423.63c-81.13,30.23 -117.87,21.92 -196.93,68.35 -166.65,97.84 -280.77,317.57 -216.52,516.92 43.27,134.24 194.08,381.05 276.15,508.91 31.96,49.78 64.67,108.63 95.67,157.39l-297.28 0.86c0,-58.24 8.92,-336.62 -7.9,-366.71 -26.01,-46.52 -270.68,-30.86 -319.07,-15.19 -19.92,66.87 -9.81,289.21 -9.82,381.66l-340.8 -3.54 1.2 -1671.56zm230.77 -238.9l555.1 1.7 0.82 132.3c-61.29,9.93 -513.75,11.67 -557.58,-3.51l1.66 -130.49zm-94.69 -60.52c0.99,58.26 10.9,147.61 -7.45,201.81l-198.69 7.43c-35.92,15.53 -32.46,23.75 -32.55,75.21 -0.15,82.24 7.08,276.34 -3.86,334.95 -72.61,0 -213.14,-7.57 -269.65,10.28 -19.54,56.9 -10.85,166.24 -11.34,236.8l-128.58 9.54c-32.78,76.51 -14.33,935.72 -14.33,1099.85 -53.33,0 -258.43,-30.77 -209.38,74.09 13.11,28.05 42.83,25.55 78.33,25.74l1977.75 -0.6c65.58,0 134.43,2.16 199.52,0.62 107.16,-2.53 84.76,-84.89 35.98,-97.77 -40.96,-10.82 -329.84,-1.88 -396.18,-2.24 137.6,-305.38 582.4,-678.89 289.73,-1064.26 -122.61,-161.44 -222.07,-143.85 -324.83,-189.12 -9.52,-90.78 14.09,-448.33 -12.19,-494.37 -11.85,-19.7 6.42,-29.47 -89.49,-28.89 -44.34,0.27 -88.6,0.39 -132.95,0.39 0,-305.34 72.1,-238.44 -533.31,-238.44l-183.78 2.57c-36.47,10.83 -27.54,17.01 -32.75,36.41z"/>
 </g>
</svg>
