<?xml version="1.0" encoding="UTF-8"?>
<!DOCTYPE svg PUBLIC "-//W3C//DTD SVG 1.1//EN" "http://www.w3.org/Graphics/SVG/1.1/DTD/svg11.dtd">
<!-- Creator: CorelDRAW -->
<svg xmlns="http://www.w3.org/2000/svg" xml:space="preserve" width="35mm" height="35mm" version="1.1" style="shape-rendering:geometricPrecision; text-rendering:geometricPrecision; image-rendering:optimizeQuality; fill-rule:evenodd; clip-rule:evenodd"
viewBox="0 0 3500 3500"
 xmlns:xlink="http://www.w3.org/1999/xlink"
 xmlns:xodm="http://www.corel.com/coreldraw/odm/2003">
 <defs>
  <style type="text/css">
   <![CDATA[
    .fil0 {fill:url(#id0)}
   ]]>
  </style>
  <linearGradient id="id0" gradientUnits="userSpaceOnUse" x1="1884.19" y1="1777.6" x2="1847.72" y2="1423.34">
   <stop offset="0" style="stop-opacity:1; stop-color:#2C665A"/>
   <stop offset="1" style="stop-opacity:1; stop-color:#019985"/>
  </linearGradient>
 </defs>
 <g id="Слой_x0020_1">
  <metadata id="CorelCorpID_0Corel-Layer"/>
  <path class="fil0" d="M2116.03 1476.44l0 -289.85c0,-123.02 -125.97,-184.11 -377.9,-184.11 -239.71,0 -359.36,61.09 -359.36,184.11l0 210.64 -263.31 0 0 -263.3c0,-228.34 208.12,-342.51 624.78,-342.51 425.92,0 639.1,114.17 639.1,342.51l0 368.63c0,171.46 -85.1,273.84 -255.73,307.54l-227.49 69.51c-64.04,18.12 -96.06,50.56 -96.06,96.9l0 157.98 -263.31 0 0 -196.74c3.37,-132.28 70.78,-216.54 202.22,-252.77l235.09 -61.51c94.79,-38.34 141.97,-87.63 141.97,-147.03zm-579.28 1105.89c0,87.63 43.82,131.44 131.87,131.44 87.63,0 131.44,-43.81 131.44,-131.44 0,-88.05 -43.81,-131.87 -131.44,-131.87 -88.05,0 -131.87,43.82 -131.87,131.87z"/>
 </g>
</svg>
