<?xml version="1.0" encoding="UTF-8"?>
<!DOCTYPE svg PUBLIC "-//W3C//DTD SVG 1.1//EN" "http://www.w3.org/Graphics/SVG/1.1/DTD/svg11.dtd">
<!-- Creator: CorelDRAW -->
<svg xmlns="http://www.w3.org/2000/svg" xml:space="preserve" width="35mm" height="35mm" version="1.1" style="shape-rendering:geometricPrecision; text-rendering:geometricPrecision; image-rendering:optimizeQuality; fill-rule:evenodd; clip-rule:evenodd"
viewBox="0 0 3500 3500"
 xmlns:xlink="http://www.w3.org/1999/xlink"
 xmlns:xodm="http://www.corel.com/coreldraw/odm/2003">
 <defs>
  <style type="text/css">
   <![CDATA[
    .fil0 {fill:#2C675B}
   ]]>
  </style>
 </defs>
 <g id="Слой_x0020_1">
  <metadata id="CorelCorpID_0Corel-Layer"/>
  <path class="fil0" d="M447.55 1027.37c-0.01,-72.53 2.38,-121.47 42.15,-164.74 3.08,-3.34 3.87,-3.53 7.81,-7.47 1.92,-1.91 4.12,-4.52 5.93,-6.27l47.03 -29.88c70.09,-28.47 229.6,-4.49 293.54,-14.32 26.82,-4.12 48.11,-29.53 39.76,-62.15 -7.88,-30.8 -32.16,-35.79 -66.46,-35.66 -133.8,0.52 -265.06,-18.58 -359.65,53.05 -113.95,86.29 -108.33,182.77 -108.55,304.63 0.15,588.01 -0.17,797.95 0.03,1392.82 0.08,71.83 -3.78,121.3 23.64,183.06 16.1,36.28 30.58,55.12 54.27,78.15 54.46,52.92 109.27,80.23 200.24,80.57 67.01,0.25 139.08,2.37 205.57,-0.02 72.45,-2.61 71.09,-97.51 -3.08,-98.51 -68.56,-0.92 -137.57,0.7 -206.21,0.1 -67.82,-0.59 -116.14,-31.92 -140.32,-66.09 -41.72,-58.96 -35.68,-90.03 -35.7,-171.04 -0.12,-575 0.06,-862.2 0,-1436.23zm2599.7 0c0.01,-72.53 -2.38,-121.47 -42.15,-164.74 -3.07,-3.34 -3.87,-3.53 -7.81,-7.47 -1.92,-1.91 -4.12,-4.52 -5.93,-6.27l-47.03 -29.88c-70.09,-28.47 -229.6,-4.49 -293.54,-14.32 -26.82,-4.12 -48.11,-29.53 -39.76,-62.15 7.88,-30.8 32.17,-35.79 66.46,-35.66 133.8,0.52 265.07,-18.58 359.65,53.05 113.95,86.29 108.33,182.77 108.55,304.63 -0.14,588.01 0.17,797.95 -0.03,1392.82 -0.07,71.83 3.78,121.3 -23.63,183.06 -16.11,36.28 -30.59,55.12 -54.28,78.15 -54.45,52.92 -109.27,80.23 -200.24,80.57 -67.01,0.25 -139.08,2.37 -205.57,-0.02 -72.45,-2.61 -71.09,-97.51 3.08,-98.51 68.56,-0.92 137.57,0.7 206.21,0.1 67.83,-0.59 116.14,-31.92 140.32,-66.09 41.73,-58.96 35.68,-90.03 35.7,-171.04 0.12,-575 -0.06,-862.2 0,-1436.23zm-777.49 1097.88c-14.93,-148.29 205.53,-167.95 220.07,-24.43 15.08,148.88 -205.91,164.98 -220.07,24.43zm-98.27 6.15c7.95,58.8 33.67,106.16 69.62,138.41 34.07,30.57 92.88,56.81 157.02,51.23 166.73,-14.51 267.4,-222.31 119.67,-364.8 -35.07,-33.82 -94.16,-56.85 -156.34,-51.76 -103.66,8.49 -206.15,107.09 -189.97,226.92zm-449.43 -127.05c139.73,-29.47 187.67,185.72 43.01,216.83 -65.38,14.07 -119.31,-31.6 -130.59,-85.58 -14.54,-69.54 32.33,-119.59 87.58,-131.25zm-187.54 127.05c8.67,110.2 107.16,198.71 226.28,190.01 106.17,-7.75 200.41,-104.68 190.33,-225.97 -9.01,-108.41 -103.41,-201.23 -226.21,-190.99 -110.31,9.2 -199.95,105.57 -190.4,226.95zm-447.97 -126.41c66.06,-15.08 119.02,32.04 130.42,83.75 14.72,66.69 -31.81,120.27 -83.07,131.98 -140.66,32.15 -195.72,-181.86 -47.35,-215.73zm229.45 135.64c17.4,-122.12 -71.98,-219.68 -177.61,-234.92 -122.3,-17.65 -221.89,72.78 -236.54,177.75 -17.41,124.7 73.45,221.88 178.97,236.63 127.65,17.84 220.62,-77.33 235.18,-179.46z"/>
 </g>
</svg>
