<?xml version="1.0" encoding="UTF-8"?>
<!DOCTYPE svg PUBLIC "-//W3C//DTD SVG 1.1//EN" "http://www.w3.org/Graphics/SVG/1.1/DTD/svg11.dtd">
<!-- Creator: CorelDRAW -->
<svg xmlns="http://www.w3.org/2000/svg" xml:space="preserve" width="35mm" height="35mm" version="1.1" style="shape-rendering:geometricPrecision; text-rendering:geometricPrecision; image-rendering:optimizeQuality; fill-rule:evenodd; clip-rule:evenodd"
viewBox="0 0 3500 3500"
 xmlns:xlink="http://www.w3.org/1999/xlink"
 xmlns:xodm="http://www.corel.com/coreldraw/odm/2003">
 <defs>
  <style type="text/css">
   <![CDATA[
    .fil4 {fill:#2C675B}
    .fil6 {fill:#019985}
    .fil0 {fill:#F1F6FE}
    .fil1 {fill:url(#id0)}
    .fil5 {fill:url(#id1)}
    .fil3 {fill:url(#id2)}
    .fil2 {fill:url(#id3)}
   ]]>
  </style>
  <linearGradient id="id0" gradientUnits="userSpaceOnUse" x1="2455.39" y1="3140.23" x2="2279.06" y2="489.81">
   <stop offset="0" style="stop-opacity:1; stop-color:#2C665A"/>
   <stop offset="1" style="stop-opacity:1; stop-color:#019985"/>
  </linearGradient>
  <linearGradient id="id1" gradientUnits="userSpaceOnUse" xlink:href="#id0" x1="2209.46" y1="2418" x2="2095.71" y2="782.34">
  </linearGradient>
  <linearGradient id="id2" gradientUnits="userSpaceOnUse" xlink:href="#id0" x1="2154.05" y1="2224.31" x2="2057.79" y2="853.29">
  </linearGradient>
  <linearGradient id="id3" gradientUnits="userSpaceOnUse" xlink:href="#id0" x1="2333.62" y1="2754.51" x2="2189.56" y2="632.54">
  </linearGradient>
 </defs>
 <g id="Слой_x0020_1">
  <metadata id="CorelCorpID_0Corel-Layer"/>
  <g id="_2242766453568">
   <path class="fil0" d="M1079.59 2466.68l108.97 0 0.82 109.79 -109.83 0 0.04 -109.79zm1208.55 109.79l0 -109.79 164.55 0 0.25 -164.81 109.83 0c-0.03,319.51 44.86,274.6 -274.63,274.6zm109.71 -1098.62l55.02 0.01 -0.52 659.05c-5.02,42.69 -51.1,66.47 -77.84,86.52 -36.96,27.71 -157.31,128.15 -196.54,132.65l-816.88 0.66c-187.7,0 -227.48,26.39 -226.67,-102.9 0.97,-153.18 -12.82,-935.31 10.81,-971.16 21.54,-32.68 128.66,-130.15 164.11,-165.61 93.77,-93.77 100.77,-77.69 100.15,-147.09 -1.23,-139.36 -15.49,-254.99 101.64,-303.57 54.2,-22.49 238.03,-12.56 310.03,-12.56 312.33,0 302.1,39.77 302.1,352.31 70.18,26.96 162.98,79.75 233.22,114.83 120.69,60.31 96.39,39.24 96.39,246.93l-55.02 0.01 0 109.92zm-109.75 -933.87l199.14 0c54.76,0 75.5,20.74 75.5,75.5l0.03 199.1 -109.83 0 0 -164.8 -164.8 0 -0.04 -109.8zm-1263.45 274.6c0,-319.72 -45.14,-274.6 274.6,-274.6l0.9 109.8 -165.7 0 0 164.8 -109.8 0zm-164.89 1538.16l-0.24 82.77c1.15,14.37 -1.01,-1.11 1.52,12.47 3.08,16.56 2.07,10.36 5.15,15.95l104.51 -1.39 0 109.93 -104.51 -1.26 -6.43 111.2 54.95 0 0 164.8 1757.93 0 0.04 -2417.17 -1757.93 0 -0.04 1922.7 -54.95 0z"/>
   <path class="fil1" d="M640.08 2686.41l54.9 0c0,-599.69 0,-1529.04 0,-2128.73 0,-157.54 -23.55,-293.9 117.19,-336.36 56.81,-17.13 1553.9,-7.01 1784.94,-7.01 67.56,0 149.47,-10.56 207.54,19.11 44.29,22.63 80.6,65.32 86.71,132.04 11.89,129.91 1.05,317.06 1.05,453.16l-0.07 2237.34c0.49,120.82 -14.23,192.64 -112,225.91 -53.29,18.13 -892.03,8.82 -986.64,8.82 -98.97,0 -934.83,10.81 -991.83,-10.68 -93.48,-35.24 -107.31,-104.04 -106.82,-224.05l-0.46 -369.55 -54.51 0 -54.93 -0.04c0,114.45 0,228.9 0,343.34 0,141.82 -4.02,205.17 70.24,279.97 74.75,75.3 107.58,90.88 252.49,90.84l1737.29 0c140.84,0 195.61,0.51 269.63,-73.71 78.79,-79 87.45,-112.05 87.45,-262.76l0 -2080.63c0,-127.48 14.1,-604.51 -9.49,-684.06 -23.9,-80.66 -89.82,-148.97 -164.86,-178.48 -83.36,-32.78 -226.84,-16.41 -333.79,-16.41 -462.37,0 -924.73,0 -1387.09,0 -179.76,0 -429.58,-49.84 -509.15,184.4 -25.62,75.43 -12.72,561.83 -12.72,680.82 0,462.36 0,1254.39 0,1716.75l54.93 -0.03z"/>
   <path class="fil2" d="M859.76 2643.95l54.95 0 0.04 -2209.91 1757.93 0 -0.04 2417.17 -1757.93 0 0 -207.26 -54.95 0 -54.84 -0.01c0,323.32 -43.09,317.07 281.5,317.07 231.78,0 1634.47,6.89 1663.03,-5.72 38.3,-16.91 33.23,-64.04 33.05,-110.96l-0.02 -2362.19c0,-130.9 22.41,-158.45 -116.69,-157.92l-1668.64 0.02c-110.05,0 -192.87,-31.74 -192.46,89l0.23 2230.71 54.84 0z"/>
   <path class="fil3" d="M1458.57 1862.42l664.76 -0.09 0 384.6 -136.71 -0.05 -742.27 0.02 0 -384.54 214.22 0.06zm-214.33 -354.71l0.08 -139.79 880.7 0 -1.68 384.61 -751.88 0.13 -127.11 -0.19 -0.11 -244.76zm81.24 -249.93c55.65,-90.63 193.36,-144.49 193.8,-246.54 0.18,-39.63 -6.15,-188.35 5.39,-214.57 22.46,-51.02 127.39,-33.02 186.62,-33.02 73.33,0 146.81,-0.54 220.09,-0.29 156.87,0.53 33.77,168.02 102.51,336.96 20.39,50.1 45.45,106.28 61.86,157.79l-770.27 -0.33zm1072.37 220.07l-54.8 -0.01 0 634.48c-30.98,17.47 -78.13,55.02 -107.33,77.09 -7.97,-51.07 -2.91,-706.93 -2.54,-814.6 0.41,-121.3 -31.64,-122.82 -56.26,-218.41l165.75 79.75 0.38 131.79 54.8 -0.01 55.02 -0.01c0,-207.69 24.3,-186.62 -96.39,-246.93 -70.24,-35.08 -163.04,-87.87 -233.22,-114.83 0,-312.54 10.23,-352.31 -302.1,-352.31 -72,0 -255.83,-9.93 -310.03,12.56 -117.13,48.58 -102.87,164.21 -101.64,303.57 0.62,69.4 -6.38,53.32 -100.15,147.09 -35.45,35.46 -142.57,132.93 -164.11,165.61 -23.63,35.85 -9.84,817.98 -10.81,971.16 -0.81,129.29 38.97,102.9 226.67,102.9l816.88 -0.66c39.23,-4.5 159.58,-104.94 196.54,-132.65 26.74,-20.05 72.82,-43.83 77.84,-86.52l0.52 -659.05 -55.02 -0.01z"/>
   <polygon class="fil4" points="1519.06,3126.64 1519.06,3180.75 2068.37,3180.75 2068.33,3126.64 2068.37,3070.95 1519.06,3070.95 "/>
   <path class="fil5" d="M2288.14 2576.47c319.49,0 274.6,44.91 274.63,-274.6l-109.83 0 -0.25 164.81 -164.55 0 0 109.79zm0 -1922.69l164.8 0 0 164.8 109.83 0 -0.03 -199.1c0,-54.76 -20.74,-75.5 -75.5,-75.5l-199.14 0 0.04 109.8zm-1263.49 164.8l109.8 0 0 -164.8 165.7 0 -0.9 -109.8c-319.74,0 -274.6,-45.12 -274.6,274.6zm253.03 1757.89c-319.49,0 -274.6,44.91 -274.63,-274.6l109.83 0 0.25 164.81 164.55 0 0 109.79z"/>
   <polygon class="fil6" points="1628.92,983.39 1902.7,983.39 1903.54,873.58 1628.89,873.58 "/>
  </g>
 </g>
</svg>
