<?xml version="1.0" encoding="UTF-8"?>
<!DOCTYPE svg PUBLIC "-//W3C//DTD SVG 1.1//EN" "http://www.w3.org/Graphics/SVG/1.1/DTD/svg11.dtd">
<!-- Creator: CorelDRAW -->
<svg xmlns="http://www.w3.org/2000/svg" xml:space="preserve" width="35mm" height="35mm" version="1.1" style="shape-rendering:geometricPrecision; text-rendering:geometricPrecision; image-rendering:optimizeQuality; fill-rule:evenodd; clip-rule:evenodd"
viewBox="0 0 3500 3500"
 xmlns:xlink="http://www.w3.org/1999/xlink"
 xmlns:xodm="http://www.corel.com/coreldraw/odm/2003">
 <defs>
  <style type="text/css">
   <![CDATA[
    .fil0 {fill:url(#id0)}
   ]]>
  </style>
  <linearGradient id="id0" gradientUnits="userSpaceOnUse" x1="2466.34" y1="3010.2" x2="2274.62" y2="612.15">
   <stop offset="0" style="stop-opacity:1; stop-color:#2C665A"/>
   <stop offset="1" style="stop-opacity:1; stop-color:#019985"/>
  </linearGradient>
 </defs>
 <g id="Слой_x0020_1">
  <metadata id="CorelCorpID_0Corel-Layer"/>
  <path class="fil0" d="M2568.28 3072.52l-0.1 -324.49 323.38 0.12c-13.34,27.85 -206.65,213.25 -237.45,244.12 -25.85,25.9 -54.31,64.22 -85.83,80.25zm-1541.63 -2263.33l347.68 0c27.34,0 49.7,22.36 49.7,49.7l0 0c0,27.34 -22.36,49.7 -49.7,49.7l-347.68 0c-27.33,0 -49.7,-22.36 -49.7,-49.7l0 0c0,-27.34 22.37,-49.7 49.7,-49.7zm0 -249.65l193.66 0c27.34,0 49.71,22.36 49.71,49.7l0 0c0,27.33 -22.37,49.7 -49.71,49.7l-193.66 0c-27.33,0 -49.7,-22.37 -49.7,-49.7l0 0c0,-27.34 22.37,-49.7 49.7,-49.7zm696.36 1154.02l944.25 0c27.34,0 49.7,22.37 49.7,49.71l0 0c0,27.33 -22.36,49.7 -49.7,49.7l-944.25 0c-27.33,0 -49.7,-22.37 -49.7,-49.7l0 0c0,-27.34 22.37,-49.71 49.7,-49.71zm0 216.04l944.25 0c27.34,0 49.7,22.36 49.7,49.7l0 0c0,27.34 -22.36,49.7 -49.7,49.7l-944.25 0c-27.33,0 -49.7,-22.36 -49.7,-49.7l0 0c0,-27.34 22.37,-49.7 49.7,-49.7zm0 220.51l944.25 0c27.34,0 49.7,22.37 49.7,49.7l0 0c0,27.34 -22.36,49.71 -49.7,49.71l-944.25 0c-27.33,0 -49.7,-22.37 -49.7,-49.71l0 0c0,-27.33 22.37,-49.7 49.7,-49.7zm699.63 249.86l244.62 0c27.34,0 49.7,22.37 49.7,49.7l0 0.01c0,27.33 -22.36,49.7 -49.7,49.7l-244.62 0c-27.33,0 -49.7,-22.37 -49.7,-49.7l0 -0.01c0,-27.33 22.37,-49.7 49.7,-49.7zm-672.98 510.35l460.54 0c27.34,0 49.7,22.36 49.7,49.7l0 0c0,27.34 -22.36,49.7 -49.7,49.7l-460.54 0c-27.34,0 -49.7,-22.36 -49.7,-49.7l0 0c0,-27.34 22.36,-49.7 49.7,-49.7zm-723.45 0l460.54 0c27.33,0 49.7,22.36 49.7,49.7l0 0c0,27.34 -22.37,49.7 -49.7,49.7l-460.54 0c-27.34,0 -49.7,-22.36 -49.7,-49.7l0 0c0,-27.34 22.36,-49.7 49.7,-49.7zm723.45 -266.39l460.54 0c27.34,0 49.7,22.36 49.7,49.7l0 0c0,27.34 -22.36,49.7 -49.7,49.7l-460.54 0c-27.34,0 -49.7,-22.36 -49.7,-49.7l0 0c0,-27.34 22.36,-49.7 49.7,-49.7zm-723.45 0l460.54 0c27.33,0 49.7,22.36 49.7,49.7l0 0c0,27.34 -22.37,49.7 -49.7,49.7l-460.54 0c-27.34,0 -49.7,-22.36 -49.7,-49.7l0 0c0,-27.34 22.36,-49.7 49.7,-49.7zm723.45 -243.96l460.54 0c27.34,0 49.7,22.37 49.7,49.7l0 0.01c0,27.33 -22.36,49.7 -49.7,49.7l-460.54 0c-27.34,0 -49.7,-22.37 -49.7,-49.7l0 -0.01c0,-27.33 22.36,-49.7 49.7,-49.7zm-723.45 0l460.54 0c27.33,0 49.7,22.37 49.7,49.7l0 0.01c0,27.33 -22.37,49.7 -49.7,49.7l-460.54 0c-27.34,0 -49.7,-22.37 -49.7,-49.7l0 -0.01c0,-27.33 22.36,-49.7 49.7,-49.7zm296.98 -1238.32l1.46 890.03 -195.95 0.26c-0.71,-1.33 -1.91,-4.76 -2.1,-4.02l-3.41 -43.96c1.34,-157.55 -7.42,-809.27 3.74,-847.82 20.83,-2.12 175.02,-8.25 196.26,5.51zm-495.98 343.45l196.47 -0.51 3.09 21.31 -0.52 525.78 -199.15 -0.14 0.11 -546.44zm-298.46 248.16l198.56 0 0.39 298.42 -197.12 0 -1.83 -298.42zm497.5 -629.51l0 281.46c-268.4,0 -299.09,-26.96 -298.68,85.69 0.19,54.02 1.07,109.02 -0.27,162.96 -60.23,0 -120.46,0.06 -180.69,-0.01 -65.67,-0.07 -117.27,-12.58 -117.27,64.47l0 367.23c0,49.16 15.29,65.74 64.81,65.74 346.81,0 693.62,0 1040.43,0 25.86,-2.4 48.75,-14.84 50.41,-48.01 1.75,-35.17 -23.84,-51.05 -50.81,-51.61l-110.3 0.01 0.16 -927.93c0,-49.39 -16.16,-66.83 -67.19,-66.83l-262.31 0c-53.36,0 -68.29,14.8 -68.29,66.83zm1640.03 -167l0.49 450.91 -594.97 -2.09 -1.81 -448.86 596.29 0.04zm-596.29 -305.91l596.4 0 0 221.57 -596.4 0 0 -221.57zm-348.23 1.51l252 0 0 221.57 -252 0 0 -221.57zm253.5 750.04l-250.29 -1.23 -3.21 -442.94 250.49 -1.03 3.01 445.2zm-310.6 -841.16c-46.36,8.7 -41.99,44.88 -41.74,90.35l-0.14 781.33c0.64,55.54 10.34,70.41 66.02,71.89 103.81,2.78 1011.35,5.34 1042.77,-2.85 52.45,-13.67 35.53,-135.64 35.53,-220.81l0.17 -653.2c-0.97,-51.86 -10.92,-67.61 -63.71,-68.69 -48.6,-0.99 -1003.51,-4.66 -1038.9,1.98zm-936.96 445.56l99.44 0.35 0.21 -645.97 2138.3 -0.68 0.36 2288.13c-72.8,0 -457.54,-12.61 -483.82,14.37 -27.24,27.95 -12.61,409.36 -13.86,481.57l-1640.91 1.01 -0.32 -745.6 -96.7 0.11c-6.55,36.44 -6.94,787.64 0.89,812.92 10.96,35.38 44.72,32.77 83.36,32.61l1638.06 -0.11c115.78,0.16 105.19,-18.55 162.79,-76.17l407.91 -408.16c22.53,-22.35 42.04,-33.91 42.04,-81.06l0 -2349.1c0,-85.93 -48.16,-69.97 -123.1,-69.92l-1970.22 0c-264.97,0 -244.44,-28.16 -244.43,151.52l0 594.18z"/>
 </g>
</svg>
