<svg width="18" height="18" viewBox="0 0 18 18" fill="none" xmlns="http://www.w3.org/2000/svg">
<path d="M9.00012 17.0625C8.49762 17.0625 7.98762 16.9349 7.53762 16.6724L3.08262 14.0999C2.18262 13.5749 1.62012 12.6074 1.62012 11.5649V6.43496C1.62012 5.39246 2.18262 4.42496 3.08262 3.89996L7.53762 1.32747C8.43762 0.802466 9.55512 0.802466 10.4626 1.32747L14.9176 3.89996C15.8176 4.42496 16.3801 5.39246 16.3801 6.43496V11.5649C16.3801 12.6074 15.8176 13.5749 14.9176 14.0999L10.4626 16.6724C10.0126 16.9349 9.50262 17.0625 9.00012 17.0625ZM9.00012 2.06245C8.69262 2.06245 8.37762 2.14496 8.10012 2.30246L3.64512 4.87495C3.09012 5.19745 2.74512 5.78996 2.74512 6.43496V11.5649C2.74512 12.2024 3.09012 12.8025 3.64512 13.125L8.10012 15.6974C8.65512 16.0199 9.34512 16.0199 9.90012 15.6974L14.3551 13.125C14.9101 12.8025 15.2551 12.2099 15.2551 11.5649V6.43496C15.2551 5.79746 14.9101 5.19745 14.3551 4.87495L9.90012 2.30246C9.62262 2.14496 9.30762 2.06245 9.00012 2.06245Z" fill="#246256"/>
<path d="M8.99994 8.81255C7.72494 8.81255 6.68994 7.77753 6.68994 6.50253C6.68994 5.22753 7.72494 4.19257 8.99994 4.19257C10.2749 4.19257 11.3099 5.22753 11.3099 6.50253C11.3099 7.77753 10.2749 8.81255 8.99994 8.81255ZM8.99994 5.31757C8.34744 5.31757 7.81494 5.85003 7.81494 6.50253C7.81494 7.15503 8.34744 7.68755 8.99994 7.68755C9.65244 7.68755 10.1849 7.15503 10.1849 6.50253C10.1849 5.85003 9.65244 5.31757 8.99994 5.31757Z" fill="#246256"/>
<path d="M12 13.0576C11.6925 13.0576 11.4375 12.8026 11.4375 12.4951C11.4375 11.4601 10.3425 10.6126 9 10.6126C7.6575 10.6126 6.5625 11.4601 6.5625 12.4951C6.5625 12.8026 6.3075 13.0576 6 13.0576C5.6925 13.0576 5.4375 12.8026 5.4375 12.4951C5.4375 10.8376 7.035 9.48761 9 9.48761C10.965 9.48761 12.5625 10.8376 12.5625 12.4951C12.5625 12.8026 12.3075 13.0576 12 13.0576Z" fill="#246256"/>
</svg>
